<svg width="905" height="136" viewBox="0 0 905 136" fill="none" xmlns="http://www.w3.org/2000/svg">
<path d="M614.587 42.7244C594.871 42.7244 579.4 58.0907 579.368 77.7149C579.368 87.1908 582.97 95.9945 589.596 102.589C596.189 109.184 605.067 112.801 614.587 112.801C634.303 112.801 649.774 97.4031 649.774 77.7469C649.774 58.1228 634.303 42.7244 614.587 42.7244ZM614.587 56.4581H614.651C626.52 56.4581 635.847 65.7739 635.912 77.6829C635.912 83.4453 633.757 88.8235 629.768 92.8252C625.78 96.8268 620.409 99.0357 614.651 99.0357H614.587C608.862 99.0357 603.555 96.8588 599.599 92.8572C595.642 88.8555 593.455 83.5093 593.455 77.7149C593.455 65.8059 602.751 56.4581 614.619 56.4261L614.587 56.4581Z" fill="#333535"/>
<path d="M576.473 92.537C576.183 91.9607 575.926 91.3525 575.637 90.7762C575.508 90.4881 575.347 90.264 575.251 90.1039L574.929 89.5597C573.835 87.799 571.295 87.6709 570.008 89.3036L569.493 89.9759C569.493 89.9759 569.3 90.232 569.204 90.36C564.476 96.2825 558.879 99.1957 552.028 99.1957C550.581 99.1957 549.069 99.0677 547.525 98.7795C536.429 96.8908 529.096 87.0307 530.446 75.8901C531.058 70.992 533.148 66.8303 536.686 63.5329C540.9 59.6273 545.724 57.7065 551.514 57.7065C552.125 57.7065 552.8 57.7065 553.444 57.7705C557.786 58.0907 561.613 59.5633 565.119 62.3164C566.759 63.5969 568.239 65.1656 569.654 67.1184L570.008 67.5986C571.327 69.4234 574.125 69.1673 575.122 67.1504L575.99 65.3577C577.213 62.7966 577.277 60.2996 576.923 58.2827C576.409 55.4336 574.833 52.8405 572.517 51.0798C566.309 46.4378 559.362 44.0688 551.932 44.0688C549.391 44.0688 546.721 44.357 544.084 44.9012C534.756 46.854 527.391 51.784 522.212 59.6273C517.645 66.5102 515.844 74.2894 516.873 82.7089C517.935 91.3525 521.762 98.5875 528.259 104.126C534.949 109.856 542.636 112.769 551.128 112.769C553.476 112.769 555.888 112.545 558.332 112.097C565.955 110.72 572.485 106.943 577.759 100.924C578.917 99.5799 579.142 97.9152 578.371 96.3465C577.759 95.066 577.116 93.7855 576.537 92.5049L576.473 92.537Z" fill="#333535"/>
<path d="M382.75 38.9468V26.6857V25.8214C382.75 24.1887 381.431 22.8441 379.759 22.8441H375.191C371.686 22.8441 368.855 25.6613 368.855 29.1507V50.9198C362.069 46.2778 355.346 44.8052 355.346 44.8052C352.838 44.325 350.329 44.0689 347.917 44.0689C341.259 44.0689 334.954 45.9577 329.261 49.6392C320.995 54.9855 315.978 62.6366 314.273 72.3687C312.697 81.4604 314.402 89.8799 319.355 97.4031C324.759 105.566 332.381 110.528 342.095 112.225C344.282 112.609 346.469 112.801 348.592 112.801C355.314 112.801 361.586 110.881 367.311 107.135C375.449 101.789 380.466 94.1697 382.171 84.5017C382.525 82.4528 382.718 80.2119 382.718 77.6509C382.718 77.2347 382.718 76.8185 382.718 76.4023C382.718 75.506 382.653 74.6736 382.589 73.8093C382.589 65.6139 382.718 44.0369 382.718 38.9148L382.75 38.9468ZM348.27 99.1958H348.142C336.563 99.1958 327.492 90.104 327.46 78.5152C327.46 72.8489 329.583 67.5987 333.475 63.6931C337.335 59.8195 342.577 57.6746 348.174 57.6746H348.238C359.753 57.6746 368.823 66.7984 368.855 78.4192C368.855 90.008 359.849 99.1318 348.27 99.1958Z" fill="#333535"/>
<path d="M391.338 52.4884V109.856C391.338 111.489 392.656 112.834 394.329 112.834H402.273C403.914 112.834 405.265 111.521 405.265 109.856V48.1987C405.265 46.566 403.946 45.2214 402.273 45.2214H398.607C394.586 45.2214 391.338 48.4548 391.338 52.4564V52.4884Z" fill="#333535"/>
<path d="M391.338 28.2223V33.9207C391.338 35.5534 392.656 36.8979 394.329 36.8979H399.25C402.563 36.8979 405.265 34.2088 405.265 30.9114V25.2131C405.265 23.5804 403.946 22.2358 402.273 22.2358H397.352C394.04 22.2358 391.338 24.925 391.338 28.2223Z" fill="#6E68FA"/>
<path d="M453.864 99.2278C453.414 97.6272 451.741 96.6988 450.165 97.179L449.812 97.275C449.458 97.3711 449.072 97.4991 448.718 97.5952C447.978 97.8192 447.271 98.0433 446.595 98.2034C444.44 98.7476 442.478 99.0037 440.581 99.0037C439.358 99.0037 438.168 98.8757 437.01 98.6516C432.893 97.8513 430.513 95.4823 429.741 91.4166C429.484 90.072 429.355 88.5674 429.355 86.9347C429.355 78.0991 429.355 67.3746 429.355 56.5221H443.282C448.01 56.5221 451.838 52.7125 451.838 48.0066V45.4775C451.838 43.8449 450.519 42.5003 448.847 42.5003H429.355C429.355 41.2838 429.355 40.0993 429.355 38.8828V26.1735C429.355 24.5408 428.037 23.1963 426.364 23.1963H423.791C419.063 23.1963 415.235 27.0059 415.235 31.7118V41.2518C415.235 56.5221 415.235 74.0654 415.235 87.0948C415.235 91.5126 415.911 95.2902 417.358 98.6516C420.157 105.246 425.174 109.632 432.347 111.681C434.92 112.417 437.589 112.769 440.548 112.769C441.771 112.769 442.993 112.705 444.312 112.577C445.341 112.481 446.981 112.097 448.718 111.617C453.157 110.432 455.762 105.823 454.508 101.437L453.864 99.1638V99.2278Z" fill="#333535"/>
<path d="M763.666 39.0428V109.824C763.666 111.457 764.985 112.801 766.658 112.801H774.731C776.371 112.801 777.722 111.489 777.722 109.824V35.4573C777.722 33.8247 776.403 32.4801 774.731 32.4801H770.26C766.625 32.4801 763.666 35.4253 763.666 39.0428Z" fill="#333535"/>
<path d="M864.307 101.597L862.409 99.676L860.255 97.4991L850.187 87.4149L845.749 82.9651C842.918 80.1159 838.319 80.1159 835.456 82.9651L832.754 85.6542C831.596 86.8067 831.596 88.6955 832.754 89.8479L839.38 96.5067C829.827 100.828 816.287 99.8361 807.345 90.1361C802.456 84.8218 799.883 77.4908 800.237 69.9677C800.591 62.5086 803.839 55.5297 809.146 50.7597C814.646 45.8297 821.851 43.3326 829.409 43.7488C836.839 44.165 843.561 47.3343 848.354 52.7125C855.559 60.7799 856.717 71.1202 854.111 79.6677C853.79 80.7562 854.015 81.9086 854.819 82.709L856.942 84.8218C860.641 88.5354 866.977 86.7426 868.231 81.6845C869.164 77.907 869.55 73.9373 869.421 69.7756C869.003 58.1868 864.468 48.3907 856.009 40.6435C840.506 26.4616 815.933 26.2696 800.076 40.1953C792.55 46.7901 787.725 56.0419 786.471 66.1901C785.216 76.2743 787.596 86.3585 793.161 94.6499C799.015 103.358 807.12 109.024 817.219 111.489C820.918 112.385 824.553 112.833 828.123 112.833C835.649 112.833 842.854 110.817 849.673 106.751L852.31 109.408C853.661 110.785 855.526 111.553 857.456 111.553H867.138C869.775 111.553 871.126 108.352 869.26 106.495L864.404 101.629L864.307 101.597Z" fill="#333535"/>
<path d="M510.762 80.5641C509.186 77.2667 506.71 74.4496 503.204 71.9205C499.859 69.5195 496.288 67.8228 491.978 66.0301C491.078 65.6459 490.177 65.2938 489.309 64.9416C486.993 64.0132 484.613 63.0208 482.329 61.9964C480.271 61.068 478.502 59.9475 477.054 58.571C474.706 56.3941 473.902 53.9611 474.481 50.9198C474.932 48.5188 476.347 46.662 478.759 45.2214C481.107 43.8449 483.745 43.3967 486.929 43.8769C488.569 44.133 489.952 44.6132 491.078 45.3495C491.271 45.4775 491.528 45.7336 491.818 46.0858C494.326 49.063 498.701 49.7033 502.046 47.6544L505.037 45.8297H504.973C507.288 44.3891 506.098 41.4439 506.098 41.4439C504.619 38.8188 502.657 36.5778 500.18 34.7851C498.829 33.7927 497.35 32.9604 495.742 32.224C489.245 29.3108 482.233 29.0547 475.221 31.5198C470.204 33.2805 466.28 36.3538 463.578 40.7076C460.201 46.1178 459.332 52.1043 461.005 58.571C462.163 63.0528 464.768 66.8944 468.981 70.2558C471.876 72.5928 475.318 74.5776 479.821 76.4984C481.268 77.1067 482.78 77.7149 484.195 78.3232C485.996 79.0595 487.829 79.7958 489.631 80.5961C492.171 81.7166 494.166 82.9011 495.806 84.2776C498.604 86.6466 499.44 90.6483 497.446 93.7216C496.256 95.5463 494.519 96.9229 492.075 97.9153C489.277 99.0678 486.253 99.3879 483.005 98.9077C480.142 98.4915 477.859 97.3711 476.057 95.4823C475.157 94.5539 474.546 93.7536 473.902 92.6651C473.677 92.281 472.937 90.7123 472.294 89.2717C471.619 87.7671 469.818 87.1268 468.338 87.8311L465.443 89.1757C461.165 91.1605 459.493 96.3466 461.873 100.412C462.13 100.861 462.356 101.213 462.549 101.469C463.803 103.165 465.154 104.638 466.794 106.015C471.49 110.016 477.054 112.257 483.391 112.737C484.259 112.801 485.128 112.833 485.964 112.833C491.625 112.833 496.867 111.393 501.499 108.544C507.771 104.702 511.47 99.4199 512.499 92.7612C513.174 88.5034 512.563 84.4057 510.73 80.5961L510.762 80.5641Z" fill="#333535"/>
<path d="M687.213 54.4092V51.8481C687.213 47.7504 683.675 44.5491 679.59 44.9333C678.69 45.0293 677.95 45.0933 677.5 45.2214C675.538 45.6696 673.736 46.3739 672.032 47.3023C671.228 47.7504 670.456 48.2306 669.716 48.7749V48.3907C669.716 46.758 668.397 45.4135 666.725 45.4135H662.897C658.973 45.4135 655.789 48.5828 655.789 52.4884V109.888C655.789 111.521 657.108 112.865 658.78 112.865H662.672C666.596 112.865 669.78 109.696 669.78 105.791V100.06C669.78 91.4806 669.78 82.5809 669.78 73.8413C669.78 72.2086 669.909 70.6079 670.166 69.1033C671.067 63.565 674.476 60.0435 679.976 58.8911C680.812 58.699 681.745 58.635 682.742 58.5069C683.257 58.4429 683.771 58.4109 684.286 58.3468C687.535 57.9947 687.181 54.4412 687.181 54.4412L687.213 54.4092Z" fill="#333535"/>
<path d="M240.136 54.3772V51.8162C240.136 47.7185 236.597 44.5171 232.513 44.9013C231.612 44.9973 230.872 45.0614 230.422 45.1894C228.46 45.6376 226.659 46.3419 224.954 47.2703C224.15 47.7185 223.378 48.1987 222.638 48.7429V48.3587C222.638 46.726 221.32 45.3815 219.647 45.3815H215.82C211.896 45.3815 208.711 48.5508 208.711 52.4564V109.856C208.711 111.489 210.03 112.833 211.703 112.833H215.594C219.518 112.833 222.703 109.664 222.703 105.759V100.028C222.703 91.4486 222.703 82.5489 222.703 73.8093C222.703 72.1766 222.831 70.5759 223.089 69.0713C223.989 63.533 227.399 60.0116 232.899 58.8591C233.735 58.667 234.668 58.603 235.665 58.4749C236.179 58.4109 236.694 58.3789 237.209 58.3149C240.457 57.9627 240.103 54.4092 240.103 54.4092L240.136 54.3772Z" fill="#333535"/>
<path d="M259.08 76.9786C259.08 78.1951 259.144 79.5076 259.369 80.8842C259.595 82.3248 260.881 83.3492 262.328 83.3492H297.098C304.881 83.3492 310.639 76.0182 308.612 68.5591C308.258 67.2786 307.872 66.03 307.454 64.8135C307.229 64.1413 306.972 63.469 306.65 62.7967C306.136 61.5802 305.557 60.4597 304.913 59.4673C298.77 49.2871 287.641 42.7244 274.744 42.7244C255.027 42.7244 239.556 58.0907 239.524 77.7149C239.524 87.1588 243.127 95.9945 249.752 102.589C256.346 109.184 265.223 112.801 274.744 112.801C281.048 112.801 287.03 111.201 292.305 108.224C293.077 107.775 294.235 106.911 295.489 105.887C299.349 102.717 299.124 96.7628 295.039 93.9136L293.174 92.6011C291.758 91.7047 290.6 92.2489 289.957 92.7291C289.636 92.9852 289.41 93.2413 289.41 93.2413C285.486 96.9549 280.276 99.0037 274.744 99.0037H274.679C268.954 99.0037 263.647 96.8268 259.691 92.8252C258.565 91.7047 257.6 90.4562 256.796 89.1436C256.796 89.1436 256.764 89.0796 256.732 89.0476C255.638 87.2548 254.802 85.334 254.288 83.2852H254.384C251.264 72.1766 257.697 64.9096 257.697 64.9096C261.524 59.7234 267.668 56.4261 274.712 56.394H274.776C283.91 56.394 291.758 62.0604 294.75 70.2878H265.931C262.232 70.2878 259.144 73.201 259.08 76.8825V76.9786Z" fill="#333535"/>
<path d="M706.029 76.9786C706.029 78.1951 706.093 79.5076 706.318 80.8842C706.543 82.3248 707.83 83.3492 709.277 83.3492H744.047C751.83 83.3492 757.587 76.0182 755.561 68.5591C755.207 67.2786 754.821 66.03 754.403 64.8135C754.178 64.1413 753.921 63.469 753.599 62.7967C753.085 61.5802 752.506 60.4597 751.862 59.4673C745.719 49.2871 734.59 42.7244 721.693 42.7244C701.976 42.7244 686.505 58.0907 686.473 77.7149C686.473 87.1588 690.076 95.9945 696.701 102.589C703.295 109.184 712.172 112.801 721.693 112.801C727.997 112.801 733.979 111.201 739.254 108.224C740.026 107.775 741.184 106.911 742.438 105.887C746.298 102.717 746.073 96.7628 741.988 93.9136L740.123 92.6011C738.707 91.7047 737.549 92.2489 736.906 92.7291C736.585 92.9852 736.359 93.2413 736.359 93.2413C732.435 96.9549 727.225 99.0037 721.693 99.0037H721.628C715.903 99.0037 710.596 96.8268 706.64 92.8252C705.514 91.7047 704.549 90.4562 703.745 89.1436C703.745 89.1436 703.713 89.0796 703.681 89.0476C702.587 87.2548 701.751 85.334 701.236 83.2852H701.333C698.213 72.1766 704.646 64.9096 704.646 64.9096C708.473 59.7234 714.617 56.4261 721.66 56.394H721.725C730.859 56.394 738.707 62.0604 741.699 70.2878H712.88C709.181 70.2878 706.093 73.201 706.029 76.8825V76.9786Z" fill="#333535"/>
<path d="M203.308 95.5462L201.7 92.8891C199.609 89.4317 194.849 88.8235 191.954 91.6406C191.118 92.441 190.41 93.0812 189.992 93.4013C188.352 94.5858 186.55 95.6423 184.621 96.5066C178.735 99.1317 172.463 99.74 165.966 98.2674C157.603 96.3786 151.717 91.8647 147.922 84.4696C145.316 79.4115 144.416 73.9373 145.156 67.6627C145.863 61.6442 148.211 56.49 152.135 52.3603C157.217 47.0141 163.521 44.2289 171.433 43.9088C180.118 43.5567 187.676 46.5979 193.916 52.9686C194.045 53.1286 194.205 53.2567 194.334 53.4168L194.688 53.8009C196.071 55.3055 198.548 55.0174 199.513 53.2247L201.507 49.5431C203.244 46.4058 202.504 42.4682 199.802 40.1312C197.872 38.4666 195.814 36.7698 194.495 36.0015C187.708 31.9999 180.472 29.983 172.945 29.983C169.021 29.983 165.001 30.5273 160.916 31.6157C149.305 34.721 140.685 41.6679 135.281 52.2643C131.164 60.3316 129.846 69.2313 131.422 78.7393C132.805 87.0947 136.278 94.1697 141.778 99.772C150.237 108.384 160.337 112.769 171.852 112.769C175.454 112.769 179.217 112.321 183.077 111.489C190.7 109.792 196.521 106.815 202.182 100.828C202.182 100.828 204.82 98.2033 203.276 95.5142L203.308 95.5462Z" fill="#333535"/>
<path d="M10.6141 61.9004C10.6141 58.9871 8.23395 56.6182 5.30704 56.6182C2.38013 56.6182 0 58.9871 0 61.9004C0 64.8136 2.38013 67.1825 5.30704 67.1825C8.23395 67.1825 10.6141 64.8136 10.6141 61.9004Z" fill="url(#paint0_linear_76_697)"/>
<path d="M7.01177 76.6265C4.27784 77.6189 2.83047 80.6601 3.85971 83.3813C4.85679 86.1024 7.91236 87.543 10.6463 86.5186C13.3802 85.5262 14.8276 82.4849 13.7983 79.7638C12.8013 77.0426 9.7457 75.602 7.01177 76.6265Z" fill="url(#paint1_linear_76_697)"/>
<path d="M22.9971 28.3824C24.8626 26.1414 24.5732 22.8121 22.3538 20.9553C20.1024 19.0985 16.7573 19.3866 14.8918 21.5956C13.0263 23.8365 13.3158 27.1659 15.5351 29.0226C17.7866 30.8794 21.1316 30.5913 22.9971 28.3824Z" fill="url(#paint2_linear_76_697)"/>
<path d="M10.7106 37.3141C7.97663 36.3217 4.92107 37.7303 3.92399 40.4514C2.92691 43.1725 4.34212 46.2138 7.07605 47.2062C9.80997 48.1986 12.8655 46.79 13.8626 44.0689C14.8597 41.3478 13.4445 38.3065 10.7106 37.3141Z" fill="url(#paint3_linear_76_697)"/>
<path d="M95.7197 24.6369C93.0822 24.6369 90.5735 25.2452 88.322 26.2696C82.1465 22.0759 74.974 19.4508 67.3833 18.7145C67.0938 18.6504 66.8044 18.5864 66.4827 18.5544C58.6669 17.9782 50.7546 19.5148 43.6786 22.8762C43.3569 23.0363 43.0353 23.1643 42.7136 23.3244C42.0382 23.6445 41.3949 23.9967 40.7516 24.3808C40.3657 24.6049 39.9797 24.829 39.5938 25.0531C39.1113 25.3412 38.661 25.6613 38.2107 25.9495C32.3569 29.8551 27.4358 35.1053 23.9621 41.2198C23.7048 41.5399 23.4797 41.8921 23.2867 42.2762C20.1025 48.5508 18.4943 55.3056 18.4943 62.3806C18.4943 70.672 20.7779 78.7394 25.1522 85.7503C26.2458 87.543 28.1756 88.5034 30.1376 88.5034C31.199 88.5034 32.2604 88.2153 33.1931 87.6391C35.9271 85.9424 36.7955 82.3569 35.0908 79.6357C31.8744 74.4496 30.2019 68.4951 30.2019 62.3806C30.2019 57.5786 31.2311 52.9367 33.2253 48.6469C33.2896 48.5508 33.354 48.4548 33.4183 48.3588C36.1844 42.8525 40.5265 38.1785 45.8014 34.9772C46.0587 34.8171 46.2838 34.6891 46.5411 34.529C47.0558 34.2409 47.5704 33.9528 48.1172 33.6967C52.6201 31.4237 57.6055 30.1752 62.6552 30.1112C62.7839 30.1112 62.9125 30.1432 63.0412 30.1432C69.0237 30.1432 74.781 31.7439 79.7664 34.6891C78.6407 36.9941 77.9974 39.5871 77.9974 42.3403C77.9974 52.0723 85.9419 60.0116 95.7518 60.0116C105.562 60.0116 113.506 52.1043 113.506 42.3403C113.506 32.5762 105.562 24.6689 95.7518 24.6689L95.7197 24.6369ZM95.7197 48.999C92.1495 48.999 89.2547 46.2139 89.0296 42.7244C89.0296 42.5964 88.9974 42.4683 88.9974 42.3083C88.9974 38.5947 92.0208 35.6175 95.7197 35.6175C96.8776 35.6175 97.9711 35.9376 98.9361 36.4498C101.027 37.6023 102.442 39.7792 102.442 42.3083C102.442 46.0218 99.4185 48.999 95.7197 48.999Z" fill="url(#paint4_linear_76_697)"/>
<path d="M53.9066 10.487C56.8014 9.97479 58.699 7.25366 58.2166 4.37246C57.702 1.49127 54.968 -0.397517 52.0733 0.0826824C49.1785 0.594895 47.2809 3.31602 47.7633 6.19722C48.278 9.07841 51.0119 10.9672 53.9066 10.487Z" fill="url(#paint5_linear_76_697)"/>
<path d="M36.7633 16.6976C39.3042 15.257 40.1726 12.0236 38.6931 9.49458C37.2457 6.96553 33.9972 6.10117 31.4562 7.57379C28.9153 9.01438 28.0468 12.2477 29.5264 14.7768C30.9738 17.3058 34.2223 18.1702 36.7633 16.6976Z" fill="url(#paint6_linear_76_697)"/>
<path d="M89.3834 16.6976C91.9243 18.1382 95.1407 17.2738 96.6203 14.7768C98.0676 12.2477 97.1992 9.04642 94.6904 7.57381C92.1495 6.13321 88.9331 6.99757 87.4536 9.4946C86.0062 12.0237 86.8746 15.225 89.3834 16.6976Z" fill="url(#paint7_linear_76_697)"/>
<path d="M72.2722 10.487C75.1669 10.9992 77.9009 9.07841 78.4155 6.19722C78.9301 3.31602 77.0003 0.594893 74.1055 0.082681C71.2108 -0.429532 68.4768 1.49127 67.9622 4.37246C67.4476 7.25366 69.3774 9.97479 72.2722 10.487Z" fill="url(#paint8_linear_76_697)"/>
<path d="M69.8278 128.168H59.2781C58.3453 128.168 57.6699 129.064 57.895 129.993C58.6991 132.906 61.3687 135.019 64.5529 135.019C67.7371 135.019 70.4067 132.874 71.2108 129.993C71.4681 129.096 70.7927 128.168 69.8278 128.168Z" fill="#9A9A9A"/>
<path d="M58.9242 119.204C57.9593 119.204 57.1552 118.404 57.1552 117.443C57.1552 116.483 57.9593 115.683 58.9242 115.683H69.1202C70.0851 115.683 70.8892 116.483 70.8892 117.443C70.8892 118.404 70.0851 119.204 69.1202 119.204H58.9242ZM58.9242 109.6C57.9593 109.6 57.1552 108.8 57.1552 107.839C57.1552 107.103 57.6055 106.495 58.2166 106.207C58.4418 106.111 58.6669 106.047 58.9242 106.047H61.4008H61.3687H66.6435H66.6114H69.1202C69.3775 106.047 69.6026 106.111 69.8278 106.207C70.4711 106.463 70.8892 107.103 70.8892 107.839C70.8892 108.8 70.0851 109.6 69.1202 109.6H58.9242ZM63.0412 97.6272C62.0441 97.6272 61.047 97.5632 60.05 97.4991C60.05 90.9684 60.05 82.9971 60.05 76.9146V76.3063C60.9505 76.4024 61.7546 76.4664 62.5909 76.5945C63.4272 76.6905 64.2956 76.7545 65.1318 76.7545C66.2254 76.7545 67.2868 76.6585 68.3482 76.4024C68.5412 76.3383 68.702 76.3383 68.8307 76.3383C69.1523 76.3383 69.281 76.5304 69.2488 76.9786C69.2488 82.9331 69.2488 90.7443 69.2488 97.115C67.2225 97.4991 65.1318 97.6912 63.0412 97.6912M72.4009 72.3047L72.1436 72.1446C72.1436 71.2482 72.1436 70.3199 72.1436 69.4235C72.1757 67.3746 72.4974 65.3898 73.6553 63.6291C74.202 62.8287 75.0705 62.3165 76.0032 62.3165C76.2284 62.3165 76.4857 62.3165 76.7108 62.4126C78.2225 62.8287 79.0266 63.7251 79.0588 65.1337C79.1231 67.1825 78.1904 68.7512 76.6143 69.8717C75.2956 70.8 73.7839 71.5043 72.3687 72.3047M56.8657 72.2406C55.0646 71.3123 53.1669 70.672 51.7517 69.1994C50.7546 68.175 50.1435 66.9905 50.1113 65.5499C50.047 64.0452 51.0119 62.7327 52.5236 62.4126C52.8131 62.3485 53.0704 62.3165 53.3277 62.3165C54.6143 62.3165 55.5149 63.0849 56.1903 64.6855C57.1874 67.0225 57.123 69.5195 57.0587 71.9845L56.9301 72.2406M53.4564 59.3073C52.7166 59.3073 51.9125 59.4353 51.1406 59.7235C48.0528 60.8119 46.7985 63.6611 47.3452 66.6383C47.9242 69.7436 49.7254 71.8885 52.4271 73.2971C53.8102 74.0334 55.2575 74.6416 56.6406 75.3139L57.0909 75.9222V76.5624C57.0909 82.645 57.0909 90.6483 57.0909 97.147C52.3306 96.3146 47.7955 94.5539 43.7429 91.8648C43.0353 91.3846 42.1669 91.1605 41.3306 91.1605C39.8832 91.1605 38.468 91.8328 37.6961 93.0493C36.5382 94.9381 37.0528 97.4031 38.9183 98.6516C42.9066 101.341 47.2487 103.262 51.8482 104.51C51.3657 105.534 51.0441 106.655 51.0441 107.871C51.0441 109.696 51.6552 111.361 52.7166 112.673C51.6552 114.05 51.0119 115.779 51.0441 117.667C51.1406 121.989 54.9681 125.319 59.278 125.319H67.6728C73.0442 125.319 76.8395 121.989 76.9681 117.667C77.0003 115.779 76.3892 114.05 75.2956 112.673C76.3249 111.361 76.9681 109.696 76.9681 107.871C76.9681 106.463 76.5822 105.086 75.9389 103.934C91.2167 99.0678 103.15 85.9103 105.658 69.5515C106.012 67.1825 104.307 65.0056 101.895 64.7816C101.766 64.7816 101.67 64.7816 101.541 64.7816C99.4828 64.7816 97.6817 66.3822 97.36 68.4631C95.2372 82.0687 85.0413 92.9212 72.1114 96.4427C72.1114 93.4655 72.1114 89.7519 72.1114 87.447C72.1114 83.7014 72.1114 79.9558 72.1114 76.2423C72.1114 75.6981 72.2722 75.442 72.819 75.2179C75.0383 74.2895 77.3219 73.3931 79.091 71.6964C81.3746 69.5195 82.4682 66.8944 81.7927 63.7251C81.3103 61.5482 79.8307 60.2677 77.7722 59.6594C77.0646 59.4353 76.357 59.3393 75.7138 59.3393C72.8512 59.3393 70.7284 61.4202 69.6991 65.3898C69.3453 66.6703 69.2167 67.9829 69.2167 69.2954C69.2167 70.3839 69.2167 71.5043 69.2167 72.5928C69.2167 73.2331 68.9272 73.3291 68.1874 73.4251C67.1903 73.5852 66.1933 73.6492 65.1962 73.6492C64.6816 73.6492 64.1348 73.6492 63.6201 73.5852C60.4359 73.3931 60.0178 73.5212 60.0178 72.6248C59.9535 70.736 59.9535 68.8152 59.7605 66.9264C59.5353 64.8776 58.8599 62.9888 57.5733 61.3241C56.4476 59.9155 55.0002 59.2753 53.392 59.2753" fill="#9A9A9A"/>
<path d="M876.6 51.175C875.433 51.175 874.383 50.975 873.45 50.575C872.517 50.1584 871.783 49.575 871.25 48.825C870.717 48.075 870.45 47.2 870.45 46.2H873.5C873.567 46.95 873.858 47.5667 874.375 48.05C874.908 48.5334 875.65 48.775 876.6 48.775C877.583 48.775 878.35 48.5417 878.9 48.075C879.45 47.5917 879.725 46.975 879.725 46.225C879.725 45.6417 879.55 45.1667 879.2 44.8C878.867 44.4334 878.442 44.15 877.925 43.95C877.425 43.75 876.725 43.5334 875.825 43.3C874.692 43 873.767 42.7 873.05 42.4C872.35 42.0834 871.75 41.6 871.25 40.95C870.75 40.3 870.5 39.4334 870.5 38.35C870.5 37.35 870.75 36.475 871.25 35.725C871.75 34.975 872.45 34.4 873.35 34C874.25 33.6 875.292 33.4 876.475 33.4C878.158 33.4 879.533 33.825 880.6 34.675C881.683 35.5084 882.283 36.6584 882.4 38.125H879.25C879.2 37.4917 878.9 36.95 878.35 36.5C877.8 36.05 877.075 35.825 876.175 35.825C875.358 35.825 874.692 36.0334 874.175 36.45C873.658 36.8667 873.4 37.4667 873.4 38.25C873.4 38.7834 873.558 39.225 873.875 39.575C874.208 39.9084 874.625 40.175 875.125 40.375C875.625 40.575 876.308 40.7917 877.175 41.025C878.325 41.3417 879.258 41.6584 879.975 41.975C880.708 42.2917 881.325 42.7834 881.825 43.45C882.342 44.1 882.6 44.975 882.6 46.075C882.6 46.9584 882.358 47.7917 881.875 48.575C881.408 49.3584 880.717 49.9917 879.8 50.475C878.9 50.9417 877.833 51.175 876.6 51.175Z" fill="#333535"/>
<path d="M904.263 33.625V51H901.413V39.1L896.113 51H894.138L888.813 39.1V51H885.963V33.625H889.038L895.138 47.25L901.213 33.625H904.263Z" fill="#333535"/>
<defs>
<linearGradient id="paint0_linear_76_697" x1="5.11405" y1="62.1244" x2="74.0273" y2="-2.67296" gradientUnits="userSpaceOnUse">
<stop offset="0.04" stop-color="#0AE7FE"/>
<stop offset="0.45" stop-color="#1FA5FE"/>
<stop offset="1" stop-color="#A240F6"/>
</linearGradient>
<linearGradient id="paint1_linear_76_697" x1="16.5644" y1="74.3535" x2="85.5098" y2="9.55598" gradientUnits="userSpaceOnUse">
<stop offset="0.04" stop-color="#0AE7FE"/>
<stop offset="0.45" stop-color="#1FA5FE"/>
<stop offset="1" stop-color="#A240F6"/>
</linearGradient>
<linearGradient id="paint2_linear_76_697" x1="-7.04391" y1="49.191" x2="61.8693" y2="-15.6064" gradientUnits="userSpaceOnUse">
<stop offset="0.04" stop-color="#0AE7FE"/>
<stop offset="0.45" stop-color="#1FA5FE"/>
<stop offset="1" stop-color="#A240F6"/>
</linearGradient>
<linearGradient id="paint3_linear_76_697" x1="-3.08773" y1="53.4168" x2="65.8578" y2="-11.3488" gradientUnits="userSpaceOnUse">
<stop offset="0.04" stop-color="#0AE7FE"/>
<stop offset="0.45" stop-color="#1FA5FE"/>
<stop offset="1" stop-color="#A240F6"/>
</linearGradient>
<linearGradient id="paint4_linear_76_697" x1="25.7955" y1="84.1496" x2="94.7087" y2="19.3522" gradientUnits="userSpaceOnUse">
<stop offset="0.04" stop-color="#0AE7FE"/>
<stop offset="0.45" stop-color="#1FA5FE"/>
<stop offset="1" stop-color="#A240F6"/>
</linearGradient>
<linearGradient id="paint5_linear_76_697" x1="-1.02924" y1="55.5937" x2="67.884" y2="-9.2037" gradientUnits="userSpaceOnUse">
<stop offset="0.04" stop-color="#0AE7FE"/>
<stop offset="0.45" stop-color="#1FA5FE"/>
<stop offset="1" stop-color="#A240F6"/>
</linearGradient>
<linearGradient id="paint6_linear_76_697" x1="-6.43281" y1="49.8633" x2="62.5128" y2="-14.9022" gradientUnits="userSpaceOnUse">
<stop offset="0.04" stop-color="#0AE7FE"/>
<stop offset="0.45" stop-color="#1FA5FE"/>
<stop offset="1" stop-color="#A240F6"/>
</linearGradient>
<linearGradient id="paint7_linear_76_697" x1="20.6171" y1="78.6113" x2="89.5304" y2="13.8459" gradientUnits="userSpaceOnUse">
<stop offset="0.04" stop-color="#0AE7FE"/>
<stop offset="0.45" stop-color="#1FA5FE"/>
<stop offset="1" stop-color="#A240F6"/>
</linearGradient>
<linearGradient id="paint8_linear_76_697" x1="8.39476" y1="65.6139" x2="77.3081" y2="0.848486" gradientUnits="userSpaceOnUse">
<stop offset="0.04" stop-color="#0AE7FE"/>
<stop offset="0.45" stop-color="#1FA5FE"/>
<stop offset="1" stop-color="#A240F6"/>
</linearGradient>
</defs>
</svg>
