<?xml version="1.0" encoding="UTF-8"?> <svg xmlns="http://www.w3.org/2000/svg" width="24" height="25" viewBox="0 0 24 25" fill="none"><path d="M11.9997 14.6771C14.053 14.6771 15.7176 13.0125 15.7176 10.9592C15.7176 8.90578 14.053 7.2412 11.9997 7.2412C9.94631 7.2412 8.28173 8.90578 8.28173 10.9592C8.28173 13.0125 9.94631 14.6771 11.9997 14.6771ZM11.9997 14.6771C8.96583 14.6771 6.45993 16.9488 6.09557 19.8822M11.9997 14.6771C15.0335 14.6771 17.5357 16.9488 17.9038 19.8822M21.6663 12.4463C21.6663 17.7851 17.3384 22.113 11.9997 22.113C6.66092 22.113 2.33301 17.7851 2.33301 12.4463C2.33301 7.10758 6.66092 2.77966 11.9997 2.77966C17.3384 2.77966 21.6663 7.10758 21.6663 12.4463Z" stroke="#A240F6" stroke-width="1.7" stroke-linecap="round" stroke-linejoin="round"></path></svg> 