<?xml version="1.0" encoding="UTF-8"?> <svg xmlns="http://www.w3.org/2000/svg" width="46" height="46" viewBox="0 0 46 46" fill="none"><path d="M3.83203 16.4299V33.9537C3.83203 35.1156 4.28077 36.2299 5.07954 37.0515C5.87831 37.8731 6.96166 38.3346 8.09129 38.3346H37.9061C39.0357 38.3346 40.1191 37.8731 40.9179 37.0515C41.7166 36.2299 42.1654 35.1156 42.1654 33.9537V16.4299M3.83203 16.4299V12.0489C3.83203 10.887 4.28077 9.77271 5.07954 8.95112C5.87831 8.12953 6.96166 7.66797 8.09129 7.66797H37.9061C39.0357 7.66797 40.1191 8.12953 40.9179 8.95112C41.7166 9.77271 42.1654 10.887 42.1654 12.0489V16.4299M3.83203 16.4299H42.1654M12.3505 25.1918H22.9987" stroke="#C17FF9" stroke-width="3" stroke-linecap="round" stroke-linejoin="round"></path></svg> 