<?xml version="1.0" encoding="UTF-8"?> <svg xmlns="http://www.w3.org/2000/svg" width="367" height="170" viewBox="0 0 367 170" fill="none"><g filter="url(#filter0_d_413_1449)"><rect width="1170" height="1322" rx="15" fill="white"></rect><path d="M29.94 39.34H24.38L23.46 42H20.52L25.54 28.02H28.8L33.82 42H30.86L29.94 39.34ZM29.18 37.1L27.16 31.26L25.14 37.1H29.18ZM34.9764 36.46C34.9764 35.3133 35.2097 34.3133 35.6764 33.46C36.1431 32.5933 36.7897 31.9267 37.6164 31.46C38.4431 30.98 39.3897 30.74 40.4564 30.74C41.8297 30.74 42.9631 31.0867 43.8564 31.78C44.7631 32.46 45.3697 33.42 45.6764 34.66H42.6564C42.4964 34.18 42.2231 33.8067 41.8364 33.54C41.4631 33.26 40.9964 33.12 40.4364 33.12C39.6364 33.12 39.0031 33.4133 38.5364 34C38.0697 34.5733 37.8364 35.3933 37.8364 36.46C37.8364 37.5133 38.0697 38.3333 38.5364 38.92C39.0031 39.4933 39.6364 39.78 40.4364 39.78C41.5697 39.78 42.3097 39.2733 42.6564 38.26H45.6764C45.3697 39.46 44.7631 40.4133 43.8564 41.12C42.9497 41.8267 41.8164 42.18 40.4564 42.18C39.3897 42.18 38.4431 41.9467 37.6164 41.48C36.7897 41 36.1431 40.3333 35.6764 39.48C35.2097 38.6133 34.9764 37.6067 34.9764 36.46ZM47.0077 36.46C47.0077 35.3133 47.241 34.3133 47.7077 33.46C48.1743 32.5933 48.821 31.9267 49.6477 31.46C50.4743 30.98 51.421 30.74 52.4877 30.74C53.861 30.74 54.9943 31.0867 55.8877 31.78C56.7943 32.46 57.401 33.42 57.7077 34.66H54.6877C54.5277 34.18 54.2543 33.8067 53.8677 33.54C53.4943 33.26 53.0277 33.12 52.4677 33.12C51.6677 33.12 51.0343 33.4133 50.5677 34C50.101 34.5733 49.8677 35.3933 49.8677 36.46C49.8677 37.5133 50.101 38.3333 50.5677 38.92C51.0343 39.4933 51.6677 39.78 52.4677 39.78C53.601 39.78 54.341 39.2733 54.6877 38.26H57.7077C57.401 39.46 56.7943 40.4133 55.8877 41.12C54.981 41.8267 53.8477 42.18 52.4877 42.18C51.421 42.18 50.4743 41.9467 49.6477 41.48C48.821 41 48.1743 40.3333 47.7077 39.48C47.241 38.6133 47.0077 37.6067 47.0077 36.46ZM64.6789 42.18C63.6122 42.18 62.6522 41.9467 61.7989 41.48C60.9456 41 60.2722 40.3267 59.7789 39.46C59.2989 38.5933 59.0589 37.5933 59.0589 36.46C59.0589 35.3267 59.3056 34.3267 59.7989 33.46C60.3056 32.5933 60.9922 31.9267 61.8589 31.46C62.7256 30.98 63.6922 30.74 64.7589 30.74C65.8256 30.74 66.7922 30.98 67.6589 31.46C68.5256 31.9267 69.2056 32.5933 69.6989 33.46C70.2056 34.3267 70.4589 35.3267 70.4589 36.46C70.4589 37.5933 70.1989 38.5933 69.6789 39.46C69.1722 40.3267 68.4789 41 67.5989 41.48C66.7322 41.9467 65.7589 42.18 64.6789 42.18ZM64.6789 39.74C65.1856 39.74 65.6589 39.62 66.0989 39.38C66.5522 39.1267 66.9122 38.7533 67.1789 38.26C67.4456 37.7667 67.5789 37.1667 67.5789 36.46C67.5789 35.4067 67.2989 34.6 66.7389 34.04C66.1922 33.4667 65.5189 33.18 64.7189 33.18C63.9189 33.18 63.2456 33.4667 62.6989 34.04C62.1656 34.6 61.8989 35.4067 61.8989 36.46C61.8989 37.5133 62.1589 38.3267 62.6789 38.9C63.2122 39.46 63.8789 39.74 64.6789 39.74ZM82.9728 30.92V42H80.1528V40.6C79.7928 41.08 79.3195 41.46 78.7328 41.74C78.1595 42.0067 77.5328 42.14 76.8528 42.14C75.9861 42.14 75.2195 41.96 74.5528 41.6C73.8861 41.2267 73.3595 40.6867 72.9728 39.98C72.5995 39.26 72.4128 38.4067 72.4128 37.42V30.92H75.2128V37.02C75.2128 37.9 75.4328 38.58 75.8728 39.06C76.3128 39.5267 76.9128 39.76 77.6728 39.76C78.4461 39.76 79.0528 39.5267 79.4928 39.06C79.9328 38.58 80.1528 37.9 80.1528 37.02V30.92H82.9728ZM91.8755 30.76C93.1955 30.76 94.2621 31.18 95.0755 32.02C95.8888 32.8467 96.2955 34.0067 96.2955 35.5V42H93.4955V35.88C93.4955 35 93.2755 34.3267 92.8355 33.86C92.3955 33.38 91.7955 33.14 91.0355 33.14C90.2621 33.14 89.6488 33.38 89.1955 33.86C88.7555 34.3267 88.5355 35 88.5355 35.88V42H85.7355V30.92H88.5355V32.3C88.9088 31.82 89.3821 31.4467 89.9555 31.18C90.5421 30.9 91.1821 30.76 91.8755 30.76ZM102.218 33.22V38.58C102.218 38.9533 102.305 39.2267 102.478 39.4C102.665 39.56 102.971 39.64 103.398 39.64H104.698V42H102.938C100.578 42 99.3981 40.8533 99.3981 38.56V33.22H98.0781V30.92H99.3981V28.18H102.218V30.92H104.698V33.22H102.218ZM110.952 42.18C110.045 42.18 109.232 42.02 108.512 41.7C107.792 41.3667 107.219 40.92 106.792 40.36C106.379 39.8 106.152 39.18 106.112 38.5H108.932C108.985 38.9267 109.192 39.28 109.552 39.56C109.925 39.84 110.385 39.98 110.932 39.98C111.465 39.98 111.879 39.8733 112.172 39.66C112.479 39.4467 112.632 39.1733 112.632 38.84C112.632 38.48 112.445 38.2133 112.072 38.04C111.712 37.8533 111.132 37.6533 110.332 37.44C109.505 37.24 108.825 37.0333 108.292 36.82C107.772 36.6067 107.319 36.28 106.932 35.84C106.559 35.4 106.372 34.8067 106.372 34.06C106.372 33.4467 106.545 32.8867 106.892 32.38C107.252 31.8733 107.759 31.4733 108.412 31.18C109.079 30.8867 109.859 30.74 110.752 30.74C112.072 30.74 113.125 31.0733 113.912 31.74C114.699 32.3933 115.132 33.28 115.212 34.4H112.532C112.492 33.96 112.305 33.6133 111.972 33.36C111.652 33.0933 111.219 32.96 110.672 32.96C110.165 32.96 109.772 33.0533 109.492 33.24C109.225 33.4267 109.092 33.6867 109.092 34.02C109.092 34.3933 109.279 34.68 109.652 34.88C110.025 35.0667 110.605 35.26 111.392 35.46C112.192 35.66 112.852 35.8667 113.372 36.08C113.892 36.2933 114.339 36.6267 114.712 37.08C115.099 37.52 115.299 38.1067 115.312 38.84C115.312 39.48 115.132 40.0533 114.772 40.56C114.425 41.0667 113.919 41.4667 113.252 41.76C112.599 42.04 111.832 42.18 110.952 42.18Z" fill="#353535"></path><path d="M147.902 24.5C149.057 22.5 151.943 22.5 153.098 24.5L159.593 35.75C160.748 37.75 159.305 40.25 156.995 40.25H144.005C141.695 40.25 140.252 37.75 141.407 35.75L147.902 24.5Z" fill="#FE3B36"></path><path d="M151.303 28.27L151.121 35.06H149.791L149.609 28.27H151.303ZM150.505 38.098C150.216 38.098 149.973 38 149.777 37.804C149.581 37.608 149.483 37.3653 149.483 37.076C149.483 36.7867 149.581 36.544 149.777 36.348C149.973 36.152 150.216 36.054 150.505 36.054C150.785 36.054 151.023 36.152 151.219 36.348C151.415 36.544 151.513 36.7867 151.513 37.076C151.513 37.3653 151.415 37.608 151.219 37.804C151.023 38 150.785 38.098 150.505 38.098Z" fill="white"></path><path d="M169.56 35.746V34.78L174.474 27.976H176V34.64H177.4V35.746H176V38H174.74V35.746H169.56ZM174.796 29.306L171.03 34.64H174.796V29.306ZM190.287 38H189.013L183.889 30.23V38H182.615V28.228H183.889L189.013 35.984V28.228H190.287V38ZM199.459 33.87C199.459 34.1127 199.445 34.3693 199.417 34.64H193.285C193.332 35.396 193.588 35.9887 194.055 36.418C194.531 36.838 195.105 37.048 195.777 37.048C196.328 37.048 196.785 36.922 197.149 36.67C197.522 36.4087 197.784 36.0633 197.933 35.634H199.305C199.1 36.3713 198.689 36.9733 198.073 37.44C197.457 37.8973 196.692 38.126 195.777 38.126C195.049 38.126 194.396 37.9627 193.817 37.636C193.248 37.3093 192.8 36.8473 192.473 36.25C192.146 35.6433 191.983 34.9433 191.983 34.15C191.983 33.3567 192.142 32.6613 192.459 32.064C192.776 31.4667 193.22 31.0093 193.789 30.692C194.368 30.3653 195.03 30.202 195.777 30.202C196.505 30.202 197.149 30.3607 197.709 30.678C198.269 30.9953 198.698 31.434 198.997 31.994C199.305 32.5447 199.459 33.17 199.459 33.87ZM198.143 33.604C198.143 33.1187 198.036 32.7033 197.821 32.358C197.606 32.0033 197.312 31.7373 196.939 31.56C196.575 31.3733 196.169 31.28 195.721 31.28C195.077 31.28 194.526 31.4853 194.069 31.896C193.621 32.3067 193.364 32.876 193.299 33.604H198.143ZM208.141 33.87C208.141 34.1127 208.127 34.3693 208.099 34.64H201.967C202.013 35.396 202.27 35.9887 202.737 36.418C203.213 36.838 203.787 37.048 204.459 37.048C205.009 37.048 205.467 36.922 205.831 36.67C206.204 36.4087 206.465 36.0633 206.615 35.634H207.987C207.781 36.3713 207.371 36.9733 206.755 37.44C206.139 37.8973 205.373 38.126 204.459 38.126C203.731 38.126 203.077 37.9627 202.499 37.636C201.929 37.3093 201.481 36.8473 201.155 36.25C200.828 35.6433 200.665 34.9433 200.665 34.15C200.665 33.3567 200.823 32.6613 201.141 32.064C201.458 31.4667 201.901 31.0093 202.471 30.692C203.049 30.3653 203.712 30.202 204.459 30.202C205.187 30.202 205.831 30.3607 206.391 30.678C206.951 30.9953 207.38 31.434 207.679 31.994C207.987 32.5447 208.141 33.17 208.141 33.87ZM206.825 33.604C206.825 33.1187 206.717 32.7033 206.503 32.358C206.288 32.0033 205.994 31.7373 205.621 31.56C205.257 31.3733 204.851 31.28 204.403 31.28C203.759 31.28 203.208 31.4853 202.751 31.896C202.303 32.3067 202.046 32.876 201.981 33.604H206.825ZM209.346 34.136C209.346 33.352 209.505 32.666 209.822 32.078C210.139 31.4807 210.573 31.0187 211.124 30.692C211.684 30.3653 212.309 30.202 213 30.202C213.597 30.202 214.153 30.342 214.666 30.622C215.179 30.8927 215.571 31.252 215.842 31.7V27.64H217.13V38H215.842V36.558C215.59 37.0153 215.217 37.3933 214.722 37.692C214.227 37.9813 213.649 38.126 212.986 38.126C212.305 38.126 211.684 37.958 211.124 37.622C210.573 37.286 210.139 36.8147 209.822 36.208C209.505 35.6013 209.346 34.9107 209.346 34.136ZM215.842 34.15C215.842 33.5713 215.725 33.0673 215.492 32.638C215.259 32.2087 214.941 31.882 214.54 31.658C214.148 31.4247 213.714 31.308 213.238 31.308C212.762 31.308 212.328 31.42 211.936 31.644C211.544 31.868 211.231 32.1947 210.998 32.624C210.765 33.0533 210.648 33.5573 210.648 34.136C210.648 34.724 210.765 35.2373 210.998 35.676C211.231 36.1053 211.544 36.4367 211.936 36.67C212.328 36.894 212.762 37.006 213.238 37.006C213.714 37.006 214.148 36.894 214.54 36.67C214.941 36.4367 215.259 36.1053 215.492 35.676C215.725 35.2373 215.842 34.7287 215.842 34.15ZM228.154 38L225.83 34.01H224.29V38H223.016V28.242H226.166C226.903 28.242 227.524 28.368 228.028 28.62C228.541 28.872 228.924 29.2127 229.176 29.642C229.428 30.0713 229.554 30.5613 229.554 31.112C229.554 31.784 229.358 32.3767 228.966 32.89C228.583 33.4033 228.004 33.744 227.23 33.912L229.68 38H228.154ZM224.29 32.988H226.166C226.856 32.988 227.374 32.82 227.72 32.484C228.065 32.1387 228.238 31.6813 228.238 31.112C228.238 30.5333 228.065 30.0853 227.72 29.768C227.384 29.4507 226.866 29.292 226.166 29.292H224.29V32.988ZM238.533 33.87C238.533 34.1127 238.519 34.3693 238.491 34.64H232.359C232.406 35.396 232.662 35.9887 233.129 36.418C233.605 36.838 234.179 37.048 234.851 37.048C235.402 37.048 235.859 36.922 236.223 36.67C236.596 36.4087 236.858 36.0633 237.007 35.634H238.379C238.174 36.3713 237.763 36.9733 237.147 37.44C236.531 37.8973 235.766 38.126 234.851 38.126C234.123 38.126 233.47 37.9627 232.891 37.636C232.322 37.3093 231.874 36.8473 231.547 36.25C231.22 35.6433 231.057 34.9433 231.057 34.15C231.057 33.3567 231.216 32.6613 231.533 32.064C231.85 31.4667 232.294 31.0093 232.863 30.692C233.442 30.3653 234.104 30.202 234.851 30.202C235.579 30.202 236.223 30.3607 236.783 30.678C237.343 30.9953 237.772 31.434 238.071 31.994C238.379 32.5447 238.533 33.17 238.533 33.87ZM237.217 33.604C237.217 33.1187 237.11 32.7033 236.895 32.358C236.68 32.0033 236.386 31.7373 236.013 31.56C235.649 31.3733 235.243 31.28 234.795 31.28C234.151 31.28 233.6 31.4853 233.143 31.896C232.695 32.3067 232.438 32.876 232.373 33.604H237.217ZM243.071 36.824L245.451 30.328H246.809L243.799 38H242.315L239.305 30.328H240.677L243.071 36.824ZM248.72 29.082C248.478 29.082 248.272 28.998 248.104 28.83C247.936 28.662 247.852 28.4567 247.852 28.214C247.852 27.9713 247.936 27.766 248.104 27.598C248.272 27.43 248.478 27.346 248.72 27.346C248.954 27.346 249.15 27.43 249.308 27.598C249.476 27.766 249.56 27.9713 249.56 28.214C249.56 28.4567 249.476 28.662 249.308 28.83C249.15 28.998 248.954 29.082 248.72 29.082ZM249.336 30.328V38H248.062V30.328H249.336ZM258.508 33.87C258.508 34.1127 258.494 34.3693 258.466 34.64H252.334C252.38 35.396 252.637 35.9887 253.104 36.418C253.58 36.838 254.154 37.048 254.826 37.048C255.376 37.048 255.834 36.922 256.198 36.67C256.571 36.4087 256.832 36.0633 256.982 35.634H258.354C258.148 36.3713 257.738 36.9733 257.122 37.44C256.506 37.8973 255.74 38.126 254.826 38.126C254.098 38.126 253.444 37.9627 252.866 37.636C252.296 37.3093 251.848 36.8473 251.522 36.25C251.195 35.6433 251.032 34.9433 251.032 34.15C251.032 33.3567 251.19 32.6613 251.508 32.064C251.825 31.4667 252.268 31.0093 252.838 30.692C253.416 30.3653 254.079 30.202 254.826 30.202C255.554 30.202 256.198 30.3607 256.758 30.678C257.318 30.9953 257.747 31.434 258.046 31.994C258.354 32.5447 258.508 33.17 258.508 33.87ZM257.192 33.604C257.192 33.1187 257.084 32.7033 256.87 32.358C256.655 32.0033 256.361 31.7373 255.988 31.56C255.624 31.3733 255.218 31.28 254.77 31.28C254.126 31.28 253.575 31.4853 253.118 31.896C252.67 32.3067 252.413 32.876 252.348 33.604H257.192ZM270.409 30.328L268.015 38H266.699L264.851 31.91L263.003 38H261.687L259.279 30.328H260.581L262.345 36.768L264.249 30.328H265.551L267.413 36.782L269.149 30.328H270.409Z" fill="#FE3B36"></path><path d="M27.084 67.242V68.278H24.424V77H23.15V68.278H20.476V67.242H27.084ZM32.4602 69.188C33.0389 69.188 33.5616 69.314 34.0282 69.566C34.4949 69.8087 34.8589 70.1773 35.1202 70.672C35.3909 71.1667 35.5262 71.7687 35.5262 72.478V77H34.2662V72.66C34.2662 71.8947 34.0749 71.3113 33.6922 70.91C33.3096 70.4993 32.7869 70.294 32.1242 70.294C31.4522 70.294 30.9156 70.504 30.5142 70.924C30.1222 71.344 29.9262 71.9553 29.9262 72.758V77H28.6522V66.64H29.9262V70.42C30.1782 70.028 30.5236 69.7247 30.9622 69.51C31.4102 69.2953 31.9096 69.188 32.4602 69.188ZM44.6073 72.87C44.6073 73.1127 44.5933 73.3693 44.5653 73.64H38.4333C38.48 74.396 38.7366 74.9887 39.2033 75.418C39.6793 75.838 40.2533 76.048 40.9253 76.048C41.476 76.048 41.9333 75.922 42.2973 75.67C42.6706 75.4087 42.932 75.0633 43.0813 74.634H44.4533C44.248 75.3713 43.8373 75.9733 43.2213 76.44C42.6053 76.8973 41.84 77.126 40.9253 77.126C40.1973 77.126 39.544 76.9627 38.9653 76.636C38.396 76.3093 37.948 75.8473 37.6213 75.25C37.2946 74.6433 37.1313 73.9433 37.1313 73.15C37.1313 72.3567 37.29 71.6613 37.6073 71.064C37.9246 70.4667 38.368 70.0093 38.9373 69.692C39.516 69.3653 40.1786 69.202 40.9253 69.202C41.6533 69.202 42.2973 69.3607 42.8573 69.678C43.4173 69.9953 43.8466 70.434 44.1453 70.994C44.4533 71.5447 44.6073 72.17 44.6073 72.87ZM43.2913 72.604C43.2913 72.1187 43.184 71.7033 42.9693 71.358C42.7546 71.0033 42.4606 70.7373 42.0873 70.56C41.7233 70.3733 41.3173 70.28 40.8693 70.28C40.2253 70.28 39.6746 70.4853 39.2173 70.896C38.7693 71.3067 38.5126 71.876 38.4473 72.604H43.2913ZM49.0049 77.126C48.4169 77.126 47.8896 77.028 47.4229 76.832C46.9563 76.6267 46.5876 76.3467 46.3169 75.992C46.0463 75.628 45.8969 75.2127 45.8689 74.746H47.1849C47.2223 75.1287 47.3996 75.4413 47.7169 75.684C48.0436 75.9267 48.4683 76.048 48.9909 76.048C49.4763 76.048 49.8589 75.9407 50.1389 75.726C50.4189 75.5113 50.5589 75.2407 50.5589 74.914C50.5589 74.578 50.4096 74.3307 50.1109 74.172C49.8123 74.004 49.3503 73.8407 48.7249 73.682C48.1556 73.5327 47.6889 73.3833 47.3249 73.234C46.9703 73.0753 46.6623 72.8467 46.4009 72.548C46.1489 72.24 46.0229 71.8387 46.0229 71.344C46.0229 70.952 46.1396 70.5927 46.3729 70.266C46.6063 69.9393 46.9376 69.6827 47.3669 69.496C47.7963 69.3 48.2863 69.202 48.8369 69.202C49.6863 69.202 50.3723 69.4167 50.8949 69.846C51.4176 70.2753 51.6976 70.8633 51.7349 71.61H50.4609C50.4329 71.2087 50.2696 70.8867 49.9709 70.644C49.6816 70.4013 49.2896 70.28 48.7949 70.28C48.3376 70.28 47.9736 70.378 47.7029 70.574C47.4323 70.77 47.2969 71.0267 47.2969 71.344C47.2969 71.596 47.3763 71.806 47.5349 71.974C47.7029 72.1327 47.9083 72.2633 48.1509 72.366C48.4029 72.4593 48.7483 72.5667 49.1869 72.688C49.7376 72.8373 50.1856 72.9867 50.5309 73.136C50.8763 73.276 51.1703 73.4907 51.4129 73.78C51.6649 74.0693 51.7956 74.4473 51.8049 74.914C51.8049 75.334 51.6883 75.712 51.4549 76.048C51.2216 76.384 50.8903 76.65 50.4609 76.846C50.0409 77.0327 49.5556 77.126 49.0049 77.126ZM60.6034 72.87C60.6034 73.1127 60.5894 73.3693 60.5614 73.64H54.4294C54.4761 74.396 54.7327 74.9887 55.1994 75.418C55.6754 75.838 56.2494 76.048 56.9214 76.048C57.4721 76.048 57.9294 75.922 58.2934 75.67C58.6667 75.4087 58.9281 75.0633 59.0774 74.634H60.4494C60.2441 75.3713 59.8334 75.9733 59.2174 76.44C58.6014 76.8973 57.8361 77.126 56.9214 77.126C56.1934 77.126 55.5401 76.9627 54.9614 76.636C54.3921 76.3093 53.9441 75.8473 53.6174 75.25C53.2907 74.6433 53.1274 73.9433 53.1274 73.15C53.1274 72.3567 53.2861 71.6613 53.6034 71.064C53.9207 70.4667 54.3641 70.0093 54.9334 69.692C55.5121 69.3653 56.1747 69.202 56.9214 69.202C57.6494 69.202 58.2934 69.3607 58.8534 69.678C59.4134 69.9953 59.8427 70.434 60.1414 70.994C60.4494 71.5447 60.6034 72.17 60.6034 72.87ZM59.2874 72.604C59.2874 72.1187 59.1801 71.7033 58.9654 71.358C58.7507 71.0033 58.4567 70.7373 58.0834 70.56C57.7194 70.3733 57.3134 70.28 56.8654 70.28C56.2214 70.28 55.6707 70.4853 55.2134 70.896C54.7654 71.3067 54.5087 71.876 54.4434 72.604H59.2874ZM65.5415 73.136C65.5415 72.352 65.7001 71.666 66.0175 71.078C66.3348 70.4807 66.7688 70.0187 67.3195 69.692C67.8795 69.3653 68.5001 69.202 69.1815 69.202C69.8535 69.202 70.4368 69.3467 70.9315 69.636C71.4261 69.9253 71.7948 70.2893 72.0375 70.728V69.328H73.3255V77H72.0375V75.572C71.7855 76.02 71.4075 76.3933 70.9035 76.692C70.4088 76.9813 69.8301 77.126 69.1675 77.126C68.4861 77.126 67.8701 76.958 67.3195 76.622C66.7688 76.286 66.3348 75.8147 66.0175 75.208C65.7001 74.6013 65.5415 73.9107 65.5415 73.136ZM72.0375 73.15C72.0375 72.5713 71.9208 72.0673 71.6875 71.638C71.4541 71.2087 71.1368 70.882 70.7355 70.658C70.3435 70.4247 69.9095 70.308 69.4335 70.308C68.9575 70.308 68.5235 70.42 68.1315 70.644C67.7395 70.868 67.4268 71.1947 67.1935 71.624C66.9601 72.0533 66.8435 72.5573 66.8435 73.136C66.8435 73.724 66.9601 74.2373 67.1935 74.676C67.4268 75.1053 67.7395 75.4367 68.1315 75.67C68.5235 75.894 68.9575 76.006 69.4335 76.006C69.9095 76.006 70.3435 75.894 70.7355 75.67C71.1368 75.4367 71.4541 75.1053 71.6875 74.676C71.9208 74.2373 72.0375 73.7287 72.0375 73.15ZM76.7524 70.574C76.9764 70.1353 77.2937 69.7947 77.7044 69.552C78.1244 69.3093 78.6331 69.188 79.2304 69.188V70.504H78.8944C77.4664 70.504 76.7524 71.2787 76.7524 72.828V77H75.4784V69.328H76.7524V70.574ZM87.701 72.87C87.701 73.1127 87.687 73.3693 87.659 73.64H81.527C81.5737 74.396 81.8304 74.9887 82.297 75.418C82.773 75.838 83.347 76.048 84.019 76.048C84.5697 76.048 85.027 75.922 85.391 75.67C85.7644 75.4087 86.0257 75.0633 86.175 74.634H87.547C87.3417 75.3713 86.931 75.9733 86.315 76.44C85.699 76.8973 84.9337 77.126 84.019 77.126C83.291 77.126 82.6377 76.9627 82.059 76.636C81.4897 76.3093 81.0417 75.8473 80.715 75.25C80.3884 74.6433 80.225 73.9433 80.225 73.15C80.225 72.3567 80.3837 71.6613 80.701 71.064C81.0184 70.4667 81.4617 70.0093 82.031 69.692C82.6097 69.3653 83.2724 69.202 84.019 69.202C84.747 69.202 85.391 69.3607 85.951 69.678C86.511 69.9953 86.9404 70.434 87.239 70.994C87.547 71.5447 87.701 72.17 87.701 72.87ZM86.385 72.604C86.385 72.1187 86.2777 71.7033 86.063 71.358C85.8484 71.0033 85.5544 70.7373 85.181 70.56C84.817 70.3733 84.411 70.28 83.963 70.28C83.319 70.28 82.7684 70.4853 82.311 70.896C81.863 71.3067 81.6064 71.876 81.541 72.604H86.385ZM94.6691 70.378V74.9C94.6691 75.2733 94.7484 75.5393 94.9071 75.698C95.0658 75.8473 95.3411 75.922 95.7331 75.922H96.6711V77H95.5231C94.8138 77 94.2818 76.8367 93.9271 76.51C93.5724 76.1833 93.3951 75.6467 93.3951 74.9V70.378H92.4011V69.328H93.3951V67.396H94.6691V69.328H96.6711V70.378H94.6691ZM102.023 69.188C102.601 69.188 103.124 69.314 103.591 69.566C104.057 69.8087 104.421 70.1773 104.683 70.672C104.953 71.1667 105.089 71.7687 105.089 72.478V77H103.829V72.66C103.829 71.8947 103.637 71.3113 103.255 70.91C102.872 70.4993 102.349 70.294 101.687 70.294C101.015 70.294 100.478 70.504 100.077 70.924C99.6847 71.344 99.4887 71.9553 99.4887 72.758V77H98.2147V66.64H99.4887V70.42C99.7407 70.028 100.086 69.7247 100.525 69.51C100.973 69.2953 101.472 69.188 102.023 69.188ZM114.17 72.87C114.17 73.1127 114.156 73.3693 114.128 73.64H107.996C108.042 74.396 108.299 74.9887 108.766 75.418C109.242 75.838 109.816 76.048 110.488 76.048C111.038 76.048 111.496 75.922 111.86 75.67C112.233 75.4087 112.494 75.0633 112.644 74.634H114.016C113.81 75.3713 113.4 75.9733 112.784 76.44C112.168 76.8973 111.402 77.126 110.488 77.126C109.76 77.126 109.106 76.9627 108.528 76.636C107.958 76.3093 107.51 75.8473 107.184 75.25C106.857 74.6433 106.694 73.9433 106.694 73.15C106.694 72.3567 106.852 71.6613 107.17 71.064C107.487 70.4667 107.93 70.0093 108.5 69.692C109.078 69.3653 109.741 69.202 110.488 69.202C111.216 69.202 111.86 69.3607 112.42 69.678C112.98 69.9953 113.409 70.434 113.708 70.994C114.016 71.5447 114.17 72.17 114.17 72.87ZM112.854 72.604C112.854 72.1187 112.746 71.7033 112.532 71.358C112.317 71.0033 112.023 70.7373 111.65 70.56C111.286 70.3733 110.88 70.28 110.432 70.28C109.788 70.28 109.237 70.4853 108.78 70.896C108.332 71.3067 108.075 71.876 108.01 72.604H112.854ZM119.108 73.136C119.108 72.352 119.267 71.666 119.584 71.078C119.901 70.4807 120.335 70.0187 120.886 69.692C121.446 69.3653 122.067 69.202 122.748 69.202C123.42 69.202 124.003 69.3467 124.498 69.636C124.993 69.9253 125.361 70.2893 125.604 70.728V69.328H126.892V77H125.604V75.572C125.352 76.02 124.974 76.3933 124.47 76.692C123.975 76.9813 123.397 77.126 122.734 77.126C122.053 77.126 121.437 76.958 120.886 76.622C120.335 76.286 119.901 75.8147 119.584 75.208C119.267 74.6013 119.108 73.9107 119.108 73.136ZM125.604 73.15C125.604 72.5713 125.487 72.0673 125.254 71.638C125.021 71.2087 124.703 70.882 124.302 70.658C123.91 70.4247 123.476 70.308 123 70.308C122.524 70.308 122.09 70.42 121.698 70.644C121.306 70.868 120.993 71.1947 120.76 71.624C120.527 72.0533 120.41 72.5573 120.41 73.136C120.41 73.724 120.527 74.2373 120.76 74.676C120.993 75.1053 121.306 75.4367 121.698 75.67C122.09 75.894 122.524 76.006 123 76.006C123.476 76.006 123.91 75.894 124.302 75.67C124.703 75.4367 125.021 75.1053 125.254 74.676C125.487 74.2373 125.604 73.7287 125.604 73.15ZM128.569 73.15C128.569 72.3567 128.727 71.666 129.045 71.078C129.362 70.4807 129.801 70.0187 130.361 69.692C130.93 69.3653 131.579 69.202 132.307 69.202C133.249 69.202 134.024 69.4307 134.631 69.888C135.247 70.3453 135.653 70.98 135.849 71.792H134.477C134.346 71.3253 134.089 70.9567 133.707 70.686C133.333 70.4153 132.867 70.28 132.307 70.28C131.579 70.28 130.991 70.532 130.543 71.036C130.095 71.5307 129.871 72.2353 129.871 73.15C129.871 74.074 130.095 74.788 130.543 75.292C130.991 75.796 131.579 76.048 132.307 76.048C132.867 76.048 133.333 75.9173 133.707 75.656C134.08 75.3947 134.337 75.0213 134.477 74.536H135.849C135.643 75.32 135.233 75.95 134.617 76.426C134.001 76.8927 133.231 77.126 132.307 77.126C131.579 77.126 130.93 76.9627 130.361 76.636C129.801 76.3093 129.362 75.8473 129.045 75.25C128.727 74.6527 128.569 73.9527 128.569 73.15ZM139.103 70.378V74.9C139.103 75.2733 139.182 75.5393 139.341 75.698C139.499 75.8473 139.775 75.922 140.167 75.922H141.105V77H139.957C139.247 77 138.715 76.8367 138.361 76.51C138.006 76.1833 137.829 75.6467 137.829 74.9V70.378H136.835V69.328H137.829V67.396H139.103V69.328H141.105V70.378H139.103ZM143.306 68.082C143.064 68.082 142.858 67.998 142.69 67.83C142.522 67.662 142.438 67.4567 142.438 67.214C142.438 66.9713 142.522 66.766 142.69 66.598C142.858 66.43 143.064 66.346 143.306 66.346C143.54 66.346 143.736 66.43 143.894 66.598C144.062 66.766 144.146 66.9713 144.146 67.214C144.146 67.4567 144.062 67.662 143.894 67.83C143.736 67.998 143.54 68.082 143.306 68.082ZM143.922 69.328V77H142.648V69.328H143.922ZM148.95 75.824L151.33 69.328H152.688L149.678 77H148.194L145.184 69.328H146.556L148.95 75.824ZM160.941 72.87C160.941 73.1127 160.927 73.3693 160.899 73.64H154.767C154.814 74.396 155.071 74.9887 155.537 75.418C156.013 75.838 156.587 76.048 157.259 76.048C157.81 76.048 158.267 75.922 158.631 75.67C159.005 75.4087 159.266 75.0633 159.415 74.634H160.787C160.582 75.3713 160.171 75.9733 159.555 76.44C158.939 76.8973 158.174 77.126 157.259 77.126C156.531 77.126 155.878 76.9627 155.299 76.636C154.73 76.3093 154.282 75.8473 153.955 75.25C153.629 74.6433 153.465 73.9433 153.465 73.15C153.465 72.3567 153.624 71.6613 153.941 71.064C154.259 70.4667 154.702 70.0093 155.271 69.692C155.85 69.3653 156.513 69.202 157.259 69.202C157.987 69.202 158.631 69.3607 159.191 69.678C159.751 69.9953 160.181 70.434 160.479 70.994C160.787 71.5447 160.941 72.17 160.941 72.87ZM159.625 72.604C159.625 72.1187 159.518 71.7033 159.303 71.358C159.089 71.0033 158.795 70.7373 158.421 70.56C158.057 70.3733 157.651 70.28 157.203 70.28C156.559 70.28 156.009 70.4853 155.551 70.896C155.103 71.3067 154.847 71.876 154.781 72.604H159.625ZM165.879 73.136C165.879 72.352 166.038 71.666 166.355 71.078C166.673 70.4807 167.107 70.0187 167.657 69.692C168.217 69.3653 168.838 69.202 169.519 69.202C170.191 69.202 170.775 69.3467 171.269 69.636C171.764 69.9253 172.133 70.2893 172.375 70.728V69.328H173.663V77H172.375V75.572C172.123 76.02 171.745 76.3933 171.241 76.692C170.747 76.9813 170.168 77.126 169.505 77.126C168.824 77.126 168.208 76.958 167.657 76.622C167.107 76.286 166.673 75.8147 166.355 75.208C166.038 74.6013 165.879 73.9107 165.879 73.136ZM172.375 73.15C172.375 72.5713 172.259 72.0673 172.025 71.638C171.792 71.2087 171.475 70.882 171.073 70.658C170.681 70.4247 170.247 70.308 169.771 70.308C169.295 70.308 168.861 70.42 168.469 70.644C168.077 70.868 167.765 71.1947 167.531 71.624C167.298 72.0533 167.181 72.5573 167.181 73.136C167.181 73.724 167.298 74.2373 167.531 74.676C167.765 75.1053 168.077 75.4367 168.469 75.67C168.861 75.894 169.295 76.006 169.771 76.006C170.247 76.006 170.681 75.894 171.073 75.67C171.475 75.4367 171.792 75.1053 172.025 74.676C172.259 74.2373 172.375 73.7287 172.375 73.15ZM179.554 69.188C180.488 69.188 181.244 69.4727 181.822 70.042C182.401 70.602 182.69 71.414 182.69 72.478V77H181.43V72.66C181.43 71.8947 181.239 71.3113 180.856 70.91C180.474 70.4993 179.951 70.294 179.288 70.294C178.616 70.294 178.08 70.504 177.678 70.924C177.286 71.344 177.09 71.9553 177.09 72.758V77H175.816V69.328H177.09V70.42C177.342 70.028 177.683 69.7247 178.112 69.51C178.551 69.2953 179.032 69.188 179.554 69.188ZM184.295 73.136C184.295 72.352 184.454 71.666 184.771 71.078C185.089 70.4807 185.523 70.0187 186.073 69.692C186.633 69.3653 187.259 69.202 187.949 69.202C188.547 69.202 189.102 69.342 189.615 69.622C190.129 69.8927 190.521 70.252 190.791 70.7V66.64H192.079V77H190.791V75.558C190.539 76.0153 190.166 76.3933 189.671 76.692C189.177 76.9813 188.598 77.126 187.935 77.126C187.254 77.126 186.633 76.958 186.073 76.622C185.523 76.286 185.089 75.8147 184.771 75.208C184.454 74.6013 184.295 73.9107 184.295 73.136ZM190.791 73.15C190.791 72.5713 190.675 72.0673 190.441 71.638C190.208 71.2087 189.891 70.882 189.489 70.658C189.097 70.4247 188.663 70.308 188.187 70.308C187.711 70.308 187.277 70.42 186.885 70.644C186.493 70.868 186.181 71.1947 185.947 71.624C185.714 72.0533 185.597 72.5573 185.597 73.136C185.597 73.724 185.714 74.2373 185.947 74.676C186.181 75.1053 186.493 75.4367 186.885 75.67C187.277 75.894 187.711 76.006 188.187 76.006C188.663 76.006 189.097 75.894 189.489 75.67C189.891 75.4367 190.208 75.1053 190.441 74.676C190.675 74.2373 190.791 73.7287 190.791 73.15ZM197.489 73.15C197.489 72.3567 197.647 71.666 197.965 71.078C198.282 70.4807 198.721 70.0187 199.281 69.692C199.85 69.3653 200.499 69.202 201.227 69.202C202.169 69.202 202.944 69.4307 203.551 69.888C204.167 70.3453 204.573 70.98 204.769 71.792H203.397C203.266 71.3253 203.009 70.9567 202.627 70.686C202.253 70.4153 201.787 70.28 201.227 70.28C200.499 70.28 199.911 70.532 199.463 71.036C199.015 71.5307 198.791 72.2353 198.791 73.15C198.791 74.074 199.015 74.788 199.463 75.292C199.911 75.796 200.499 76.048 201.227 76.048C201.787 76.048 202.253 75.9173 202.627 75.656C203 75.3947 203.257 75.0213 203.397 74.536H204.769C204.563 75.32 204.153 75.95 203.537 76.426C202.921 76.8927 202.151 77.126 201.227 77.126C200.499 77.126 199.85 76.9627 199.281 76.636C198.721 76.3093 198.282 75.8473 197.965 75.25C197.647 74.6527 197.489 73.9527 197.489 73.15ZM207.743 66.64V77H206.469V66.64H207.743ZM213.26 77.126C212.541 77.126 211.888 76.9627 211.3 76.636C210.721 76.3093 210.264 75.8473 209.928 75.25C209.601 74.6433 209.438 73.9433 209.438 73.15C209.438 72.366 209.606 71.6753 209.942 71.078C210.287 70.4713 210.754 70.0093 211.342 69.692C211.93 69.3653 212.588 69.202 213.316 69.202C214.044 69.202 214.702 69.3653 215.29 69.692C215.878 70.0093 216.34 70.4667 216.676 71.064C217.021 71.6613 217.194 72.3567 217.194 73.15C217.194 73.9433 217.017 74.6433 216.662 75.25C216.317 75.8473 215.845 76.3093 215.248 76.636C214.651 76.9627 213.988 77.126 213.26 77.126ZM213.26 76.006C213.717 76.006 214.147 75.8987 214.548 75.684C214.949 75.4693 215.271 75.1473 215.514 74.718C215.766 74.2887 215.892 73.766 215.892 73.15C215.892 72.534 215.771 72.0113 215.528 71.582C215.285 71.1527 214.968 70.8353 214.576 70.63C214.184 70.4153 213.759 70.308 213.302 70.308C212.835 70.308 212.406 70.4153 212.014 70.63C211.631 70.8353 211.323 71.1527 211.09 71.582C210.857 72.0113 210.74 72.534 210.74 73.15C210.74 73.7753 210.852 74.3027 211.076 74.732C211.309 75.1613 211.617 75.4833 212 75.698C212.383 75.9033 212.803 76.006 213.26 76.006ZM221.585 77.126C220.997 77.126 220.47 77.028 220.003 76.832C219.536 76.6267 219.168 76.3467 218.897 75.992C218.626 75.628 218.477 75.2127 218.449 74.746H219.765C219.802 75.1287 219.98 75.4413 220.297 75.684C220.624 75.9267 221.048 76.048 221.571 76.048C222.056 76.048 222.439 75.9407 222.719 75.726C222.999 75.5113 223.139 75.2407 223.139 74.914C223.139 74.578 222.99 74.3307 222.691 74.172C222.392 74.004 221.93 73.8407 221.305 73.682C220.736 73.5327 220.269 73.3833 219.905 73.234C219.55 73.0753 219.242 72.8467 218.981 72.548C218.729 72.24 218.603 71.8387 218.603 71.344C218.603 70.952 218.72 70.5927 218.953 70.266C219.186 69.9393 219.518 69.6827 219.947 69.496C220.376 69.3 220.866 69.202 221.417 69.202C222.266 69.202 222.952 69.4167 223.475 69.846C223.998 70.2753 224.278 70.8633 224.315 71.61H223.041C223.013 71.2087 222.85 70.8867 222.551 70.644C222.262 70.4013 221.87 70.28 221.375 70.28C220.918 70.28 220.554 70.378 220.283 70.574C220.012 70.77 219.877 71.0267 219.877 71.344C219.877 71.596 219.956 71.806 220.115 71.974C220.283 72.1327 220.488 72.2633 220.731 72.366C220.983 72.4593 221.328 72.5667 221.767 72.688C222.318 72.8373 222.766 72.9867 223.111 73.136C223.456 73.276 223.75 73.4907 223.993 73.78C224.245 74.0693 224.376 74.4473 224.385 74.914C224.385 75.334 224.268 75.712 224.035 76.048C223.802 76.384 223.47 76.65 223.041 76.846C222.621 77.0327 222.136 77.126 221.585 77.126ZM233.183 72.87C233.183 73.1127 233.169 73.3693 233.141 73.64H227.009C227.056 74.396 227.313 74.9887 227.779 75.418C228.255 75.838 228.829 76.048 229.501 76.048C230.052 76.048 230.509 75.922 230.873 75.67C231.247 75.4087 231.508 75.0633 231.657 74.634H233.029C232.824 75.3713 232.413 75.9733 231.797 76.44C231.181 76.8973 230.416 77.126 229.501 77.126C228.773 77.126 228.12 76.9627 227.541 76.636C226.972 76.3093 226.524 75.8473 226.197 75.25C225.871 74.6433 225.707 73.9433 225.707 73.15C225.707 72.3567 225.866 71.6613 226.183 71.064C226.501 70.4667 226.944 70.0093 227.513 69.692C228.092 69.3653 228.755 69.202 229.501 69.202C230.229 69.202 230.873 69.3607 231.433 69.678C231.993 69.9953 232.423 70.434 232.721 70.994C233.029 71.5447 233.183 72.17 233.183 72.87ZM231.867 72.604C231.867 72.1187 231.76 71.7033 231.545 71.358C231.331 71.0033 231.037 70.7373 230.663 70.56C230.299 70.3733 229.893 70.28 229.445 70.28C228.801 70.28 228.251 70.4853 227.793 70.896C227.345 71.3067 227.089 71.876 227.023 72.604H231.867ZM234.389 73.136C234.389 72.352 234.548 71.666 234.865 71.078C235.182 70.4807 235.616 70.0187 236.167 69.692C236.727 69.3653 237.352 69.202 238.043 69.202C238.64 69.202 239.196 69.342 239.709 69.622C240.222 69.8927 240.614 70.252 240.885 70.7V66.64H242.173V77H240.885V75.558C240.633 76.0153 240.26 76.3933 239.765 76.692C239.27 76.9813 238.692 77.126 238.029 77.126C237.348 77.126 236.727 76.958 236.167 76.622C235.616 76.286 235.182 75.8147 234.865 75.208C234.548 74.6013 234.389 73.9107 234.389 73.136ZM240.885 73.15C240.885 72.5713 240.768 72.0673 240.535 71.638C240.302 71.2087 239.984 70.882 239.583 70.658C239.191 70.4247 238.757 70.308 238.281 70.308C237.805 70.308 237.371 70.42 236.979 70.644C236.587 70.868 236.274 71.1947 236.041 71.624C235.808 72.0533 235.691 72.5573 235.691 73.136C235.691 73.724 235.808 74.2373 236.041 74.676C236.274 75.1053 236.587 75.4367 236.979 75.67C237.371 75.894 237.805 76.006 238.281 76.006C238.757 76.006 239.191 75.894 239.583 75.67C239.984 75.4367 240.302 75.1053 240.535 74.676C240.768 74.2373 240.885 73.7287 240.885 73.15ZM247.582 73.136C247.582 72.352 247.741 71.666 248.058 71.078C248.376 70.4807 248.81 70.0187 249.36 69.692C249.92 69.3653 250.541 69.202 251.222 69.202C251.894 69.202 252.478 69.3467 252.972 69.636C253.467 69.9253 253.836 70.2893 254.078 70.728V69.328H255.366V77H254.078V75.572C253.826 76.02 253.448 76.3933 252.944 76.692C252.45 76.9813 251.871 77.126 251.208 77.126C250.527 77.126 249.911 76.958 249.36 76.622C248.81 76.286 248.376 75.8147 248.058 75.208C247.741 74.6013 247.582 73.9107 247.582 73.136ZM254.078 73.15C254.078 72.5713 253.962 72.0673 253.728 71.638C253.495 71.2087 253.178 70.882 252.776 70.658C252.384 70.4247 251.95 70.308 251.474 70.308C250.998 70.308 250.564 70.42 250.172 70.644C249.78 70.868 249.468 71.1947 249.234 71.624C249.001 72.0533 248.884 72.5573 248.884 73.136C248.884 73.724 249.001 74.2373 249.234 74.676C249.468 75.1053 249.78 75.4367 250.172 75.67C250.564 75.894 250.998 76.006 251.474 76.006C251.95 76.006 252.384 75.894 252.776 75.67C253.178 75.4367 253.495 75.1053 253.728 74.676C253.962 74.2373 254.078 73.7287 254.078 73.15ZM257.043 73.15C257.043 72.3567 257.202 71.666 257.519 71.078C257.837 70.4807 258.275 70.0187 258.835 69.692C259.405 69.3653 260.053 69.202 260.781 69.202C261.724 69.202 262.499 69.4307 263.105 69.888C263.721 70.3453 264.127 70.98 264.323 71.792H262.951C262.821 71.3253 262.564 70.9567 262.181 70.686C261.808 70.4153 261.341 70.28 260.781 70.28C260.053 70.28 259.465 70.532 259.017 71.036C258.569 71.5307 258.345 72.2353 258.345 73.15C258.345 74.074 258.569 74.788 259.017 75.292C259.465 75.796 260.053 76.048 260.781 76.048C261.341 76.048 261.808 75.9173 262.181 75.656C262.555 75.3947 262.811 75.0213 262.951 74.536H264.323C264.118 75.32 263.707 75.95 263.091 76.426C262.475 76.8927 261.705 77.126 260.781 77.126C260.053 77.126 259.405 76.9627 258.835 76.636C258.275 76.3093 257.837 75.8473 257.519 75.25C257.202 74.6527 257.043 73.9527 257.043 73.15ZM265.547 73.15C265.547 72.3567 265.706 71.666 266.023 71.078C266.341 70.4807 266.779 70.0187 267.339 69.692C267.909 69.3653 268.557 69.202 269.285 69.202C270.228 69.202 271.003 69.4307 271.609 69.888C272.225 70.3453 272.631 70.98 272.827 71.792H271.455C271.325 71.3253 271.068 70.9567 270.685 70.686C270.312 70.4153 269.845 70.28 269.285 70.28C268.557 70.28 267.969 70.532 267.521 71.036C267.073 71.5307 266.849 72.2353 266.849 73.15C266.849 74.074 267.073 74.788 267.521 75.292C267.969 75.796 268.557 76.048 269.285 76.048C269.845 76.048 270.312 75.9173 270.685 75.656C271.059 75.3947 271.315 75.0213 271.455 74.536H272.827C272.622 75.32 272.211 75.95 271.595 76.426C270.979 76.8927 270.209 77.126 269.285 77.126C268.557 77.126 267.909 76.9627 267.339 76.636C266.779 76.3093 266.341 75.8473 266.023 75.25C265.706 74.6527 265.547 73.9527 265.547 73.15ZM277.873 77.126C277.155 77.126 276.501 76.9627 275.913 76.636C275.335 76.3093 274.877 75.8473 274.541 75.25C274.215 74.6433 274.051 73.9433 274.051 73.15C274.051 72.366 274.219 71.6753 274.555 71.078C274.901 70.4713 275.367 70.0093 275.955 69.692C276.543 69.3653 277.201 69.202 277.929 69.202C278.657 69.202 279.315 69.3653 279.903 69.692C280.491 70.0093 280.953 70.4667 281.289 71.064C281.635 71.6613 281.807 72.3567 281.807 73.15C281.807 73.9433 281.63 74.6433 281.275 75.25C280.93 75.8473 280.459 76.3093 279.861 76.636C279.264 76.9627 278.601 77.126 277.873 77.126ZM277.873 76.006C278.331 76.006 278.76 75.8987 279.161 75.684C279.563 75.4693 279.885 75.1473 280.127 74.718C280.379 74.2887 280.505 73.766 280.505 73.15C280.505 72.534 280.384 72.0113 280.141 71.582C279.899 71.1527 279.581 70.8353 279.189 70.63C278.797 70.4153 278.373 70.308 277.915 70.308C277.449 70.308 277.019 70.4153 276.627 70.63C276.245 70.8353 275.937 71.1527 275.703 71.582C275.47 72.0113 275.353 72.534 275.353 73.15C275.353 73.7753 275.465 74.3027 275.689 74.732C275.923 75.1613 276.231 75.4833 276.613 75.698C276.996 75.9033 277.416 76.006 277.873 76.006ZM290.286 69.328V77H289.012V75.866C288.77 76.258 288.429 76.566 287.99 76.79C287.561 77.0047 287.085 77.112 286.562 77.112C285.965 77.112 285.428 76.9907 284.952 76.748C284.476 76.496 284.098 76.1227 283.818 75.628C283.548 75.1333 283.412 74.5313 283.412 73.822V69.328H284.672V73.654C284.672 74.41 284.864 74.9933 285.246 75.404C285.629 75.8053 286.152 76.006 286.814 76.006C287.496 76.006 288.032 75.796 288.424 75.376C288.816 74.956 289.012 74.3447 289.012 73.542V69.328H290.286ZM296.175 69.188C297.109 69.188 297.865 69.4727 298.443 70.042C299.022 70.602 299.311 71.414 299.311 72.478V77H298.051V72.66C298.051 71.8947 297.86 71.3113 297.477 70.91C297.095 70.4993 296.572 70.294 295.909 70.294C295.237 70.294 294.701 70.504 294.299 70.924C293.907 71.344 293.711 71.9553 293.711 72.758V77H292.437V69.328H293.711V70.42C293.963 70.028 294.304 69.7247 294.733 69.51C295.172 69.2953 295.653 69.188 296.175 69.188ZM302.946 70.378V74.9C302.946 75.2733 303.026 75.5393 303.184 75.698C303.343 75.8473 303.618 75.922 304.01 75.922H304.948V77H303.8C303.091 77 302.559 76.8367 302.204 76.51C301.85 76.1833 301.672 75.6467 301.672 74.9V70.378H300.678V69.328H301.672V67.396H302.946V69.328H304.948V70.378H302.946ZM309.208 77.126C308.62 77.126 308.093 77.028 307.626 76.832C307.159 76.6267 306.791 76.3467 306.52 75.992C306.249 75.628 306.1 75.2127 306.072 74.746H307.388C307.425 75.1287 307.603 75.4413 307.92 75.684C308.247 75.9267 308.671 76.048 309.194 76.048C309.679 76.048 310.062 75.9407 310.342 75.726C310.622 75.5113 310.762 75.2407 310.762 74.914C310.762 74.578 310.613 74.3307 310.314 74.172C310.015 74.004 309.553 73.8407 308.928 73.682C308.359 73.5327 307.892 73.3833 307.528 73.234C307.173 73.0753 306.865 72.8467 306.604 72.548C306.352 72.24 306.226 71.8387 306.226 71.344C306.226 70.952 306.343 70.5927 306.576 70.266C306.809 69.9393 307.141 69.6827 307.57 69.496C307.999 69.3 308.489 69.202 309.04 69.202C309.889 69.202 310.575 69.4167 311.098 69.846C311.621 70.2753 311.901 70.8633 311.938 71.61H310.664C310.636 71.2087 310.473 70.8867 310.174 70.644C309.885 70.4013 309.493 70.28 308.998 70.28C308.541 70.28 308.177 70.378 307.906 70.574C307.635 70.77 307.5 71.0267 307.5 71.344C307.5 71.596 307.579 71.806 307.738 71.974C307.906 72.1327 308.111 72.2633 308.354 72.366C308.606 72.4593 308.951 72.5667 309.39 72.688C309.941 72.8373 310.389 72.9867 310.734 73.136C311.079 73.276 311.373 73.4907 311.616 73.78C311.868 74.0693 311.999 74.4473 312.008 74.914C312.008 75.334 311.891 75.712 311.658 76.048C311.425 76.384 311.093 76.65 310.664 76.846C310.244 77.0327 309.759 77.126 309.208 77.126ZM318.813 70.574C319.037 70.1353 319.354 69.7947 319.765 69.552C320.185 69.3093 320.694 69.188 321.291 69.188V70.504H320.955C319.527 70.504 318.813 71.2787 318.813 72.828V77H317.539V69.328H318.813V70.574ZM329.762 72.87C329.762 73.1127 329.748 73.3693 329.72 73.64H323.588C323.634 74.396 323.891 74.9887 324.358 75.418C324.834 75.838 325.408 76.048 326.08 76.048C326.63 76.048 327.088 75.922 327.452 75.67C327.825 75.4087 328.086 75.0633 328.236 74.634H329.608C329.402 75.3713 328.992 75.9733 328.376 76.44C327.76 76.8973 326.994 77.126 326.08 77.126C325.352 77.126 324.698 76.9627 324.12 76.636C323.55 76.3093 323.102 75.8473 322.776 75.25C322.449 74.6433 322.286 73.9433 322.286 73.15C322.286 72.3567 322.444 71.6613 322.762 71.064C323.079 70.4667 323.522 70.0093 324.092 69.692C324.67 69.3653 325.333 69.202 326.08 69.202C326.808 69.202 327.452 69.3607 328.012 69.678C328.572 69.9953 329.001 70.434 329.3 70.994C329.608 71.5447 329.762 72.17 329.762 72.87ZM328.446 72.604C328.446 72.1187 328.338 71.7033 328.124 71.358C327.909 71.0033 327.615 70.7373 327.242 70.56C326.878 70.3733 326.472 70.28 326.024 70.28C325.38 70.28 324.829 70.4853 324.372 70.896C323.924 71.3067 323.667 71.876 323.602 72.604H328.446ZM332.717 70.742C332.969 70.3033 333.343 69.9393 333.837 69.65C334.341 69.3513 334.925 69.202 335.587 69.202C336.269 69.202 336.885 69.3653 337.435 69.692C337.995 70.0187 338.434 70.4807 338.751 71.078C339.069 71.666 339.227 72.352 339.227 73.136C339.227 73.9107 339.069 74.6013 338.751 75.208C338.434 75.8147 337.995 76.286 337.435 76.622C336.885 76.958 336.269 77.126 335.587 77.126C334.934 77.126 334.355 76.9813 333.851 76.692C333.357 76.3933 332.979 76.0247 332.717 75.586V80.64H331.443V69.328H332.717V70.742ZM337.925 73.136C337.925 72.5573 337.809 72.0533 337.575 71.624C337.342 71.1947 337.025 70.868 336.623 70.644C336.231 70.42 335.797 70.308 335.321 70.308C334.855 70.308 334.421 70.4247 334.019 70.658C333.627 70.882 333.31 71.2133 333.067 71.652C332.834 72.0813 332.717 72.5807 332.717 73.15C332.717 73.7287 332.834 74.2373 333.067 74.676C333.31 75.1053 333.627 75.4367 334.019 75.67C334.421 75.894 334.855 76.006 335.321 76.006C335.797 76.006 336.231 75.894 336.623 75.67C337.025 75.4367 337.342 75.1053 337.575 74.676C337.809 74.2373 337.925 73.724 337.925 73.136ZM344.25 77.126C343.532 77.126 342.878 76.9627 342.29 76.636C341.712 76.3093 341.254 75.8473 340.918 75.25C340.592 74.6433 340.428 73.9433 340.428 73.15C340.428 72.366 340.596 71.6753 340.932 71.078C341.278 70.4713 341.744 70.0093 342.332 69.692C342.92 69.3653 343.578 69.202 344.306 69.202C345.034 69.202 345.692 69.3653 346.28 69.692C346.868 70.0093 347.33 70.4667 347.666 71.064C348.012 71.6613 348.184 72.3567 348.184 73.15C348.184 73.9433 348.007 74.6433 347.652 75.25C347.307 75.8473 346.836 76.3093 346.238 76.636C345.641 76.9627 344.978 77.126 344.25 77.126ZM344.25 76.006C344.708 76.006 345.137 75.8987 345.538 75.684C345.94 75.4693 346.262 75.1473 346.504 74.718C346.756 74.2887 346.882 73.766 346.882 73.15C346.882 72.534 346.761 72.0113 346.518 71.582C346.276 71.1527 345.958 70.8353 345.566 70.63C345.174 70.4153 344.75 70.308 344.292 70.308C343.826 70.308 343.396 70.4153 343.004 70.63C342.622 70.8353 342.314 71.1527 342.08 71.582C341.847 72.0113 341.73 72.534 341.73 73.15C341.73 73.7753 341.842 74.3027 342.066 74.732C342.3 75.1613 342.608 75.4833 342.99 75.698C343.373 75.9033 343.793 76.006 344.25 76.006ZM351.133 70.574C351.357 70.1353 351.675 69.7947 352.085 69.552C352.505 69.3093 353.014 69.188 353.611 69.188V70.504H353.275C351.847 70.504 351.133 71.2787 351.133 72.828V77H349.859V69.328H351.133V70.574ZM356.636 70.378V74.9C356.636 75.2733 356.715 75.5393 356.874 75.698C357.033 75.8473 357.308 75.922 357.7 75.922H358.638V77H357.49C356.781 77 356.249 76.8367 355.894 76.51C355.539 76.1833 355.362 75.6467 355.362 74.9V70.378H354.368V69.328H355.362V67.396H356.636V69.328H358.638V70.378H356.636ZM367.182 72.87C367.182 73.1127 367.168 73.3693 367.14 73.64H361.008C361.054 74.396 361.311 74.9887 361.778 75.418C362.254 75.838 362.828 76.048 363.5 76.048C364.05 76.048 364.508 75.922 364.872 75.67C365.245 75.4087 365.506 75.0633 365.656 74.634H367.028C366.822 75.3713 366.412 75.9733 365.796 76.44C365.18 76.8973 364.414 77.126 363.5 77.126C362.772 77.126 362.118 76.9627 361.54 76.636C360.97 76.3093 360.522 75.8473 360.196 75.25C359.869 74.6433 359.706 73.9433 359.706 73.15C359.706 72.3567 359.864 71.6613 360.182 71.064C360.499 70.4667 360.942 70.0093 361.512 69.692C362.09 69.3653 362.753 69.202 363.5 69.202C364.228 69.202 364.872 69.3607 365.432 69.678C365.992 69.9953 366.421 70.434 366.72 70.994C367.028 71.5447 367.182 72.17 367.182 72.87ZM365.866 72.604C365.866 72.1187 365.758 71.7033 365.544 71.358C365.329 71.0033 365.035 70.7373 364.662 70.56C364.298 70.3733 363.892 70.28 363.444 70.28C362.8 70.28 362.249 70.4853 361.792 70.896C361.344 71.3067 361.087 71.876 361.022 72.604H365.866ZM368.387 73.136C368.387 72.352 368.546 71.666 368.863 71.078C369.18 70.4807 369.614 70.0187 370.165 69.692C370.725 69.3653 371.35 69.202 372.041 69.202C372.638 69.202 373.194 69.342 373.707 69.622C374.22 69.8927 374.612 70.252 374.883 70.7V66.64H376.171V77H374.883V75.558C374.631 76.0153 374.258 76.3933 373.763 76.692C373.268 76.9813 372.69 77.126 372.027 77.126C371.346 77.126 370.725 76.958 370.165 76.622C369.614 76.286 369.18 75.8147 368.863 75.208C368.546 74.6013 368.387 73.9107 368.387 73.136ZM374.883 73.15C374.883 72.5713 374.766 72.0673 374.533 71.638C374.3 71.2087 373.982 70.882 373.581 70.658C373.189 70.4247 372.755 70.308 372.279 70.308C371.803 70.308 371.369 70.42 370.977 70.644C370.585 70.868 370.272 71.1947 370.039 71.624C369.806 72.0533 369.689 72.5573 369.689 73.136C369.689 73.724 369.806 74.2373 370.039 74.676C370.272 75.1053 370.585 75.4367 370.977 75.67C371.369 75.894 371.803 76.006 372.279 76.006C372.755 76.006 373.189 75.894 373.581 75.67C373.982 75.4367 374.3 75.1053 374.533 74.676C374.766 74.2373 374.883 73.7287 374.883 73.15ZM382.715 68.082C382.472 68.082 382.267 67.998 382.099 67.83C381.931 67.662 381.847 67.4567 381.847 67.214C381.847 66.9713 381.931 66.766 382.099 66.598C382.267 66.43 382.472 66.346 382.715 66.346C382.948 66.346 383.144 66.43 383.303 66.598C383.471 66.766 383.555 66.9713 383.555 67.214C383.555 67.4567 383.471 67.662 383.303 67.83C383.144 67.998 382.948 68.082 382.715 68.082ZM383.331 69.328V77H382.057V69.328H383.331ZM389.24 69.188C390.173 69.188 390.929 69.4727 391.508 70.042C392.086 70.602 392.376 71.414 392.376 72.478V77H391.116V72.66C391.116 71.8947 390.924 71.3113 390.542 70.91C390.159 70.4993 389.636 70.294 388.974 70.294C388.302 70.294 387.765 70.504 387.364 70.924C386.972 71.344 386.776 71.9553 386.776 72.758V77H385.502V69.328H386.776V70.42C387.028 70.028 387.368 69.7247 387.798 69.51C388.236 69.2953 388.717 69.188 389.24 69.188ZM404.797 69.328L400.177 80.612H398.861L400.373 76.916L397.279 69.328H398.693L401.101 75.544L403.481 69.328H404.797ZM409.424 77.126C408.705 77.126 408.052 76.9627 407.464 76.636C406.885 76.3093 406.428 75.8473 406.092 75.25C405.765 74.6433 405.602 73.9433 405.602 73.15C405.602 72.366 405.77 71.6753 406.106 71.078C406.451 70.4713 406.918 70.0093 407.506 69.692C408.094 69.3653 408.752 69.202 409.48 69.202C410.208 69.202 410.866 69.3653 411.454 69.692C412.042 70.0093 412.504 70.4667 412.84 71.064C413.185 71.6613 413.358 72.3567 413.358 73.15C413.358 73.9433 413.181 74.6433 412.826 75.25C412.481 75.8473 412.009 76.3093 411.412 76.636C410.815 76.9627 410.152 77.126 409.424 77.126ZM409.424 76.006C409.881 76.006 410.311 75.8987 410.712 75.684C411.113 75.4693 411.435 75.1473 411.678 74.718C411.93 74.2887 412.056 73.766 412.056 73.15C412.056 72.534 411.935 72.0113 411.692 71.582C411.449 71.1527 411.132 70.8353 410.74 70.63C410.348 70.4153 409.923 70.308 409.466 70.308C408.999 70.308 408.57 70.4153 408.178 70.63C407.795 70.8353 407.487 71.1527 407.254 71.582C407.021 72.0113 406.904 72.534 406.904 73.15C406.904 73.7753 407.016 74.3027 407.24 74.732C407.473 75.1613 407.781 75.4833 408.164 75.698C408.547 75.9033 408.967 76.006 409.424 76.006ZM421.837 69.328V77H420.563V75.866C420.32 76.258 419.98 76.566 419.541 76.79C419.112 77.0047 418.636 77.112 418.113 77.112C417.516 77.112 416.979 76.9907 416.503 76.748C416.027 76.496 415.649 76.1227 415.369 75.628C415.098 75.1333 414.963 74.5313 414.963 73.822V69.328H416.223V73.654C416.223 74.41 416.414 74.9933 416.797 75.404C417.18 75.8053 417.702 76.006 418.365 76.006C419.046 76.006 419.583 75.796 419.975 75.376C420.367 74.956 420.563 74.3447 420.563 73.542V69.328H421.837ZM425.262 70.574C425.486 70.1353 425.803 69.7947 426.214 69.552C426.634 69.3093 427.143 69.188 427.74 69.188V70.504H427.404C425.976 70.504 425.262 71.2787 425.262 72.828V77H423.988V69.328H425.262V70.574ZM436.681 69.188C437.615 69.188 438.371 69.4727 438.949 70.042C439.528 70.602 439.817 71.414 439.817 72.478V77H438.557V72.66C438.557 71.8947 438.366 71.3113 437.983 70.91C437.601 70.4993 437.078 70.294 436.415 70.294C435.743 70.294 435.207 70.504 434.805 70.924C434.413 71.344 434.217 71.9553 434.217 72.758V77H432.943V69.328H434.217V70.42C434.469 70.028 434.81 69.7247 435.239 69.51C435.678 69.2953 436.159 69.188 436.681 69.188ZM441.422 73.136C441.422 72.352 441.581 71.666 441.898 71.078C442.216 70.4807 442.65 70.0187 443.2 69.692C443.76 69.3653 444.381 69.202 445.062 69.202C445.734 69.202 446.318 69.3467 446.812 69.636C447.307 69.9253 447.676 70.2893 447.918 70.728V69.328H449.206V77H447.918V75.572C447.666 76.02 447.288 76.3933 446.784 76.692C446.29 76.9813 445.711 77.126 445.048 77.126C444.367 77.126 443.751 76.958 443.2 76.622C442.65 76.286 442.216 75.8147 441.898 75.208C441.581 74.6013 441.422 73.9107 441.422 73.136ZM447.918 73.15C447.918 72.5713 447.802 72.0673 447.568 71.638C447.335 71.2087 447.018 70.882 446.616 70.658C446.224 70.4247 445.79 70.308 445.314 70.308C444.838 70.308 444.404 70.42 444.012 70.644C443.62 70.868 443.308 71.1947 443.074 71.624C442.841 72.0533 442.724 72.5573 442.724 73.136C442.724 73.724 442.841 74.2373 443.074 74.676C443.308 75.1053 443.62 75.4367 444.012 75.67C444.404 75.894 444.838 76.006 445.314 76.006C445.79 76.006 446.224 75.894 446.616 75.67C447.018 75.4367 447.335 75.1053 447.568 74.676C447.802 74.2373 447.918 73.7287 447.918 73.15ZM460.585 69.188C461.183 69.188 461.715 69.314 462.181 69.566C462.648 69.8087 463.017 70.1773 463.287 70.672C463.558 71.1667 463.693 71.7687 463.693 72.478V77H462.433V72.66C462.433 71.8947 462.242 71.3113 461.859 70.91C461.486 70.4993 460.977 70.294 460.333 70.294C459.671 70.294 459.143 70.5087 458.751 70.938C458.359 71.358 458.163 71.9693 458.163 72.772V77H456.903V72.66C456.903 71.8947 456.712 71.3113 456.329 70.91C455.956 70.4993 455.447 70.294 454.803 70.294C454.141 70.294 453.613 70.5087 453.221 70.938C452.829 71.358 452.633 71.9693 452.633 72.772V77H451.359V69.328H452.633V70.434C452.885 70.0327 453.221 69.7247 453.641 69.51C454.071 69.2953 454.542 69.188 455.055 69.188C455.699 69.188 456.269 69.3327 456.763 69.622C457.258 69.9113 457.627 70.336 457.869 70.896C458.084 70.3547 458.439 69.9347 458.933 69.636C459.428 69.3373 459.979 69.188 460.585 69.188ZM472.783 72.87C472.783 73.1127 472.769 73.3693 472.741 73.64H466.609C466.656 74.396 466.912 74.9887 467.379 75.418C467.855 75.838 468.429 76.048 469.101 76.048C469.652 76.048 470.109 75.922 470.473 75.67C470.846 75.4087 471.108 75.0633 471.257 74.634H472.629C472.424 75.3713 472.013 75.9733 471.397 76.44C470.781 76.8973 470.016 77.126 469.101 77.126C468.373 77.126 467.72 76.9627 467.141 76.636C466.572 76.3093 466.124 75.8473 465.797 75.25C465.47 74.6433 465.307 73.9433 465.307 73.15C465.307 72.3567 465.466 71.6613 465.783 71.064C466.1 70.4667 466.544 70.0093 467.113 69.692C467.692 69.3653 468.354 69.202 469.101 69.202C469.829 69.202 470.473 69.3607 471.033 69.678C471.593 69.9953 472.022 70.434 472.321 70.994C472.629 71.5447 472.783 72.17 472.783 72.87ZM471.467 72.604C471.467 72.1187 471.36 71.7033 471.145 71.358C470.93 71.0033 470.636 70.7373 470.263 70.56C469.899 70.3733 469.493 70.28 469.045 70.28C468.401 70.28 467.85 70.4853 467.393 70.896C466.945 71.3067 466.688 71.876 466.623 72.604H471.467ZM474.871 77.084C474.628 77.084 474.423 77 474.255 76.832C474.087 76.664 474.003 76.4587 474.003 76.216C474.003 75.9733 474.087 75.768 474.255 75.6C474.423 75.432 474.628 75.348 474.871 75.348C475.104 75.348 475.3 75.432 475.459 75.6C475.627 75.768 475.711 75.9733 475.711 76.216C475.711 76.4587 475.627 76.664 475.459 76.832C475.3 77 475.104 77.084 474.871 77.084ZM482.411 67.242V77H481.137V67.242H482.411ZM486.136 70.378V74.9C486.136 75.2733 486.215 75.5393 486.374 75.698C486.533 75.8473 486.808 75.922 487.2 75.922H488.138V77H486.99C486.281 77 485.749 76.8367 485.394 76.51C485.039 76.1833 484.862 75.6467 484.862 74.9V70.378H483.868V69.328H484.862V67.396H486.136V69.328H488.138V70.378H486.136ZM490.326 65.856L490.158 68.642H489.276L489.094 65.856H490.326ZM494.626 77.126C494.038 77.126 493.511 77.028 493.044 76.832C492.577 76.6267 492.209 76.3467 491.938 75.992C491.667 75.628 491.518 75.2127 491.49 74.746H492.806C492.843 75.1287 493.021 75.4413 493.338 75.684C493.665 75.9267 494.089 76.048 494.612 76.048C495.097 76.048 495.48 75.9407 495.76 75.726C496.04 75.5113 496.18 75.2407 496.18 74.914C496.18 74.578 496.031 74.3307 495.732 74.172C495.433 74.004 494.971 73.8407 494.346 73.682C493.777 73.5327 493.31 73.3833 492.946 73.234C492.591 73.0753 492.283 72.8467 492.022 72.548C491.77 72.24 491.644 71.8387 491.644 71.344C491.644 70.952 491.761 70.5927 491.994 70.266C492.227 69.9393 492.559 69.6827 492.988 69.496C493.417 69.3 493.907 69.202 494.458 69.202C495.307 69.202 495.993 69.4167 496.516 69.846C497.039 70.2753 497.319 70.8633 497.356 71.61H496.082C496.054 71.2087 495.891 70.8867 495.592 70.644C495.303 70.4013 494.911 70.28 494.416 70.28C493.959 70.28 493.595 70.378 493.324 70.574C493.053 70.77 492.918 71.0267 492.918 71.344C492.918 71.596 492.997 71.806 493.156 71.974C493.324 72.1327 493.529 72.2633 493.772 72.366C494.024 72.4593 494.369 72.5667 494.808 72.688C495.359 72.8373 495.807 72.9867 496.152 73.136C496.497 73.276 496.791 73.4907 497.034 73.78C497.286 74.0693 497.417 74.4473 497.426 74.914C497.426 75.334 497.309 75.712 497.076 76.048C496.843 76.384 496.511 76.65 496.082 76.846C495.662 77.0327 495.177 77.126 494.626 77.126ZM504.231 70.756C504.492 70.2987 504.875 69.9253 505.379 69.636C505.883 69.3467 506.457 69.202 507.101 69.202C507.792 69.202 508.412 69.3653 508.963 69.692C509.514 70.0187 509.948 70.4807 510.265 71.078C510.582 71.666 510.741 72.352 510.741 73.136C510.741 73.9107 510.582 74.6013 510.265 75.208C509.948 75.8147 509.509 76.286 508.949 76.622C508.398 76.958 507.782 77.126 507.101 77.126C506.438 77.126 505.855 76.9813 505.351 76.692C504.856 76.4027 504.483 76.034 504.231 75.586V77H502.957V66.64H504.231V70.756ZM509.439 73.136C509.439 72.5573 509.322 72.0533 509.089 71.624C508.856 71.1947 508.538 70.868 508.137 70.644C507.745 70.42 507.311 70.308 506.835 70.308C506.368 70.308 505.934 70.4247 505.533 70.658C505.141 70.882 504.824 71.2133 504.581 71.652C504.348 72.0813 504.231 72.5807 504.231 73.15C504.231 73.7287 504.348 74.2373 504.581 74.676C504.824 75.1053 505.141 75.4367 505.533 75.67C505.934 75.894 506.368 76.006 506.835 76.006C507.311 76.006 507.745 75.894 508.137 75.67C508.538 75.4367 508.856 75.1053 509.089 74.676C509.322 74.2373 509.439 73.724 509.439 73.136ZM519.418 72.87C519.418 73.1127 519.404 73.3693 519.376 73.64H513.244C513.291 74.396 513.547 74.9887 514.014 75.418C514.49 75.838 515.064 76.048 515.736 76.048C516.287 76.048 516.744 75.922 517.108 75.67C517.481 75.4087 517.743 75.0633 517.892 74.634H519.264C519.059 75.3713 518.648 75.9733 518.032 76.44C517.416 76.8973 516.651 77.126 515.736 77.126C515.008 77.126 514.355 76.9627 513.776 76.636C513.207 76.3093 512.759 75.8473 512.432 75.25C512.105 74.6433 511.942 73.9433 511.942 73.15C511.942 72.3567 512.101 71.6613 512.418 71.064C512.735 70.4667 513.179 70.0093 513.748 69.692C514.327 69.3653 514.989 69.202 515.736 69.202C516.464 69.202 517.108 69.3607 517.668 69.678C518.228 69.9953 518.657 70.434 518.956 70.994C519.264 71.5447 519.418 72.17 519.418 72.87ZM518.102 72.604C518.102 72.1187 517.995 71.7033 517.78 71.358C517.565 71.0033 517.271 70.7373 516.898 70.56C516.534 70.3733 516.128 70.28 515.68 70.28C515.036 70.28 514.485 70.4853 514.028 70.896C513.58 71.3067 513.323 71.876 513.258 72.604H518.102ZM524.837 69.188C525.771 69.188 526.527 69.4727 527.105 70.042C527.684 70.602 527.973 71.414 527.973 72.478V77H526.713V72.66C526.713 71.8947 526.522 71.3113 526.139 70.91C525.757 70.4993 525.234 70.294 524.571 70.294C523.899 70.294 523.363 70.504 522.961 70.924C522.569 71.344 522.373 71.9553 522.373 72.758V77H521.099V69.328H522.373V70.42C522.625 70.028 522.966 69.7247 523.395 69.51C523.834 69.2953 524.315 69.188 524.837 69.188ZM537.055 72.87C537.055 73.1127 537.041 73.3693 537.013 73.64H530.881C530.927 74.396 531.184 74.9887 531.651 75.418C532.127 75.838 532.701 76.048 533.373 76.048C533.923 76.048 534.381 75.922 534.745 75.67C535.118 75.4087 535.379 75.0633 535.529 74.634H536.901C536.695 75.3713 536.285 75.9733 535.669 76.44C535.053 76.8973 534.287 77.126 533.373 77.126C532.645 77.126 531.991 76.9627 531.413 76.636C530.843 76.3093 530.395 75.8473 530.069 75.25C529.742 74.6433 529.579 73.9433 529.579 73.15C529.579 72.3567 529.737 71.6613 530.055 71.064C530.372 70.4667 530.815 70.0093 531.385 69.692C531.963 69.3653 532.626 69.202 533.373 69.202C534.101 69.202 534.745 69.3607 535.305 69.678C535.865 69.9953 536.294 70.434 536.593 70.994C536.901 71.5447 537.055 72.17 537.055 72.87ZM535.739 72.604C535.739 72.1187 535.631 71.7033 535.417 71.358C535.202 71.0033 534.908 70.7373 534.535 70.56C534.171 70.3733 533.765 70.28 533.317 70.28C532.673 70.28 532.122 70.4853 531.665 70.896C531.217 71.3067 530.96 71.876 530.895 72.604H535.739ZM541.858 70.378H540.248V77H538.974V70.378H537.98V69.328H538.974V68.782C538.974 67.9233 539.194 67.298 539.632 66.906C540.08 66.5047 540.794 66.304 541.774 66.304V67.368C541.214 67.368 540.818 67.48 540.584 67.704C540.36 67.9187 540.248 68.278 540.248 68.782V69.328H541.858V70.378ZM544.002 68.082C543.759 68.082 543.554 67.998 543.386 67.83C543.218 67.662 543.134 67.4567 543.134 67.214C543.134 66.9713 543.218 66.766 543.386 66.598C543.554 66.43 543.759 66.346 544.002 66.346C544.235 66.346 544.431 66.43 544.59 66.598C544.758 66.766 544.842 66.9713 544.842 67.214C544.842 67.4567 544.758 67.662 544.59 67.83C544.431 67.998 544.235 68.082 544.002 68.082ZM544.618 69.328V77H543.344V69.328H544.618ZM546.313 73.15C546.313 72.3567 546.472 71.666 546.789 71.078C547.106 70.4807 547.545 70.0187 548.105 69.692C548.674 69.3653 549.323 69.202 550.051 69.202C550.994 69.202 551.768 69.4307 552.375 69.888C552.991 70.3453 553.397 70.98 553.593 71.792H552.221C552.09 71.3253 551.834 70.9567 551.451 70.686C551.078 70.4153 550.611 70.28 550.051 70.28C549.323 70.28 548.735 70.532 548.287 71.036C547.839 71.5307 547.615 72.2353 547.615 73.15C547.615 74.074 547.839 74.788 548.287 75.292C548.735 75.796 549.323 76.048 550.051 76.048C550.611 76.048 551.078 75.9173 551.451 75.656C551.824 75.3947 552.081 75.0213 552.221 74.536H553.593C553.388 75.32 552.977 75.95 552.361 76.426C551.745 76.8927 550.975 77.126 550.051 77.126C549.323 77.126 548.674 76.9627 548.105 76.636C547.545 76.3093 547.106 75.8473 546.789 75.25C546.472 74.6527 546.313 73.9527 546.313 73.15ZM555.951 68.082C555.708 68.082 555.503 67.998 555.335 67.83C555.167 67.662 555.083 67.4567 555.083 67.214C555.083 66.9713 555.167 66.766 555.335 66.598C555.503 66.43 555.708 66.346 555.951 66.346C556.184 66.346 556.38 66.43 556.539 66.598C556.707 66.766 556.791 66.9713 556.791 67.214C556.791 67.4567 556.707 67.662 556.539 67.83C556.38 67.998 556.184 68.082 555.951 68.082ZM556.567 69.328V77H555.293V69.328H556.567ZM558.262 73.136C558.262 72.352 558.421 71.666 558.738 71.078C559.055 70.4807 559.489 70.0187 560.04 69.692C560.6 69.3653 561.221 69.202 561.902 69.202C562.574 69.202 563.157 69.3467 563.652 69.636C564.147 69.9253 564.515 70.2893 564.758 70.728V69.328H566.046V77H564.758V75.572C564.506 76.02 564.128 76.3933 563.624 76.692C563.129 76.9813 562.551 77.126 561.888 77.126C561.207 77.126 560.591 76.958 560.04 76.622C559.489 76.286 559.055 75.8147 558.738 75.208C558.421 74.6013 558.262 73.9107 558.262 73.136ZM564.758 73.15C564.758 72.5713 564.641 72.0673 564.408 71.638C564.175 71.2087 563.857 70.882 563.456 70.658C563.064 70.4247 562.63 70.308 562.154 70.308C561.678 70.308 561.244 70.42 560.852 70.644C560.46 70.868 560.147 71.1947 559.914 71.624C559.681 72.0533 559.564 72.5573 559.564 73.136C559.564 73.724 559.681 74.2373 559.914 74.676C560.147 75.1053 560.46 75.4367 560.852 75.67C561.244 75.894 561.678 76.006 562.154 76.006C562.63 76.006 563.064 75.894 563.456 75.67C563.857 75.4367 564.175 75.1053 564.408 74.676C564.641 74.2373 564.758 73.7287 564.758 73.15ZM569.473 66.64V77H568.199V66.64H569.473ZM576.931 70.378V74.9C576.931 75.2733 577.01 75.5393 577.169 75.698C577.327 75.8473 577.603 75.922 577.995 75.922H578.933V77H577.785C577.075 77 576.543 76.8367 576.189 76.51C575.834 76.1833 575.657 75.6467 575.657 74.9V70.378H574.663V69.328H575.657V67.396H576.931V69.328H578.933V70.378H576.931ZM583.822 77.126C583.104 77.126 582.45 76.9627 581.862 76.636C581.284 76.3093 580.826 75.8473 580.49 75.25C580.164 74.6433 580 73.9433 580 73.15C580 72.366 580.168 71.6753 580.504 71.078C580.85 70.4713 581.316 70.0093 581.904 69.692C582.492 69.3653 583.15 69.202 583.878 69.202C584.606 69.202 585.264 69.3653 585.852 69.692C586.44 70.0093 586.902 70.4667 587.238 71.064C587.584 71.6613 587.756 72.3567 587.756 73.15C587.756 73.9433 587.579 74.6433 587.224 75.25C586.879 75.8473 586.408 76.3093 585.81 76.636C585.213 76.9627 584.55 77.126 583.822 77.126ZM583.822 76.006C584.28 76.006 584.709 75.8987 585.11 75.684C585.512 75.4693 585.834 75.1473 586.076 74.718C586.328 74.2887 586.454 73.766 586.454 73.15C586.454 72.534 586.333 72.0113 586.09 71.582C585.848 71.1527 585.53 70.8353 585.138 70.63C584.746 70.4153 584.322 70.308 583.864 70.308C583.398 70.308 582.968 70.4153 582.576 70.63C582.194 70.8353 581.886 71.1527 581.652 71.582C581.419 72.0113 581.302 72.534 581.302 73.15C581.302 73.7753 581.414 74.3027 581.638 74.732C581.872 75.1613 582.18 75.4833 582.562 75.698C582.945 75.9033 583.365 76.006 583.822 76.006ZM596.972 69.188C597.551 69.188 598.073 69.314 598.54 69.566C599.007 69.8087 599.371 70.1773 599.632 70.672C599.903 71.1667 600.038 71.7687 600.038 72.478V77H598.778V72.66C598.778 71.8947 598.587 71.3113 598.204 70.91C597.821 70.4993 597.299 70.294 596.636 70.294C595.964 70.294 595.427 70.504 595.026 70.924C594.634 71.344 594.438 71.9553 594.438 72.758V77H593.164V66.64H594.438V70.42C594.69 70.028 595.035 69.7247 595.474 69.51C595.922 69.2953 596.421 69.188 596.972 69.188ZM601.643 73.136C601.643 72.352 601.802 71.666 602.119 71.078C602.436 70.4807 602.87 70.0187 603.421 69.692C603.981 69.3653 604.602 69.202 605.283 69.202C605.955 69.202 606.538 69.3467 607.033 69.636C607.528 69.9253 607.896 70.2893 608.139 70.728V69.328H609.427V77H608.139V75.572C607.887 76.02 607.509 76.3933 607.005 76.692C606.51 76.9813 605.932 77.126 605.269 77.126C604.588 77.126 603.972 76.958 603.421 76.622C602.87 76.286 602.436 75.8147 602.119 75.208C601.802 74.6013 601.643 73.9107 601.643 73.136ZM608.139 73.15C608.139 72.5713 608.022 72.0673 607.789 71.638C607.556 71.2087 607.238 70.882 606.837 70.658C606.445 70.4247 606.011 70.308 605.535 70.308C605.059 70.308 604.625 70.42 604.233 70.644C603.841 70.868 603.528 71.1947 603.295 71.624C603.062 72.0533 602.945 72.5573 602.945 73.136C602.945 73.724 603.062 74.2373 603.295 74.676C603.528 75.1053 603.841 75.4367 604.233 75.67C604.625 75.894 605.059 76.006 605.535 76.006C606.011 76.006 606.445 75.894 606.837 75.67C607.238 75.4367 607.556 75.1053 607.789 74.676C608.022 74.2373 608.139 73.7287 608.139 73.15ZM614.436 75.824L616.816 69.328H618.174L615.164 77H613.68L610.67 69.328H612.042L614.436 75.824ZM626.428 72.87C626.428 73.1127 626.414 73.3693 626.386 73.64H620.254C620.3 74.396 620.557 74.9887 621.024 75.418C621.5 75.838 622.074 76.048 622.746 76.048C623.296 76.048 623.754 75.922 624.118 75.67C624.491 75.4087 624.752 75.0633 624.902 74.634H626.274C626.068 75.3713 625.658 75.9733 625.042 76.44C624.426 76.8973 623.66 77.126 622.746 77.126C622.018 77.126 621.364 76.9627 620.786 76.636C620.216 76.3093 619.768 75.8473 619.442 75.25C619.115 74.6433 618.952 73.9433 618.952 73.15C618.952 72.3567 619.11 71.6613 619.428 71.064C619.745 70.4667 620.188 70.0093 620.758 69.692C621.336 69.3653 621.999 69.202 622.746 69.202C623.474 69.202 624.118 69.3607 624.678 69.678C625.238 69.9953 625.667 70.434 625.966 70.994C626.274 71.5447 626.428 72.17 626.428 72.87ZM625.112 72.604C625.112 72.1187 625.004 71.7033 624.79 71.358C624.575 71.0033 624.281 70.7373 623.908 70.56C623.544 70.3733 623.138 70.28 622.69 70.28C622.046 70.28 621.495 70.4853 621.038 70.896C620.59 71.3067 620.333 71.876 620.268 72.604H625.112ZM631.366 73.136C631.366 72.352 631.524 71.666 631.842 71.078C632.159 70.4807 632.593 70.0187 633.144 69.692C633.704 69.3653 634.324 69.202 635.006 69.202C635.678 69.202 636.261 69.3467 636.756 69.636C637.25 69.9253 637.619 70.2893 637.862 70.728V69.328H639.15V77H637.862V75.572C637.61 76.02 637.232 76.3933 636.728 76.692C636.233 76.9813 635.654 77.126 634.992 77.126C634.31 77.126 633.694 76.958 633.144 76.622C632.593 76.286 632.159 75.8147 631.842 75.208C631.524 74.6013 631.366 73.9107 631.366 73.136ZM637.862 73.15C637.862 72.5713 637.745 72.0673 637.512 71.638C637.278 71.2087 636.961 70.882 636.56 70.658C636.168 70.4247 635.734 70.308 635.258 70.308C634.782 70.308 634.348 70.42 633.956 70.644C633.564 70.868 633.251 71.1947 633.018 71.624C632.784 72.0533 632.668 72.5573 632.668 73.136C632.668 73.724 632.784 74.2373 633.018 74.676C633.251 75.1053 633.564 75.4367 633.956 75.67C634.348 75.894 634.782 76.006 635.258 76.006C635.734 76.006 636.168 75.894 636.56 75.67C636.961 75.4367 637.278 75.1053 637.512 74.676C637.745 74.2373 637.862 73.7287 637.862 73.15ZM645.651 65.856L645.497 68.642H644.615L644.447 65.856H645.651ZM647.541 65.856L647.387 68.642H646.505L646.337 65.856H647.541ZM658.349 69.188C658.946 69.188 659.478 69.314 659.945 69.566C660.412 69.8087 660.78 70.1773 661.051 70.672C661.322 71.1667 661.457 71.7687 661.457 72.478V77H660.197V72.66C660.197 71.8947 660.006 71.3113 659.623 70.91C659.25 70.4993 658.741 70.294 658.097 70.294C657.434 70.294 656.907 70.5087 656.515 70.938C656.123 71.358 655.927 71.9693 655.927 72.772V77H654.667V72.66C654.667 71.8947 654.476 71.3113 654.093 70.91C653.72 70.4993 653.211 70.294 652.567 70.294C651.904 70.294 651.377 70.5087 650.985 70.938C650.593 71.358 650.397 71.9693 650.397 72.772V77H649.123V69.328H650.397V70.434C650.649 70.0327 650.985 69.7247 651.405 69.51C651.834 69.2953 652.306 69.188 652.819 69.188C653.463 69.188 654.032 69.3327 654.527 69.622C655.022 69.9113 655.39 70.336 655.633 70.896C655.848 70.3547 656.202 69.9347 656.697 69.636C657.192 69.3373 657.742 69.188 658.349 69.188ZM664.205 68.082C663.962 68.082 663.757 67.998 663.589 67.83C663.421 67.662 663.337 67.4567 663.337 67.214C663.337 66.9713 663.421 66.766 663.589 66.598C663.757 66.43 663.962 66.346 664.205 66.346C664.438 66.346 664.634 66.43 664.793 66.598C664.961 66.766 665.045 66.9713 665.045 67.214C665.045 67.4567 664.961 67.662 664.793 67.83C664.634 67.998 664.438 68.082 664.205 68.082ZM664.821 69.328V77H663.547V69.328H664.821ZM670.996 77L669.176 74.144L667.426 77H666.096L668.574 73.192L666.096 69.328H667.538L669.358 72.17L671.094 69.328H672.424L669.96 73.122L672.438 77H670.996ZM674.307 65.856L674.153 68.642H673.271L673.103 65.856H674.307ZM676.197 65.856L676.043 68.642H675.161L674.993 65.856H676.197ZM684.858 77.126C684.139 77.126 683.486 76.9627 682.898 76.636C682.319 76.3093 681.862 75.8473 681.526 75.25C681.199 74.6433 681.036 73.9433 681.036 73.15C681.036 72.366 681.204 71.6753 681.54 71.078C681.885 70.4713 682.352 70.0093 682.94 69.692C683.528 69.3653 684.186 69.202 684.914 69.202C685.642 69.202 686.3 69.3653 686.888 69.692C687.476 70.0093 687.938 70.4667 688.274 71.064C688.619 71.6613 688.792 72.3567 688.792 73.15C688.792 73.9433 688.614 74.6433 688.26 75.25C687.914 75.8473 687.443 76.3093 686.846 76.636C686.248 76.9627 685.586 77.126 684.858 77.126ZM684.858 76.006C685.315 76.006 685.744 75.8987 686.146 75.684C686.547 75.4693 686.869 75.1473 687.112 74.718C687.364 74.2887 687.49 73.766 687.49 73.15C687.49 72.534 687.368 72.0113 687.126 71.582C686.883 71.1527 686.566 70.8353 686.174 70.63C685.782 70.4153 685.357 70.308 684.9 70.308C684.433 70.308 684.004 70.4153 683.612 70.63C683.229 70.8353 682.921 71.1527 682.688 71.582C682.454 72.0113 682.338 72.534 682.338 73.15C682.338 73.7753 682.45 74.3027 682.674 74.732C682.907 75.1613 683.215 75.4833 683.598 75.698C683.98 75.9033 684.4 76.006 684.858 76.006ZM693.589 70.378H691.979V77H690.705V70.378H689.711V69.328H690.705V68.782C690.705 67.9233 690.924 67.298 691.363 66.906C691.811 66.5047 692.525 66.304 693.505 66.304V67.368C692.945 67.368 692.548 67.48 692.315 67.704C692.091 67.9187 691.979 68.278 691.979 68.782V69.328H693.589V70.378ZM698.331 73.15C698.331 72.3567 698.489 71.666 698.807 71.078C699.124 70.4807 699.563 70.0187 700.123 69.692C700.692 69.3653 701.341 69.202 702.069 69.202C703.011 69.202 703.786 69.4307 704.393 69.888C705.009 70.3453 705.415 70.98 705.611 71.792H704.239C704.108 71.3253 703.851 70.9567 703.469 70.686C703.095 70.4153 702.629 70.28 702.069 70.28C701.341 70.28 700.753 70.532 700.305 71.036C699.857 71.5307 699.633 72.2353 699.633 73.15C699.633 74.074 699.857 74.788 700.305 75.292C700.753 75.796 701.341 76.048 702.069 76.048C702.629 76.048 703.095 75.9173 703.469 75.656C703.842 75.3947 704.099 75.0213 704.239 74.536H705.611C705.405 75.32 704.995 75.95 704.379 76.426C703.763 76.8927 702.993 77.126 702.069 77.126C701.341 77.126 700.692 76.9627 700.123 76.636C699.563 76.3093 699.124 75.8473 698.807 75.25C698.489 74.6527 698.331 73.9527 698.331 73.15ZM708.584 70.574C708.808 70.1353 709.126 69.7947 709.536 69.552C709.956 69.3093 710.465 69.188 711.062 69.188V70.504H710.726C709.298 70.504 708.584 71.2787 708.584 72.828V77H707.31V69.328H708.584V70.574ZM719.533 72.87C719.533 73.1127 719.519 73.3693 719.491 73.64H713.359C713.406 74.396 713.662 74.9887 714.129 75.418C714.605 75.838 715.179 76.048 715.851 76.048C716.402 76.048 716.859 75.922 717.223 75.67C717.596 75.4087 717.858 75.0633 718.007 74.634H719.379C719.174 75.3713 718.763 75.9733 718.147 76.44C717.531 76.8973 716.766 77.126 715.851 77.126C715.123 77.126 714.47 76.9627 713.891 76.636C713.322 76.3093 712.874 75.8473 712.547 75.25C712.22 74.6433 712.057 73.9433 712.057 73.15C712.057 72.3567 712.216 71.6613 712.533 71.064C712.85 70.4667 713.294 70.0093 713.863 69.692C714.442 69.3653 715.104 69.202 715.851 69.202C716.579 69.202 717.223 69.3607 717.783 69.678C718.343 69.9953 718.772 70.434 719.071 70.994C719.379 71.5447 719.533 72.17 719.533 72.87ZM718.217 72.604C718.217 72.1187 718.11 71.7033 717.895 71.358C717.68 71.0033 717.386 70.7373 717.013 70.56C716.649 70.3733 716.243 70.28 715.795 70.28C715.151 70.28 714.6 70.4853 714.143 70.896C713.695 71.3067 713.438 71.876 713.373 72.604H718.217ZM720.739 73.136C720.739 72.352 720.897 71.666 721.215 71.078C721.532 70.4807 721.966 70.0187 722.517 69.692C723.077 69.3653 723.702 69.202 724.393 69.202C724.99 69.202 725.545 69.342 726.059 69.622C726.572 69.8927 726.964 70.252 727.235 70.7V66.64H728.523V77H727.235V75.558C726.983 76.0153 726.609 76.3933 726.115 76.692C725.62 76.9813 725.041 77.126 724.379 77.126C723.697 77.126 723.077 76.958 722.517 76.622C721.966 76.286 721.532 75.8147 721.215 75.208C720.897 74.6013 720.739 73.9107 720.739 73.136ZM727.235 73.15C727.235 72.5713 727.118 72.0673 726.885 71.638C726.651 71.2087 726.334 70.882 725.933 70.658C725.541 70.4247 725.107 70.308 724.631 70.308C724.155 70.308 723.721 70.42 723.329 70.644C722.937 70.868 722.624 71.1947 722.391 71.624C722.157 72.0533 722.041 72.5573 722.041 73.136C722.041 73.724 722.157 74.2373 722.391 74.676C722.624 75.1053 722.937 75.4367 723.329 75.67C723.721 75.894 724.155 76.006 724.631 76.006C725.107 76.006 725.541 75.894 725.933 75.67C726.334 75.4367 726.651 75.1053 726.885 74.676C727.118 74.2373 727.235 73.7287 727.235 73.15ZM731.334 68.082C731.091 68.082 730.886 67.998 730.718 67.83C730.55 67.662 730.466 67.4567 730.466 67.214C730.466 66.9713 730.55 66.766 730.718 66.598C730.886 66.43 731.091 66.346 731.334 66.346C731.567 66.346 731.763 66.43 731.922 66.598C732.09 66.766 732.174 66.9713 732.174 67.214C732.174 67.4567 732.09 67.662 731.922 67.83C731.763 67.998 731.567 68.082 731.334 68.082ZM731.95 69.328V77H730.676V69.328H731.95ZM735.675 70.378V74.9C735.675 75.2733 735.754 75.5393 735.913 75.698C736.072 75.8473 736.347 75.922 736.739 75.922H737.677V77H736.529C735.82 77 735.288 76.8367 734.933 76.51C734.578 76.1833 734.401 75.6467 734.401 74.9V70.378H733.407V69.328H734.401V67.396H735.675V69.328H737.677V70.378H735.675ZM744.507 70.378V74.9C744.507 75.2733 744.586 75.5393 744.745 75.698C744.904 75.8473 745.179 75.922 745.571 75.922H746.509V77H745.361C744.652 77 744.12 76.8367 743.765 76.51C743.41 76.1833 743.233 75.6467 743.233 74.9V70.378H742.239V69.328H743.233V67.396H744.507V69.328H746.509V70.378H744.507ZM754.661 69.328L750.041 80.612H748.725L750.237 76.916L747.143 69.328H748.557L750.965 75.544L753.345 69.328H754.661ZM757.215 70.742C757.467 70.3033 757.841 69.9393 758.335 69.65C758.839 69.3513 759.423 69.202 760.085 69.202C760.767 69.202 761.383 69.3653 761.933 69.692C762.493 70.0187 762.932 70.4807 763.249 71.078C763.567 71.666 763.725 72.352 763.725 73.136C763.725 73.9107 763.567 74.6013 763.249 75.208C762.932 75.8147 762.493 76.286 761.933 76.622C761.383 76.958 760.767 77.126 760.085 77.126C759.432 77.126 758.853 76.9813 758.349 76.692C757.855 76.3933 757.477 76.0247 757.215 75.586V80.64H755.941V69.328H757.215V70.742ZM762.423 73.136C762.423 72.5573 762.307 72.0533 762.073 71.624C761.84 71.1947 761.523 70.868 761.121 70.644C760.729 70.42 760.295 70.308 759.819 70.308C759.353 70.308 758.919 70.4247 758.517 70.658C758.125 70.882 757.808 71.2133 757.565 71.652C757.332 72.0813 757.215 72.5807 757.215 73.15C757.215 73.7287 757.332 74.2373 757.565 74.676C757.808 75.1053 758.125 75.4367 758.517 75.67C758.919 75.894 759.353 76.006 759.819 76.006C760.295 76.006 760.729 75.894 761.121 75.67C761.523 75.4367 761.84 75.1053 762.073 74.676C762.307 74.2373 762.423 73.724 762.423 73.136ZM772.402 72.87C772.402 73.1127 772.388 73.3693 772.36 73.64H766.228C766.275 74.396 766.532 74.9887 766.998 75.418C767.474 75.838 768.048 76.048 768.72 76.048C769.271 76.048 769.728 75.922 770.092 75.67C770.466 75.4087 770.727 75.0633 770.876 74.634H772.248C772.043 75.3713 771.632 75.9733 771.016 76.44C770.4 76.8973 769.635 77.126 768.72 77.126C767.992 77.126 767.339 76.9627 766.76 76.636C766.191 76.3093 765.743 75.8473 765.416 75.25C765.09 74.6433 764.926 73.9433 764.926 73.15C764.926 72.3567 765.085 71.6613 765.402 71.064C765.72 70.4667 766.163 70.0093 766.732 69.692C767.311 69.3653 767.974 69.202 768.72 69.202C769.448 69.202 770.092 69.3607 770.652 69.678C771.212 69.9953 771.642 70.434 771.94 70.994C772.248 71.5447 772.402 72.17 772.402 72.87ZM771.086 72.604C771.086 72.1187 770.979 71.7033 770.764 71.358C770.55 71.0033 770.256 70.7373 769.882 70.56C769.518 70.3733 769.112 70.28 768.664 70.28C768.02 70.28 767.47 70.4853 767.012 70.896C766.564 71.3067 766.308 71.876 766.242 72.604H771.086ZM776.8 77.126C776.212 77.126 775.685 77.028 775.218 76.832C774.751 76.6267 774.383 76.3467 774.112 75.992C773.841 75.628 773.692 75.2127 773.664 74.746H774.98C775.017 75.1287 775.195 75.4413 775.512 75.684C775.839 75.9267 776.263 76.048 776.786 76.048C777.271 76.048 777.654 75.9407 777.934 75.726C778.214 75.5113 778.354 75.2407 778.354 74.914C778.354 74.578 778.205 74.3307 777.906 74.172C777.607 74.004 777.145 73.8407 776.52 73.682C775.951 73.5327 775.484 73.3833 775.12 73.234C774.765 73.0753 774.457 72.8467 774.196 72.548C773.944 72.24 773.818 71.8387 773.818 71.344C773.818 70.952 773.935 70.5927 774.168 70.266C774.401 69.9393 774.733 69.6827 775.162 69.496C775.591 69.3 776.081 69.202 776.632 69.202C777.481 69.202 778.167 69.4167 778.69 69.846C779.213 70.2753 779.493 70.8633 779.53 71.61H778.256C778.228 71.2087 778.065 70.8867 777.766 70.644C777.477 70.4013 777.085 70.28 776.59 70.28C776.133 70.28 775.769 70.378 775.498 70.574C775.227 70.77 775.092 71.0267 775.092 71.344C775.092 71.596 775.171 71.806 775.33 71.974C775.498 72.1327 775.703 72.2633 775.946 72.366C776.198 72.4593 776.543 72.5667 776.982 72.688C777.533 72.8373 777.981 72.9867 778.326 73.136C778.671 73.276 778.965 73.4907 779.208 73.78C779.46 74.0693 779.591 74.4473 779.6 74.914C779.6 75.334 779.483 75.712 779.25 76.048C779.017 76.384 778.685 76.65 778.256 76.846C777.836 77.0327 777.351 77.126 776.8 77.126ZM781.804 77.084C781.562 77.084 781.356 77 781.188 76.832C781.02 76.664 780.936 76.4587 780.936 76.216C780.936 75.9733 781.02 75.768 781.188 75.6C781.356 75.432 781.562 75.348 781.804 75.348C782.038 75.348 782.234 75.432 782.392 75.6C782.56 75.768 782.644 75.9733 782.644 76.216C782.644 76.4587 782.56 76.664 782.392 76.832C782.234 77 782.038 77.084 781.804 77.084Z" fill="#9A9A9A"></path><rect x="20" y="103" width="1130" height="539" rx="20" fill="#F5F5FA"></rect><path d="M51.664 132.936V145.5H49.144V140.154H43.762V145.5H41.242V132.936H43.762V138.102H49.144V132.936H51.664ZM58.5723 145.662C57.6123 145.662 56.7483 145.452 55.9803 145.032C55.2123 144.6 54.6063 143.994 54.1623 143.214C53.7303 142.434 53.5143 141.534 53.5143 140.514C53.5143 139.494 53.7363 138.594 54.1803 137.814C54.6363 137.034 55.2543 136.434 56.0343 136.014C56.8143 135.582 57.6843 135.366 58.6443 135.366C59.6043 135.366 60.4743 135.582 61.2543 136.014C62.0343 136.434 62.6463 137.034 63.0903 137.814C63.5463 138.594 63.7743 139.494 63.7743 140.514C63.7743 141.534 63.5403 142.434 63.0723 143.214C62.6163 143.994 61.9923 144.6 61.2003 145.032C60.4203 145.452 59.5443 145.662 58.5723 145.662ZM58.5723 143.466C59.0283 143.466 59.4543 143.358 59.8503 143.142C60.2583 142.914 60.5823 142.578 60.8223 142.134C61.0623 141.69 61.1823 141.15 61.1823 140.514C61.1823 139.566 60.9303 138.84 60.4263 138.336C59.9343 137.82 59.3283 137.562 58.6083 137.562C57.8883 137.562 57.2823 137.82 56.7903 138.336C56.3103 138.84 56.0703 139.566 56.0703 140.514C56.0703 141.462 56.3043 142.194 56.7723 142.71C57.2523 143.214 57.8523 143.466 58.5723 143.466ZM78.0069 135.384C79.2309 135.384 80.2149 135.762 80.9589 136.518C81.7149 137.262 82.0929 138.306 82.0929 139.65V145.5H79.5729V139.992C79.5729 139.212 79.3749 138.618 78.9789 138.21C78.5829 137.79 78.0429 137.58 77.3589 137.58C76.6749 137.58 76.1289 137.79 75.7209 138.21C75.3249 138.618 75.1269 139.212 75.1269 139.992V145.5H72.6069V139.992C72.6069 139.212 72.4089 138.618 72.0129 138.21C71.6169 137.79 71.0769 137.58 70.3929 137.58C69.6969 137.58 69.1449 137.79 68.7369 138.21C68.3409 138.618 68.1429 139.212 68.1429 139.992V145.5H65.6229V135.528H68.1429V136.734C68.4669 136.314 68.8809 135.984 69.3849 135.744C69.9009 135.504 70.4649 135.384 71.0769 135.384C71.8569 135.384 72.5529 135.552 73.1649 135.888C73.7769 136.212 74.2509 136.68 74.5869 137.292C74.9109 136.716 75.3789 136.254 75.9909 135.906C76.6149 135.558 77.2869 135.384 78.0069 135.384ZM93.7542 140.298C93.7542 140.658 93.7302 140.982 93.6822 141.27H86.3922C86.4522 141.99 86.7042 142.554 87.1482 142.962C87.5922 143.37 88.1382 143.574 88.7862 143.574C89.7222 143.574 90.3882 143.172 90.7842 142.368H93.5022C93.2142 143.328 92.6622 144.12 91.8462 144.744C91.0302 145.356 90.0282 145.662 88.8402 145.662C87.8802 145.662 87.0162 145.452 86.2482 145.032C85.4922 144.6 84.8982 143.994 84.4662 143.214C84.0462 142.434 83.8362 141.534 83.8362 140.514C83.8362 139.482 84.0462 138.576 84.4662 137.796C84.8862 137.016 85.4742 136.416 86.2302 135.996C86.9862 135.576 87.8562 135.366 88.8402 135.366C89.7882 135.366 90.6342 135.57 91.3782 135.978C92.1342 136.386 92.7162 136.968 93.1242 137.724C93.5442 138.468 93.7542 139.326 93.7542 140.298ZM91.1442 139.578C91.1322 138.93 90.8982 138.414 90.4422 138.03C89.9862 137.634 89.4282 137.436 88.7682 137.436C88.1442 137.436 87.6162 137.628 87.1842 138.012C86.7642 138.384 86.5062 138.906 86.4102 139.578H91.1442ZM102.403 143.502H106.543V145.5H99.8826V132.936H102.403V143.502ZM112.572 145.662C111.612 145.662 110.748 145.452 109.98 145.032C109.212 144.6 108.606 143.994 108.162 143.214C107.73 142.434 107.514 141.534 107.514 140.514C107.514 139.494 107.736 138.594 108.18 137.814C108.636 137.034 109.254 136.434 110.034 136.014C110.814 135.582 111.684 135.366 112.644 135.366C113.604 135.366 114.474 135.582 115.254 136.014C116.034 136.434 116.646 137.034 117.09 137.814C117.546 138.594 117.774 139.494 117.774 140.514C117.774 141.534 117.54 142.434 117.072 143.214C116.616 143.994 115.992 144.6 115.2 145.032C114.42 145.452 113.544 145.662 112.572 145.662ZM112.572 143.466C113.028 143.466 113.454 143.358 113.85 143.142C114.258 142.914 114.582 142.578 114.822 142.134C115.062 141.69 115.182 141.15 115.182 140.514C115.182 139.566 114.93 138.84 114.426 138.336C113.934 137.82 113.328 137.562 112.608 137.562C111.888 137.562 111.282 137.82 110.79 138.336C110.31 138.84 110.07 139.566 110.07 140.514C110.07 141.462 110.304 142.194 110.772 142.71C111.252 143.214 111.852 143.466 112.572 143.466ZM118.975 140.478C118.975 139.47 119.173 138.576 119.569 137.796C119.977 137.016 120.523 136.416 121.207 135.996C121.903 135.576 122.677 135.366 123.529 135.366C124.273 135.366 124.921 135.516 125.473 135.816C126.037 136.116 126.487 136.494 126.823 136.95V135.528H129.361V145.5H126.823V144.042C126.499 144.51 126.049 144.9 125.473 145.212C124.909 145.512 124.255 145.662 123.511 145.662C122.671 145.662 121.903 145.446 121.207 145.014C120.523 144.582 119.977 143.976 119.569 143.196C119.173 142.404 118.975 141.498 118.975 140.478ZM126.823 140.514C126.823 139.902 126.703 139.38 126.463 138.948C126.223 138.504 125.899 138.168 125.491 137.94C125.083 137.7 124.645 137.58 124.177 137.58C123.709 137.58 123.277 137.694 122.881 137.922C122.485 138.15 122.161 138.486 121.909 138.93C121.669 139.362 121.549 139.878 121.549 140.478C121.549 141.078 121.669 141.606 121.909 142.062C122.161 142.506 122.485 142.848 122.881 143.088C123.289 143.328 123.721 143.448 124.177 143.448C124.645 143.448 125.083 143.334 125.491 143.106C125.899 142.866 126.223 142.53 126.463 142.098C126.703 141.654 126.823 141.126 126.823 140.514ZM137.348 135.384C138.536 135.384 139.496 135.762 140.228 136.518C140.96 137.262 141.326 138.306 141.326 139.65V145.5H138.806V139.992C138.806 139.2 138.608 138.594 138.212 138.174C137.816 137.742 137.276 137.526 136.592 137.526C135.896 137.526 135.344 137.742 134.936 138.174C134.54 138.594 134.342 139.2 134.342 139.992V145.5H131.822V135.528H134.342V136.77C134.678 136.338 135.104 136.002 135.62 135.762C136.148 135.51 136.724 135.384 137.348 135.384ZM147.538 145.662C146.722 145.662 145.99 145.518 145.342 145.23C144.694 144.93 144.178 144.528 143.794 144.024C143.422 143.52 143.218 142.962 143.182 142.35H145.72C145.768 142.734 145.954 143.052 146.278 143.304C146.614 143.556 147.028 143.682 147.52 143.682C148 143.682 148.372 143.586 148.636 143.394C148.912 143.202 149.05 142.956 149.05 142.656C149.05 142.332 148.882 142.092 148.546 141.936C148.222 141.768 147.7 141.588 146.98 141.396C146.236 141.216 145.624 141.03 145.144 140.838C144.676 140.646 144.268 140.352 143.92 139.956C143.584 139.56 143.416 139.026 143.416 138.354C143.416 137.802 143.572 137.298 143.884 136.842C144.208 136.386 144.664 136.026 145.252 135.762C145.852 135.498 146.554 135.366 147.358 135.366C148.546 135.366 149.494 135.666 150.202 136.266C150.91 136.854 151.3 137.652 151.372 138.66H148.96C148.924 138.264 148.756 137.952 148.456 137.724C148.168 137.484 147.778 137.364 147.286 137.364C146.83 137.364 146.476 137.448 146.224 137.616C145.984 137.784 145.864 138.018 145.864 138.318C145.864 138.654 146.032 138.912 146.368 139.092C146.704 139.26 147.226 139.434 147.934 139.614C148.654 139.794 149.248 139.98 149.716 140.172C150.184 140.364 150.586 140.664 150.922 141.072C151.27 141.468 151.45 141.996 151.462 142.656C151.462 143.232 151.3 143.748 150.976 144.204C150.664 144.66 150.208 145.02 149.608 145.284C149.02 145.536 148.33 145.662 147.538 145.662ZM162.176 149.046C161.012 147.918 160.106 146.478 159.458 144.726C158.822 142.974 158.504 141.096 158.504 139.092C158.504 137.04 158.84 135.114 159.512 133.314C160.184 131.502 161.162 130.02 162.446 128.868H164.984V129.102C163.664 130.362 162.656 131.874 161.96 133.638C161.276 135.402 160.934 137.22 160.934 139.092C160.934 140.916 161.258 142.68 161.906 144.384C162.566 146.076 163.502 147.546 164.714 148.794V149.046H162.176ZM165.962 134.7V132.378H170.3V145.5H167.708V134.7H165.962ZM172.43 149.046V148.794C173.642 147.546 174.572 146.076 175.22 144.384C175.88 142.68 176.21 140.916 176.21 139.092C176.21 137.22 175.862 135.402 175.166 133.638C174.482 131.874 173.48 130.362 172.16 129.102V128.868H174.698C175.982 130.02 176.96 131.502 177.632 133.314C178.304 135.114 178.64 137.04 178.64 139.092C178.64 141.096 178.316 142.974 177.668 144.726C177.032 146.478 176.132 147.918 174.968 149.046H172.43Z" fill="#353535"></path><path d="M211.902 130C213.057 128 215.943 128 217.098 130L223.593 141.25C224.748 143.25 223.305 145.75 220.995 145.75H208.005C205.695 145.75 204.252 143.25 205.407 141.25L211.902 130Z" fill="#FE3B36"></path><path d="M215.303 133.77L215.121 140.56H213.791L213.609 133.77H215.303ZM214.505 143.598C214.216 143.598 213.973 143.5 213.777 143.304C213.581 143.108 213.483 142.865 213.483 142.576C213.483 142.287 213.581 142.044 213.777 141.848C213.973 141.652 214.216 141.554 214.505 141.554C214.785 141.554 215.023 141.652 215.219 141.848C215.415 142.044 215.513 142.287 215.513 142.576C215.513 142.865 215.415 143.108 215.219 143.304C215.023 143.5 214.785 143.598 214.505 143.598Z" fill="white"></path><path d="M233.714 142.478C234.899 141.526 235.828 140.747 236.5 140.14C237.172 139.524 237.737 138.885 238.194 138.222C238.661 137.55 238.894 136.892 238.894 136.248C238.894 135.641 238.745 135.165 238.446 134.82C238.157 134.465 237.685 134.288 237.032 134.288C236.397 134.288 235.903 134.489 235.548 134.89C235.203 135.282 235.016 135.809 234.988 136.472H233.756C233.793 135.427 234.111 134.619 234.708 134.05C235.305 133.481 236.075 133.196 237.018 133.196C237.979 133.196 238.74 133.462 239.3 133.994C239.869 134.526 240.154 135.259 240.154 136.192C240.154 136.967 239.921 137.723 239.454 138.46C238.997 139.188 238.474 139.832 237.886 140.392C237.298 140.943 236.547 141.587 235.632 142.324H240.448V143.388H233.714V142.478ZM253.535 143.5H252.261L247.137 135.73V143.5H245.863V133.728H247.137L252.261 141.484V133.728H253.535V143.5ZM262.707 139.37C262.707 139.613 262.693 139.869 262.665 140.14H256.533C256.58 140.896 256.836 141.489 257.303 141.918C257.779 142.338 258.353 142.548 259.025 142.548C259.576 142.548 260.033 142.422 260.397 142.17C260.77 141.909 261.032 141.563 261.181 141.134H262.553C262.348 141.871 261.937 142.473 261.321 142.94C260.705 143.397 259.94 143.626 259.025 143.626C258.297 143.626 257.644 143.463 257.065 143.136C256.496 142.809 256.048 142.347 255.721 141.75C255.394 141.143 255.231 140.443 255.231 139.65C255.231 138.857 255.39 138.161 255.707 137.564C256.024 136.967 256.468 136.509 257.037 136.192C257.616 135.865 258.278 135.702 259.025 135.702C259.753 135.702 260.397 135.861 260.957 136.178C261.517 136.495 261.946 136.934 262.245 137.494C262.553 138.045 262.707 138.67 262.707 139.37ZM261.391 139.104C261.391 138.619 261.284 138.203 261.069 137.858C260.854 137.503 260.56 137.237 260.187 137.06C259.823 136.873 259.417 136.78 258.969 136.78C258.325 136.78 257.774 136.985 257.317 137.396C256.869 137.807 256.612 138.376 256.547 139.104H261.391ZM271.389 139.37C271.389 139.613 271.375 139.869 271.347 140.14H265.215C265.261 140.896 265.518 141.489 265.985 141.918C266.461 142.338 267.035 142.548 267.707 142.548C268.257 142.548 268.715 142.422 269.079 142.17C269.452 141.909 269.713 141.563 269.863 141.134H271.235C271.029 141.871 270.619 142.473 270.003 142.94C269.387 143.397 268.621 143.626 267.707 143.626C266.979 143.626 266.325 143.463 265.747 143.136C265.177 142.809 264.729 142.347 264.403 141.75C264.076 141.143 263.913 140.443 263.913 139.65C263.913 138.857 264.071 138.161 264.389 137.564C264.706 136.967 265.149 136.509 265.719 136.192C266.297 135.865 266.96 135.702 267.707 135.702C268.435 135.702 269.079 135.861 269.639 136.178C270.199 136.495 270.628 136.934 270.927 137.494C271.235 138.045 271.389 138.67 271.389 139.37ZM270.073 139.104C270.073 138.619 269.965 138.203 269.751 137.858C269.536 137.503 269.242 137.237 268.869 137.06C268.505 136.873 268.099 136.78 267.651 136.78C267.007 136.78 266.456 136.985 265.999 137.396C265.551 137.807 265.294 138.376 265.229 139.104H270.073ZM272.594 139.636C272.594 138.852 272.753 138.166 273.07 137.578C273.388 136.981 273.822 136.519 274.372 136.192C274.932 135.865 275.558 135.702 276.248 135.702C276.846 135.702 277.401 135.842 277.914 136.122C278.428 136.393 278.82 136.752 279.09 137.2V133.14H280.378V143.5H279.09V142.058C278.838 142.515 278.465 142.893 277.97 143.192C277.476 143.481 276.897 143.626 276.234 143.626C275.553 143.626 274.932 143.458 274.372 143.122C273.822 142.786 273.388 142.315 273.07 141.708C272.753 141.101 272.594 140.411 272.594 139.636ZM279.09 139.65C279.09 139.071 278.974 138.567 278.74 138.138C278.507 137.709 278.19 137.382 277.788 137.158C277.396 136.925 276.962 136.808 276.486 136.808C276.01 136.808 275.576 136.92 275.184 137.144C274.792 137.368 274.48 137.695 274.246 138.124C274.013 138.553 273.896 139.057 273.896 139.636C273.896 140.224 274.013 140.737 274.246 141.176C274.48 141.605 274.792 141.937 275.184 142.17C275.576 142.394 276.01 142.506 276.486 142.506C276.962 142.506 277.396 142.394 277.788 142.17C278.19 141.937 278.507 141.605 278.74 141.176C278.974 140.737 279.09 140.229 279.09 139.65ZM291.402 143.5L289.078 139.51H287.538V143.5H286.264V133.742H289.414C290.151 133.742 290.772 133.868 291.276 134.12C291.789 134.372 292.172 134.713 292.424 135.142C292.676 135.571 292.802 136.061 292.802 136.612C292.802 137.284 292.606 137.877 292.214 138.39C291.831 138.903 291.252 139.244 290.478 139.412L292.928 143.5H291.402ZM287.538 138.488H289.414C290.104 138.488 290.622 138.32 290.968 137.984C291.313 137.639 291.486 137.181 291.486 136.612C291.486 136.033 291.313 135.585 290.968 135.268C290.632 134.951 290.114 134.792 289.414 134.792H287.538V138.488ZM301.781 139.37C301.781 139.613 301.767 139.869 301.739 140.14H295.607C295.654 140.896 295.91 141.489 296.377 141.918C296.853 142.338 297.427 142.548 298.099 142.548C298.65 142.548 299.107 142.422 299.471 142.17C299.844 141.909 300.106 141.563 300.255 141.134H301.627C301.422 141.871 301.011 142.473 300.395 142.94C299.779 143.397 299.014 143.626 298.099 143.626C297.371 143.626 296.718 143.463 296.139 143.136C295.57 142.809 295.122 142.347 294.795 141.75C294.468 141.143 294.305 140.443 294.305 139.65C294.305 138.857 294.464 138.161 294.781 137.564C295.098 136.967 295.542 136.509 296.111 136.192C296.69 135.865 297.352 135.702 298.099 135.702C298.827 135.702 299.471 135.861 300.031 136.178C300.591 136.495 301.02 136.934 301.319 137.494C301.627 138.045 301.781 138.67 301.781 139.37ZM300.465 139.104C300.465 138.619 300.358 138.203 300.143 137.858C299.928 137.503 299.634 137.237 299.261 137.06C298.897 136.873 298.491 136.78 298.043 136.78C297.399 136.78 296.848 136.985 296.391 137.396C295.943 137.807 295.686 138.376 295.621 139.104H300.465ZM306.319 142.324L308.699 135.828H310.057L307.047 143.5H305.563L302.553 135.828H303.925L306.319 142.324ZM311.968 134.582C311.726 134.582 311.52 134.498 311.352 134.33C311.184 134.162 311.1 133.957 311.1 133.714C311.1 133.471 311.184 133.266 311.352 133.098C311.52 132.93 311.726 132.846 311.968 132.846C312.202 132.846 312.398 132.93 312.556 133.098C312.724 133.266 312.808 133.471 312.808 133.714C312.808 133.957 312.724 134.162 312.556 134.33C312.398 134.498 312.202 134.582 311.968 134.582ZM312.584 135.828V143.5H311.31V135.828H312.584ZM321.756 139.37C321.756 139.613 321.742 139.869 321.714 140.14H315.582C315.628 140.896 315.885 141.489 316.352 141.918C316.828 142.338 317.402 142.548 318.074 142.548C318.624 142.548 319.082 142.422 319.446 142.17C319.819 141.909 320.08 141.563 320.23 141.134H321.602C321.396 141.871 320.986 142.473 320.37 142.94C319.754 143.397 318.988 143.626 318.074 143.626C317.346 143.626 316.692 143.463 316.114 143.136C315.544 142.809 315.096 142.347 314.77 141.75C314.443 141.143 314.28 140.443 314.28 139.65C314.28 138.857 314.438 138.161 314.756 137.564C315.073 136.967 315.516 136.509 316.086 136.192C316.664 135.865 317.327 135.702 318.074 135.702C318.802 135.702 319.446 135.861 320.006 136.178C320.566 136.495 320.995 136.934 321.294 137.494C321.602 138.045 321.756 138.67 321.756 139.37ZM320.44 139.104C320.44 138.619 320.332 138.203 320.118 137.858C319.903 137.503 319.609 137.237 319.236 137.06C318.872 136.873 318.466 136.78 318.018 136.78C317.374 136.78 316.823 136.985 316.366 137.396C315.918 137.807 315.661 138.376 315.596 139.104H320.44ZM333.657 135.828L331.263 143.5H329.947L328.099 137.41L326.251 143.5H324.935L322.527 135.828H323.829L325.593 142.268L327.497 135.828H328.799L330.661 142.282L332.397 135.828H333.657Z" fill="#FE3B36"></path></g><defs><filter id="filter0_d_413_1449" x="0" y="0" width="1170" height="1324" filterUnits="userSpaceOnUse" color-interpolation-filters="sRGB"><feFlood flood-opacity="0" result="BackgroundImageFix"></feFlood><feColorMatrix in="SourceAlpha" type="matrix" values="0 0 0 0 0 0 0 0 0 0 0 0 0 0 0 0 0 0 127 0" result="hardAlpha"></feColorMatrix><feMorphology radius="15" operator="erode" in="SourceAlpha" result="effect1_dropShadow_413_1449"></feMorphology><feOffset dy="3"></feOffset><feGaussianBlur stdDeviation="7"></feGaussianBlur><feComposite in2="hardAlpha" operator="out"></feComposite><feColorMatrix type="matrix" values="0 0 0 0 0 0 0 0 0 0 0 0 0 0 0 0 0 0 0.1 0"></feColorMatrix><feBlend mode="normal" in2="BackgroundImageFix" result="effect1_dropShadow_413_1449"></feBlend><feBlend mode="normal" in="SourceGraphic" in2="effect1_dropShadow_413_1449" result="shape"></feBlend></filter></defs></svg> 