<?xml version="1.0" encoding="UTF-8"?> <svg xmlns="http://www.w3.org/2000/svg" width="50" height="50" viewBox="0 0 50 50" fill="none"><path fill-rule="evenodd" clip-rule="evenodd" d="M23.7803 14.6449C22.8677 14.6449 21.9344 14.7118 20.9937 14.8485C19.9939 14.9938 19.0657 14.3011 18.9204 13.3013C18.7751 12.3015 19.4677 11.3733 20.4675 11.228C21.5804 11.0662 22.6896 10.9863 23.7803 10.9863C24.9393 10.9863 26.0817 11.0616 27.2025 11.2078C28.2043 11.3385 28.9105 12.2565 28.7798 13.2583C28.6492 14.2601 27.7311 14.9663 26.7293 14.8357C25.765 14.7099 24.7807 14.6449 23.7803 14.6449ZM31.4269 13.9656C31.8139 13.0324 32.8842 12.5895 33.8174 12.9765C35.95 13.8608 37.9399 15.018 39.7435 16.4041C40.5446 17.0197 40.695 18.1681 40.0794 18.9692C39.4638 19.7702 38.3154 19.9206 37.5143 19.305C35.9612 18.1116 34.2492 17.1162 32.416 16.356C31.4828 15.9691 31.04 14.8988 31.4269 13.9656ZM16.54 13.9951C16.9544 14.9165 16.5435 15.9994 15.6222 16.4139C13.9582 17.1624 12.3623 18.154 10.91 19.4007C10.1434 20.0588 8.98854 19.9708 8.33048 19.2042C7.67242 18.4377 7.76038 17.2828 8.52695 16.6247C10.2574 15.1392 12.1533 13.9626 14.1212 13.0773C15.0426 12.6629 16.1255 13.0738 16.54 13.9951ZM42.0172 20.9069C42.8182 20.2913 43.9667 20.4417 44.5823 21.2428C45.9683 23.0465 47.1255 25.0363 48.0098 27.1689C48.3968 28.1022 47.954 29.1724 47.0207 29.5594C46.0875 29.9464 45.0173 29.5035 44.6303 28.5703C43.8701 26.7371 42.8747 25.0251 41.6813 23.472C41.0657 22.671 41.2161 21.5225 42.0172 20.9069ZM6.70574 21.0771C7.55552 21.6235 7.80147 22.7553 7.25508 23.6051C6.2985 25.0928 5.4908 26.7867 4.88459 28.7009C4.57957 29.664 3.55152 30.1976 2.58838 29.8925C1.62524 29.5875 1.09173 28.5595 1.39675 27.5963C2.09869 25.3799 3.04296 23.3913 4.17774 21.6264C4.72413 20.7767 5.85595 20.5307 6.70574 21.0771ZM47.728 32.2065C48.7298 32.0758 49.6478 32.782 49.7785 33.7838C49.9247 34.9047 50 36.047 50 37.206C50 38.2163 49.181 39.0353 48.1707 39.0353C47.1604 39.0353 46.3414 38.2163 46.3414 37.206C46.3414 36.2057 46.2764 35.2214 46.1507 34.257C46.02 33.2552 46.7262 32.3372 47.728 32.2065ZM2.1268 32.3263C3.13304 32.4167 3.87552 33.3056 3.78517 34.3118C3.70202 35.238 3.65856 36.2024 3.65856 37.206C3.65856 38.2163 2.83957 39.0353 1.82928 39.0353C0.818997 39.0353 0 38.2163 0 37.206C0 36.0968 0.0480307 35.0231 0.141265 33.9847C0.23161 32.9784 1.12056 32.236 2.1268 32.3263Z" fill="#C17FF9"></path><path d="M31.0183 15.0619C30.7668 15.6578 30.7623 16.3293 31.0059 16.9286C31.2494 17.5279 31.7211 18.0058 32.3171 18.2574C32.913 18.5089 33.5845 18.5134 34.1838 18.2698C34.783 18.0263 35.261 17.5546 35.5125 16.9587C35.7641 16.3627 35.7686 15.6912 35.525 15.0919C35.2814 14.4927 34.8098 14.0147 34.2138 13.7632C33.6179 13.5116 32.9464 13.5072 32.3471 13.7507C31.7478 13.9943 31.2699 14.4659 31.0183 15.0619Z" fill="#C17FF9" stroke="#C17FF9" stroke-width="1.82957" stroke-linecap="round" stroke-linejoin="round"></path><path fill-rule="evenodd" clip-rule="evenodd" d="M37.2195 14.4026C37.6458 15.4513 37.6379 16.6264 37.1977 17.6694C36.7576 18.7123 35.9211 19.5377 34.8724 19.9639C33.8237 20.3901 32.6486 20.3823 31.6056 19.9421C30.5627 19.502 29.7373 18.6655 29.3111 17.6168C28.8849 16.5681 28.8927 15.393 29.3329 14.35C29.773 13.3071 30.6095 12.4817 31.6582 12.0555C32.7069 11.6292 33.882 11.6371 34.925 12.0773C35.9679 12.5174 36.7933 13.3539 37.2195 14.4026ZM33.8271 16.2468C33.89 16.0978 33.8911 15.9299 33.8302 15.7801C33.7693 15.6303 33.6514 15.5108 33.5024 15.4479C33.3534 15.385 33.1855 15.3839 33.0357 15.4448C32.8859 15.5057 32.7664 15.6236 32.7035 15.7726C32.6406 15.9216 32.6395 16.0895 32.7004 16.2393C32.7613 16.3891 32.8792 16.5086 33.0282 16.5715C33.1772 16.6344 33.3451 16.6355 33.4949 16.5746C33.6447 16.5137 33.7642 16.3958 33.8271 16.2468Z" fill="#C17FF9"></path><path fill-rule="evenodd" clip-rule="evenodd" d="M33.9768 14.3217C34.9076 14.7145 35.3437 15.7875 34.9508 16.7183L25.4669 39.1894C25.0741 40.1201 24.0011 40.5562 23.0703 40.1634C22.1395 39.7706 21.7034 38.6976 22.0963 37.7668L31.5802 15.2957C31.973 14.3649 33.046 13.9288 33.9768 14.3217Z" fill="#C17FF9"></path><path d="M23.7799 39.6437C24.4267 39.6437 25.0471 39.3867 25.5045 38.9293C25.9619 38.4719 26.2189 37.8515 26.2189 37.2047C26.2189 36.5578 25.9619 35.9374 25.5045 35.48C25.0471 35.0226 24.4267 34.7656 23.7799 34.7656C23.133 34.7656 22.5126 35.0226 22.0552 35.48C21.5978 35.9374 21.3408 36.5578 21.3408 37.2047C21.3408 37.8515 21.5978 38.4719 22.0552 38.9293C22.5126 39.3867 23.133 39.6437 23.7799 39.6437Z" fill="#C17FF9"></path><path fill-rule="evenodd" clip-rule="evenodd" d="M20.7629 34.1867C21.5633 33.3862 22.649 32.9365 23.781 32.9365C24.9131 32.9365 25.9987 33.3862 26.7992 34.1867C27.5996 34.9872 28.0493 36.0728 28.0493 37.2048C28.0493 38.3369 27.5996 39.4225 26.7992 40.223C25.9987 41.0235 24.913 41.4732 23.781 41.4732C22.649 41.4732 21.5633 41.0235 20.7629 40.223C19.9624 39.4225 19.5127 38.3369 19.5127 37.2048C19.5127 36.0728 19.9624 34.9872 20.7629 34.1867ZM23.781 36.5951C23.6193 36.5951 23.4642 36.6593 23.3499 36.7737C23.2355 36.888 23.1713 37.0431 23.1713 37.2048C23.1713 37.3666 23.2355 37.5217 23.3499 37.636C23.4642 37.7504 23.6193 37.8146 23.781 37.8146C23.9427 37.8146 24.0978 37.7504 24.2122 37.636C24.3265 37.5217 24.3908 37.3666 24.3908 37.2048C24.3908 37.0431 24.3265 36.888 24.2122 36.7737C24.0978 36.6593 23.9427 36.5951 23.781 36.5951Z" fill="#C17FF9"></path></svg> 