<?xml version="1.0" encoding="UTF-8"?> <svg xmlns="http://www.w3.org/2000/svg" xmlns:xlink="http://www.w3.org/1999/xlink" version="1.1" id="Layer_1" x="0px" y="0px" viewBox="0 0 89 66" style="enable-background:new 0 0 89 66;" xml:space="preserve"> <style type="text/css"> .st0{fill:none;stroke:#FFFFFF;stroke-width:2;stroke-linecap:round;stroke-linejoin:round;} </style> <path class="st0" d="M3,62.6h82.8"></path> <path class="st0" d="M34.3,34.9V17.7"></path> <path class="st0" d="M80.3,62.6V17.7"></path> <path class="st0" d="M34.3,30.2L18.7,43.4"></path> <path class="st0" d="M22.9,39.9v16.2"></path> <path class="st0" d="M11.7,62.6V26.3"></path> <path class="st0" d="M21.7,30.1c0,5.5-4.5,9.9-9.9,9.9c-5.5,0-10-4.4-10-9.9s4.5-9.9,9.9-9.9C17.2,20.1,21.6,24.6,21.7,30.1 L21.7,30.1z"></path> <path class="st0" d="M11.7,34.8l4.2-2.7"></path> <path class="st0" d="M11.7,32.1l-5.5-3.3"></path> <path class="st0" d="M28.6,21.7L57.3,1.8L86,21.7"></path> <path class="st0" d="M73.4,39.9H62.2v22.7h11.2V39.9z"></path> <path class="st0" d="M55.2,40.2H33v10.3h22.2V40.2z"></path> <path class="st0" d="M53.1,19.4h-9.3v9.3h9.3V19.4z"></path> <path class="st0" d="M71,19.4h-9.3v9.3H71V19.4z"></path> <path class="st0" d="M37.6,15.5V3.4h6.2v7.8"></path> <path class="st0" d="M21.2,62.6l19,0c0.5-0.5,0.9-1.3,0.9-2.1c0-1.6-1.3-2.9-2.9-2.9c0-1.6-1.3-2.9-2.9-2.9c-0.9,0-1.8,0.4-2.3,1.1 c-0.4-1.2-1.5-2.1-2.8-2.1c-1.3,0-2.3,0.8-2.7,2c-0.5-0.7-1.3-1.1-2.2-1.1c-1.4,0-2.5,1-2.8,2.2c0,0-0.1,0-0.1,0 c-1.6,0-2.9,1.3-2.9,2.9C19.4,61.1,20.1,62.1,21.2,62.6L21.2,62.6z"></path> <path class="st0" d="M45.8,62.6h12.6c1.1-1,1.3-2.7,0.4-4c-0.4-0.5-0.9-0.8-1.5-1c0-0.6-0.2-1.3-0.6-1.8c-1-1.3-2.9-1.6-4.2-0.6 c-0.3,0.2-0.6,0.5-0.7,0.8c-0.5-0.8-1.5-1.4-2.6-1.4c-1.7,0-3,1.3-3,3c0,0.2,0,0.4,0.1,0.6c0,0,0,0-0.1,0c-1.3,1-1.6,2.9-0.6,4.2 C45.7,62.4,45.7,62.5,45.8,62.6L45.8,62.6z"></path> </svg> 