<?xml version="1.0" encoding="UTF-8"?> <svg xmlns="http://www.w3.org/2000/svg" width="791" height="767" viewBox="0 0 791 767" fill="none"><path d="M43.5257 598.388L43.114 606.283L44.1127 606.335L43.9069 610.282C43.8323 611.713 43.815 613.132 43.853 614.538L42.8533 614.565C42.9325 617.494 43.2469 620.369 43.779 623.169L44.7615 622.982C45.2956 625.794 46.053 628.529 47.0154 631.169L46.0757 631.512C47.0706 634.241 48.2802 636.87 49.6847 639.377L50.5573 638.889C51.9465 641.368 53.5301 643.727 55.2883 645.944L54.5047 646.565C56.3 648.828 58.2739 650.946 60.4059 652.895L61.0809 652.157C63.1688 654.066 65.411 655.811 67.7876 657.371L67.2387 658.207C69.6415 659.783 72.1794 661.174 74.8323 662.358L75.2401 661.445C77.8064 662.59 80.4825 663.537 83.2497 664.267L82.9943 665.234C85.751 665.961 88.5965 666.476 91.5131 666.76L91.6105 665.765C93.0107 665.901 94.4278 665.984 95.8598 666.01L99.8994 666.083L99.881 667.082L107.96 667.228L107.979 666.229L116.058 666.375L116.04 667.374L124.119 667.52L124.138 666.521L132.217 666.667L132.199 667.666L140.279 667.812L140.297 666.813L148.377 666.959L148.358 667.958L156.438 668.104L156.456 667.105L164.536 667.251L164.517 668.25L172.597 668.396L172.615 667.397L180.695 667.543L180.676 668.543L188.756 668.689L188.774 667.689L196.854 667.835L196.835 668.835L204.915 668.981L204.933 667.981L213.013 668.127L212.994 669.127L221.074 669.273L221.092 668.273L229.172 668.419L229.153 669.419L237.233 669.565L237.251 668.565L245.331 668.711L245.312 669.711L253.392 669.857L253.41 668.857L261.49 669.003L261.472 670.003L269.551 670.149L269.57 669.149L277.649 669.295L277.631 670.295L285.71 670.441L285.729 669.441L293.808 669.587L293.79 670.587L301.869 670.733L301.888 669.733L309.967 669.879L309.949 670.879L318.028 671.025L318.047 670.025L326.126 670.171L326.108 671.171L334.187 671.317L334.206 670.317L342.285 670.463L342.267 671.463L350.346 671.609L350.365 670.609L358.444 670.755L358.426 671.755L366.505 671.901L366.524 670.901L374.603 671.047L374.585 672.047L382.665 672.193L382.683 671.193L390.763 671.339L390.744 672.339L398.824 672.485L398.842 671.485L406.922 671.631L406.903 672.631L414.983 672.777L415.001 671.777L423.081 671.923L423.062 672.923L431.142 673.069L431.16 672.069L439.24 672.215L439.221 673.215L447.301 673.361L447.319 672.361L455.399 672.507L455.38 673.507L463.46 673.653L463.478 672.653L471.558 672.799L471.539 673.799L479.619 673.945L479.637 672.945L487.717 673.091L487.699 674.091L495.778 674.237L495.796 673.237L503.876 673.383L503.858 674.383L511.937 674.529L511.956 673.529L520.035 673.675L520.017 674.675L528.096 674.821L528.115 673.821L536.194 673.967L536.176 674.967L544.255 675.113L544.274 674.113L552.353 674.259L552.335 675.259L560.414 675.405L560.433 674.405L568.512 674.551L568.494 675.551L576.573 675.697L576.592 674.697L584.671 674.843L584.653 675.843L592.732 675.989L592.751 674.989L600.83 675.136L600.812 676.135L608.891 676.281L608.91 675.282L616.989 675.428L616.971 676.427L625.05 676.573L625.069 675.574L633.148 675.72L633.13 676.719L641.21 676.865L641.228 675.866L645.268 675.939C646.498 675.961 647.718 675.941 648.927 675.881L648.976 676.88C651.49 676.755 653.957 676.458 656.367 676.001L656.181 675.018C658.6 674.56 660.959 673.937 663.247 673.162L663.568 674.109C665.935 673.307 668.229 672.345 670.435 671.237L669.986 670.343C672.173 669.245 674.273 667.999 676.273 666.62L676.841 667.444C678.89 666.031 680.836 664.481 682.666 662.807L681.991 662.07C683.79 660.424 685.476 658.656 687.034 656.78L687.803 657.419C689.388 655.511 690.843 653.494 692.156 651.38L691.307 650.853C692.589 648.789 693.733 646.632 694.726 644.396L695.64 644.801C696.642 642.545 697.493 640.209 698.181 637.806L697.219 637.531C697.884 635.208 698.394 632.822 698.737 630.385L699.727 630.524C700.068 628.095 700.247 625.617 700.252 623.101L699.252 623.099C699.254 621.889 699.215 620.669 699.134 619.442L698.874 615.492L699.872 615.426L699.351 607.527L698.353 607.593L697.832 599.694L698.83 599.628L698.308 591.729L697.311 591.795L696.789 583.896L697.787 583.83L697.266 575.931L696.268 575.997L695.747 568.098L696.745 568.032L696.224 560.133L695.226 560.199L694.705 552.3L695.703 552.234L695.182 544.335L694.184 544.401L693.663 536.502L694.661 536.436L694.14 528.537L693.142 528.603L692.621 520.704L693.618 520.638L693.097 512.739L692.099 512.805L691.578 504.906L692.576 504.84L692.055 496.941L691.057 497.007L690.536 489.108L691.534 489.042L691.013 481.143L690.015 481.209L689.494 473.31L690.492 473.244L689.971 465.345L688.973 465.411L688.452 457.512L689.45 457.446L688.928 449.547L687.931 449.613L687.409 441.714L688.407 441.648L687.886 433.749L686.888 433.815L686.367 425.916L687.365 425.85L686.844 417.95L685.846 418.017L685.325 410.118L686.323 410.051L685.802 402.152L684.804 402.219L684.283 394.32L685.281 394.253L684.76 386.354L683.762 386.421L683.24 378.522L684.238 378.455L683.717 370.556L682.719 370.623L682.198 362.724L683.196 362.657L682.675 354.758L681.677 354.825L681.156 346.925L682.154 346.859L681.633 338.96L680.635 339.026L680.114 331.127L681.112 331.061L680.591 323.162L679.593 323.228L679.072 315.329L680.069 315.263L679.548 307.364L678.55 307.43L678.029 299.531L679.027 299.465L678.506 291.566L677.508 291.632L676.987 283.733L677.985 283.667L677.464 275.768L676.466 275.834L675.945 267.935L676.943 267.869L676.422 259.97L675.424 260.036L674.903 252.137L675.901 252.071L675.379 244.172L674.381 244.238L673.86 236.339L674.858 236.273L674.337 228.374L673.339 228.44L672.818 220.541L673.816 220.475L673.295 212.576L672.297 212.642L671.776 204.743L672.774 204.677L672.253 196.778L671.255 196.844L670.734 188.945L671.732 188.879L671.21 180.98L670.213 181.046L669.691 173.147L670.689 173.081L670.168 165.182L669.17 165.248L668.649 157.349L669.647 157.283L669.126 149.384L668.128 149.45L667.868 145.5C667.788 144.296 667.668 143.102 667.51 141.92L668.501 141.787C668.174 139.342 667.683 136.947 667.039 134.614L666.075 134.88C665.433 132.554 664.637 130.29 663.698 128.101L664.617 127.706C663.649 125.452 662.533 123.276 661.279 121.191L660.422 121.706C659.184 119.648 657.809 117.679 656.31 115.813L657.09 115.187C655.559 113.283 653.902 111.484 652.129 109.804L651.441 110.529C649.703 108.883 647.853 107.353 645.902 105.951L646.486 105.139C644.51 103.719 642.432 102.429 640.264 101.28L639.796 102.164C637.691 101.049 635.499 100.071 633.233 99.2417L633.577 98.3026C631.304 97.471 628.957 96.7862 626.546 96.26L626.332 97.2369C625.167 96.9826 623.987 96.766 622.793 96.5885L618.84 96.0009L618.988 95.0118L611.082 93.8367L610.935 94.8257L603.029 93.6506L603.177 92.6616L595.271 91.4864L595.124 92.4754L587.218 91.3003L587.365 90.3112L579.46 89.1361L579.312 90.1252L571.407 88.95L571.554 87.9609L563.649 86.7858L563.501 87.7748L555.596 86.5997L555.743 85.6107L547.838 84.4355L547.69 85.4246L539.785 84.2494L539.932 83.2603L532.027 82.0852L531.879 83.0743L523.974 81.8991L524.121 80.9101L516.215 79.7349L516.068 80.724L508.162 79.5488L508.31 78.5598L500.404 77.3846L500.257 78.3737L492.351 77.1985L492.499 76.2094L484.593 75.0343L484.446 76.0234L476.54 74.8483L476.688 73.8592L468.782 72.684L468.635 73.6731L460.729 72.4979L460.877 71.5089L452.971 70.3338L452.824 71.3228L444.918 70.1476L445.065 69.1586L437.16 67.9834L437.012 68.9725L429.107 67.7974L429.254 66.8083L421.349 65.6331L421.201 66.6222L413.296 65.447L413.443 64.458L405.538 63.2829L405.39 64.2719L397.485 63.0968L397.632 62.1077L389.727 60.9325L389.579 61.9216L381.674 60.7465L381.821 59.7574L373.915 58.5823L373.768 59.5713L365.862 58.3962L366.01 57.4071L358.104 56.232L357.957 57.221L350.051 56.0459L350.199 55.0568L342.293 53.8816L342.146 54.8707L334.24 53.6956L334.388 52.7065L326.482 51.5314L326.335 52.5205L318.429 51.3453L318.576 50.3562L310.671 49.181L310.523 50.1701L302.618 48.995L302.765 48.0059L294.86 46.8308L294.712 47.8198L286.807 46.6447L286.954 45.6556L279.049 44.4805L278.901 45.4695L270.996 44.2944L271.143 43.3053L263.237 42.1302L263.09 43.1192L255.184 41.9441L255.332 40.955L247.426 39.7799L247.279 40.769L239.373 39.5938L239.521 38.6047L231.615 37.4295L231.468 38.4186L223.562 37.2435L223.71 36.2544L215.804 35.0793L215.657 36.0683L207.751 34.8932L207.898 33.9041L199.993 32.729L199.845 33.718L191.94 32.5429L192.087 31.5538L184.182 30.3787L184.034 31.3677L176.129 30.1926L176.276 29.2035L168.371 28.0284L168.223 29.0175L160.318 27.8423L160.465 26.8532L152.56 25.6781L152.412 26.6671L144.507 25.492L144.654 24.503L136.748 23.3278L136.601 24.3169L132.648 23.7293C131.423 23.5471 130.202 23.4083 128.987 23.3117L129.066 22.315C126.539 22.114 124.037 22.092 121.572 22.2384L121.631 23.2366C119.157 23.3836 116.721 23.7037 114.336 24.1858L114.138 23.2057C111.671 23.7046 109.258 24.3738 106.914 25.2016L107.247 26.1444C104.923 26.965 102.668 27.9445 100.496 29.0709L100.036 28.1833C97.8115 29.3372 95.6729 30.6425 93.6355 32.0867L94.2137 32.9024C92.2104 34.3225 90.3066 35.8795 88.5174 37.5612L87.8325 36.8327C86.0128 38.5431 84.3092 40.3802 82.7369 42.3317L83.5156 42.9588C81.9808 44.8636 80.5736 46.8795 79.3083 48.9942L78.4502 48.4811C77.1739 50.6143 76.0393 52.8465 75.0609 55.1659L75.9823 55.5543C75.0369 57.7954 74.2399 60.1196 73.605 62.5159L72.6383 62.2601C72.0059 64.6468 71.5311 67.1035 71.2269 69.6199L72.2197 69.7395C72.0734 70.9495 71.9673 72.1737 71.9028 73.4109L71.6969 77.3585L70.6982 77.3069L70.2865 85.2021L71.2852 85.2537L70.8735 93.1489L69.8748 93.0973L69.4631 100.992L70.4618 101.044L70.0501 108.939L69.0514 108.888L68.6397 116.783L69.6384 116.834L69.2267 124.73L68.228 124.678L67.8163 132.573L68.815 132.625L68.4033 140.52L67.4046 140.468L66.9929 148.363L67.9916 148.415L67.5799 156.31L66.5812 156.259L66.1695 164.154L67.1682 164.205L66.7565 172.101L65.7577 172.049L65.346 179.944L66.3448 179.996L65.933 187.891L64.9343 187.839L64.5226 195.734L65.5213 195.786L65.1096 203.681L64.1109 203.63L63.6992 211.525L64.6979 211.576L64.2862 219.472L63.2875 219.42L62.8758 227.315L63.8745 227.367L63.4628 235.262L62.4641 235.21L62.0524 243.105L63.0511 243.157L62.6394 251.052L61.6407 251.001L61.229 258.896L62.2277 258.947L61.816 266.843L60.8173 266.791L60.4056 274.686L61.4043 274.738L60.9926 282.633L59.9939 282.581L59.5822 290.476L60.5809 290.528L60.1692 298.423L59.1705 298.372L58.7588 306.267L59.7575 306.318L59.3458 314.214L58.3471 314.162L57.9354 322.057L58.9341 322.109L58.5224 330.004L57.5237 329.952L57.112 337.847L58.1107 337.899L57.699 345.794L56.7003 345.743L56.2886 353.638L57.2873 353.689L56.8756 361.585L55.8769 361.533L55.4651 369.428L56.4639 369.48L56.0521 377.375L55.0534 377.323L54.6417 385.218L55.6404 385.27L55.2287 393.165L54.23 393.114L53.8183 401.009L54.817 401.06L54.4053 408.956L53.4066 408.904L52.9949 416.799L53.9936 416.851L53.5819 424.746L52.5832 424.694L52.1715 432.589L53.1702 432.641L52.7585 440.536L51.7598 440.485L51.3481 448.38L52.3468 448.431L51.9351 456.327L50.9364 456.275L50.5247 464.17L51.5234 464.222L51.1117 472.117L50.113 472.065L49.7013 479.96L50.7 480.012L50.2883 487.907L49.2896 487.856L48.8779 495.751L49.8766 495.802L49.4649 503.698L48.4662 503.646L48.0545 511.541L49.0532 511.593L48.6415 519.488L47.6428 519.436L47.2311 527.331L48.2298 527.383L47.8181 535.278L46.8194 535.227L46.4077 543.122L47.4064 543.173L46.9947 551.069L45.9959 551.017L45.5842 558.912L46.5829 558.964L46.1712 566.859L45.1725 566.807L44.7608 574.702L45.7595 574.754L45.3478 582.649L44.3491 582.598L43.9374 590.493L44.9361 590.544L44.5244 598.44L43.5257 598.388Z" stroke="white" stroke-width="2" stroke-dasharray="8 8"></path><path d="M708.829 114.002C708.442 84.1857 683.926 60.3273 654.07 60.7152C624.214 61.1032 600.327 85.5905 600.714 115.407C601.102 145.223 625.617 169.081 655.473 168.693C685.329 168.305 709.216 143.818 708.829 114.002Z" stroke="white" stroke-width="2"></path><path d="M533.081 42.4841L532.2 40.6887C528.185 39.3171 526.406 37.9622 524.644 34.3713L522.882 30.7804C520.692 26.3187 515.299 24.4763 510.837 26.6658C506.376 28.8553 504.533 34.2486 506.723 38.7103L508.485 42.3012C510.247 45.8921 510.231 48.1281 508.859 52.143L509.74 53.9384L533.081 42.4841Z" stroke="white" stroke-width="3" stroke-linejoin="round"></path><path d="M524.985 48.6851C525.47 49.6726 524.663 51.0709 523.173 51.8022C521.683 52.5335 520.083 52.3159 519.599 51.3284" stroke="white" stroke-width="3" stroke-linejoin="round"></path><path d="M509.516 23.9725L510.837 26.6657" stroke="white" stroke-width="3" stroke-linecap="round" stroke-linejoin="round"></path><path d="M527.353 30.8136L543.396 22.941C544.204 22.5445 544.27 21.4537 543.517 21.0322L520.101 7.07011C519.411 6.68483 518.513 7.12538 518.405 7.90275L516.765 21.4504" stroke="white" stroke-width="3" stroke-miterlimit="10" stroke-linecap="round"></path><path d="M522.558 14.2306L526.523 22.3101" stroke="white" stroke-width="3" stroke-miterlimit="10"></path><path d="M527.403 24.1056L528.284 25.901" stroke="white" stroke-width="3" stroke-miterlimit="10"></path><path d="M285.075 237.564C285.219 237.786 285.243 238.068 285.242 238.36C285.233 240.892 285.235 243.424 285.21 245.955C285.206 246.313 285.305 246.529 285.605 246.732C287.695 248.146 289.77 249.583 291.857 251.003C292.372 251.354 292.701 251.796 292.613 252.436C292.525 253.071 292.115 253.414 291.504 253.609C289.067 254.384 286.641 255.194 284.205 255.973C283.914 256.066 283.76 256.2 283.672 256.496C282.954 258.93 282.211 261.357 281.498 263.793C281.316 264.415 280.998 264.87 280.341 264.998C279.674 265.127 279.217 264.797 278.843 264.275C277.397 262.259 275.935 260.256 274.492 258.239C274.258 257.91 274.011 257.765 273.585 257.781C271.067 257.874 268.546 257.928 266.027 258.006C265.414 258.024 264.913 257.836 264.617 257.291C264.312 256.726 264.437 256.193 264.813 255.682C266.328 253.625 267.825 251.555 269.346 249.503C269.542 249.239 269.575 249.025 269.468 248.726C268.638 246.407 267.828 244.08 266.997 241.762C266.643 240.777 266.76 240.158 267.426 239.743C267.849 239.48 268.28 239.489 268.74 239.64C271.152 240.429 273.57 241.202 275.981 241.994C276.317 242.104 276.552 242.076 276.85 241.844C278.91 240.243 280.987 238.666 283.065 237.09C283.742 236.576 284.656 236.789 285.074 237.563L285.075 237.564ZM282.5 240.983C282.327 241.096 282.199 241.169 282.082 241.259C280.613 242.379 279.138 243.491 277.684 244.628C277.225 244.987 276.761 245.09 276.216 244.914C274.655 244.407 273.095 243.899 271.531 243.404C271.159 243.286 270.796 243.115 270.361 243.092C271.035 244.987 271.687 246.832 272.347 248.675C272.554 249.253 272.531 249.774 272.137 250.294C271.269 251.44 270.434 252.612 269.588 253.775C269.258 254.229 268.933 254.687 268.56 255.206C270.638 255.149 272.614 255.101 274.59 255.035C275.177 255.015 275.65 255.191 275.997 255.673C276.606 256.523 277.218 257.373 277.832 258.22C278.399 259.001 278.969 259.778 279.614 260.66C279.662 260.433 279.676 260.333 279.704 260.236C280.253 258.405 280.804 256.575 281.351 254.744C281.502 254.234 281.819 253.891 282.326 253.728C283.535 253.337 284.746 252.952 285.954 252.559C286.679 252.322 287.401 252.076 288.203 251.809C286.526 250.659 284.952 249.557 283.352 248.494C282.721 248.076 282.465 247.552 282.478 246.8C282.514 244.881 282.497 242.96 282.502 240.983L282.5 240.983Z" fill="white"></path><g clip-path="url(#clip0_583_1894)"><path d="M728.838 369.747C729.013 370.017 729.041 370.359 729.04 370.712C729.029 373.783 729.032 376.854 729.002 379.924C728.997 380.359 729.117 380.62 729.48 380.867C732.016 382.581 734.532 384.325 737.064 386.047C737.689 386.472 738.088 387.009 737.98 387.785C737.874 388.555 737.377 388.972 736.635 389.208C733.68 390.148 730.737 391.13 727.783 392.075C727.43 392.188 727.243 392.35 727.137 392.709C726.265 395.662 725.364 398.606 724.499 401.56C724.279 402.315 723.893 402.866 723.096 403.021C722.287 403.178 721.733 402.777 721.279 402.144C719.525 399.699 717.752 397.27 716.003 394.823C715.718 394.425 715.419 394.248 714.902 394.268C711.847 394.381 708.79 394.446 705.735 394.541C704.991 394.563 704.383 394.335 704.025 393.674C703.654 392.989 703.806 392.342 704.262 391.722C706.1 389.228 707.916 386.716 709.761 384.228C709.999 383.907 710.038 383.647 709.908 383.285C708.902 380.473 707.92 377.65 706.912 374.839C706.483 373.644 706.624 372.893 707.432 372.39C707.945 372.07 708.467 372.081 709.026 372.265C711.951 373.222 714.884 374.16 717.808 375.12C718.216 375.254 718.501 375.219 718.862 374.938C721.36 372.996 723.88 371.084 726.4 369.172C727.222 368.549 728.33 368.806 728.837 369.746L728.838 369.747ZM725.715 373.893C725.505 374.031 725.35 374.12 725.208 374.229C723.426 375.587 721.638 376.936 719.873 378.315C719.317 378.75 718.753 378.875 718.093 378.661C716.2 378.046 714.308 377.43 712.41 376.83C711.96 376.687 711.519 376.48 710.992 376.452C711.809 378.75 712.6 380.988 713.401 383.223C713.652 383.925 713.623 384.557 713.145 385.187C712.093 386.578 711.08 387.998 710.054 389.409C709.653 389.959 709.26 390.515 708.808 391.145C711.328 391.076 713.724 391.017 716.12 390.937C716.832 390.914 717.407 391.126 717.827 391.711C718.567 392.742 719.309 393.773 720.053 394.8C720.74 395.747 721.432 396.69 722.214 397.76C722.273 397.484 722.289 397.363 722.324 397.246C722.989 395.025 723.658 392.805 724.321 390.584C724.505 389.966 724.889 389.549 725.504 389.352C726.97 388.878 728.439 388.411 729.904 387.934C730.783 387.647 731.659 387.349 732.632 387.024C730.598 385.63 728.689 384.293 726.748 383.004C725.983 382.497 725.672 381.861 725.689 380.949C725.732 378.621 725.711 376.292 725.717 373.894L725.715 373.893Z" fill="white"></path></g><path d="M542.362 490.81L538.287 511.181" stroke="white" stroke-width="3" stroke-miterlimit="10" stroke-linecap="round"></path><path d="M535.645 496.252C536.363 497.931 535.588 499.875 533.917 500.59C532.246 501.305 530.304 500.524 529.586 498.844C528.867 497.165 529.64 495.222 531.314 494.506C532.988 493.79 534.926 494.572 535.645 496.252Z" stroke="white" stroke-width="3" stroke-miterlimit="10" stroke-linecap="round"></path><path d="M551.066 503.146C551.785 504.825 551.01 506.769 549.336 507.485C547.662 508.202 545.723 507.419 545.005 505.74C544.286 504.06 545.062 502.119 546.734 501.404C548.405 500.689 550.348 501.466 551.066 503.146Z" stroke="white" stroke-width="3" stroke-miterlimit="10" stroke-linecap="round"></path><path d="M523.9 483.671L512.018 474.579L521.063 473.743" stroke="white" stroke-width="3" stroke-linejoin="round"></path><path d="M525.859 475.947L524.402 463.704L531.907 471.322L540.815 463.464L536.305 477.016L529.933 479.766" stroke="white" stroke-width="3" stroke-linecap="round" stroke-linejoin="round"></path><path d="M524.492 514.03L519.83 503.135C516.856 496.185 518.824 488.6 523.9 483.671" stroke="white" stroke-width="3" stroke-linecap="round" stroke-linejoin="round"></path><path d="M532.582 478.633C541.684 474.738 552.113 478.518 556.02 487.649L562.834 503.573C562.834 503.573 568.818 507.388 568.347 511.798L528.789 528.726C525.271 526.022 526.643 519.059 526.643 519.059" stroke="white" stroke-width="3" stroke-linecap="round" stroke-linejoin="round"></path><defs><clipPath id="clip0_583_1894"><rect width="34.4837" height="33.1043" fill="white" transform="translate(712.028 408.919) rotate(-117.698)"></rect></clipPath></defs></svg> 