<?xml version="1.0" encoding="UTF-8"?> <svg xmlns="http://www.w3.org/2000/svg" width="58" height="70" viewBox="0 0 58 70" fill="none"><path d="M7.32714 33.2772C7.32714 31.8004 6.1404 30.6136 4.66357 30.6136C3.18674 30.6136 2 31.8004 2 33.2772C2 34.754 3.18674 35.9408 4.66357 35.9408C6.1404 35.9408 7.32714 34.754 7.32714 33.2772Z" stroke="#6E68FA" stroke-width="3" stroke-linecap="round" stroke-linejoin="round"></path><path d="M5.5078 40.7141C4.12328 41.2151 3.41123 42.7447 3.9123 44.1292C4.41337 45.5138 5.94294 46.2258 7.32747 45.7247C8.712 45.2237 9.42404 43.6941 8.92297 42.3096C8.4219 40.925 6.89233 40.213 5.5078 40.7141Z" stroke="#6E68FA" stroke-width="3" stroke-linecap="round" stroke-linejoin="round"></path><path d="M53.0563 36.811C51.6322 46.2258 43.4964 53.4386 33.6861 53.4386C29.6248 53.4386 25.8668 52.1991 22.7285 50.0893" stroke="#9A9A9A" stroke-width="3" stroke-linecap="round" stroke-linejoin="round"></path><path d="M17.1372 43.7864C15.2912 40.8064 14.2363 37.2857 14.2363 33.5145C14.2363 30.3367 14.9879 27.3303 16.3329 24.6799" stroke="#6E68FA" stroke-width="3" stroke-linecap="round" stroke-linejoin="round"></path><path d="M33.6855 14.2631C38.4061 14.2631 42.7443 15.9377 46.1199 18.7199" stroke="#6E68FA" stroke-width="3" stroke-linecap="round" stroke-linejoin="round"></path><path d="M16.1611 25.1018C18.0863 21.2515 21.2377 18.1264 25.1012 16.2408" stroke="#6E68FA" stroke-width="3" stroke-linecap="round" stroke-linejoin="round"></path><path d="M23.0186 17.4145C26.6183 15.0674 30.917 13.973 35.2156 14.2894" stroke="#6E68FA" stroke-width="3" stroke-linecap="round" stroke-linejoin="round"></path><path d="M13.5511 16.3333C14.5005 15.2125 14.3555 13.5247 13.2215 12.5753C12.1007 11.6259 10.4129 11.771 9.46348 12.9049C8.51409 14.0258 8.65913 15.7136 9.79313 16.6629C10.9139 17.6123 12.6017 17.4673 13.5511 16.3333Z" stroke="#6E68FA" stroke-width="3" stroke-linecap="round" stroke-linejoin="round"></path><path d="M7.36653 20.856C5.982 20.355 4.45243 21.067 3.95136 22.4515C3.4503 23.8361 4.16234 25.3656 5.54687 25.8667C6.93139 26.3678 8.46097 25.6557 8.96203 24.2712C9.4631 22.8867 8.75106 21.3571 7.36653 20.856Z" stroke="#6E68FA" stroke-width="3" stroke-linecap="round" stroke-linejoin="round"></path><path d="M50.1417 29.1369C53.3314 29.1369 55.9171 26.5511 55.9171 23.3614C55.9171 20.1717 53.3314 17.5859 50.1417 17.5859C46.952 17.5859 44.3662 20.1717 44.3662 23.3614C44.3662 26.5511 46.952 29.1369 50.1417 29.1369Z" stroke="#6E68FA" stroke-width="3" stroke-linecap="round" stroke-linejoin="round"></path><path d="M29.0968 7.28766C30.5473 7.03713 31.5099 5.6526 31.2593 4.20214C31.0088 2.75169 29.6243 1.78911 28.1738 2.03964C26.7234 2.29018 25.7608 3.6747 26.0113 5.12516C26.2619 6.57562 27.6464 7.5382 29.0968 7.28766Z" stroke="#6E68FA" stroke-width="3" stroke-linecap="round" stroke-linejoin="round"></path><path d="M20.4871 10.426C21.7661 9.68757 22.2013 8.0657 21.4629 6.78666C20.7244 5.50762 19.1026 5.07248 17.8235 5.81089C16.5445 6.54931 16.1093 8.17118 16.8478 9.45022C17.5862 10.7293 19.208 11.1644 20.4871 10.426Z" stroke="#6E68FA" stroke-width="3" stroke-linecap="round" stroke-linejoin="round"></path><path d="M46.9505 10.426C48.2295 11.1644 49.8514 10.7293 50.5898 9.45022C51.3282 8.17118 50.8931 6.54931 49.614 5.81089C48.335 5.07248 46.7131 5.50762 45.9747 6.78666C45.2363 8.0657 45.6714 9.68757 46.9505 10.426Z" stroke="#6E68FA" stroke-width="3" stroke-linecap="round" stroke-linejoin="round"></path><path d="M38.3408 7.28766C39.7913 7.5382 41.1758 6.57562 41.4263 5.12516C41.6769 3.6747 40.7143 2.29018 39.2638 2.03964C37.8134 1.78911 36.4288 2.75169 36.1783 4.20214C35.9278 5.6526 36.8904 7.03713 38.3408 7.28766Z" stroke="#6E68FA" stroke-width="3" stroke-linecap="round" stroke-linejoin="round"></path><path d="M37.4839 58.0933H30.825C29.9147 58.0933 29.1768 58.8312 29.1768 59.7415V60.9546C29.1768 61.8649 29.9147 62.6029 30.825 62.6029H37.4839C38.3942 62.6029 39.1322 61.8649 39.1322 60.9546V59.7415C39.1322 58.8312 38.3942 58.0933 37.4839 58.0933Z" stroke="#9A9A9A" stroke-width="3" stroke-linecap="round" stroke-linejoin="round"></path><path d="M37.4839 53.5176H30.825C29.9147 53.5176 29.1768 54.2555 29.1768 55.1658V56.3789C29.1768 57.2892 29.9147 58.0272 30.825 58.0272H37.4839C38.3942 58.0272 39.1322 57.2892 39.1322 56.3789V55.1658C39.1322 54.2555 38.3942 53.5176 37.4839 53.5176Z" stroke="#9A9A9A" stroke-width="3" stroke-linecap="round" stroke-linejoin="round"></path><path d="M34.2393 68.2201C35.637 68.2201 36.8501 67.3894 37.3907 66.1895C37.694 65.517 37.2193 64.7522 36.4809 64.7522H32.0109C31.2724 64.7522 30.7846 65.517 31.101 66.1895C31.6417 67.3894 32.8548 68.2201 34.2525 68.2201H34.2393Z" stroke="#9A9A9A" stroke-width="3" stroke-linecap="round" stroke-linejoin="round"></path><path d="M37.2193 52.8979V37.4967C37.2193 37.4967 37.4962 32.4992 41.241 33.9628C41.241 33.9628 42.9684 35.0705 42.0717 37.2857C42.0717 37.2857 39.6455 41.0964 34.1602 41.0964" stroke="#9A9A9A" stroke-width="3" stroke-linecap="round" stroke-linejoin="round"></path><path d="M31.2463 52.8979V37.4967C31.2463 37.4967 30.9694 32.4992 27.2246 33.9628C27.2246 33.9628 25.4972 35.0705 26.3939 37.2857C26.3939 37.2857 28.8201 41.0964 34.3054 41.0964" stroke="#9A9A9A" stroke-width="3" stroke-linecap="round" stroke-linejoin="round"></path></svg> 