<?xml version="1.0" encoding="UTF-8"?> <svg xmlns="http://www.w3.org/2000/svg" width="793" height="732" viewBox="0 0 793 732" fill="none"><path d="M162.196 605.128C160.943 605.466 159.69 605.757 158.44 606.001L158.631 606.982C156.024 607.49 153.424 607.801 150.847 607.923L150.8 606.924C148.206 607.047 145.637 606.977 143.106 606.724L143.007 607.719C140.385 607.458 137.805 607.004 135.283 606.37L135.527 605.401C133.026 604.772 130.584 603.963 128.219 602.986L127.838 603.91C125.414 602.909 123.07 601.735 120.825 600.4L121.336 599.541C119.127 598.228 117.015 596.758 115.018 595.142L114.389 595.919C112.358 594.276 110.444 592.485 108.664 590.56L109.398 589.881C107.661 588.002 106.055 585.993 104.598 583.865L103.773 584.43C102.304 582.286 100.983 580.023 99.8281 577.654L100.727 577.216C99.6122 574.931 98.6545 572.545 97.8703 570.07L96.917 570.372C96.1376 567.913 95.5263 565.367 95.0985 562.745L96.0854 562.584C95.8801 561.326 95.7178 560.051 95.6003 558.758L95.235 554.74L94.2392 554.831L93.5086 546.795L94.5045 546.704L93.7739 538.668L92.778 538.758L92.0475 530.722L93.0433 530.632L92.3128 522.595L91.3169 522.686L90.5863 514.65L91.5822 514.559L90.8516 506.523L89.8558 506.613L89.1252 498.577L90.1211 498.487L89.3905 490.45L88.3946 490.541L87.6641 482.505L88.6599 482.414L87.9294 474.378L86.9335 474.468L86.2029 466.432L87.1988 466.342L86.4682 458.305L85.4724 458.396L84.7418 450.36L85.7377 450.269L85.0071 442.233L84.0112 442.323L83.2807 434.287L84.2765 434.197L83.546 426.16L82.5501 426.251L81.8195 418.215L82.8154 418.124L82.0848 410.088L81.089 410.178L80.3584 402.142L81.3543 402.052L80.6237 394.015L79.6278 394.106L78.8972 386.07L79.8931 385.979L79.1626 377.943L78.1667 378.034L77.4361 369.997L78.432 369.907L77.7014 361.871L76.7055 361.961L75.975 353.925L76.9709 353.834L76.2403 345.798L75.2444 345.889L74.5138 337.852L75.5097 337.762L74.7792 329.726L73.7833 329.816L73.0527 321.78L74.0486 321.689L73.318 313.653L72.3221 313.744L71.5916 305.707L72.5875 305.617L71.8569 297.581L70.861 297.671L70.1304 289.635L71.1263 289.544L70.3958 281.508L69.3999 281.599L68.6693 273.562L69.6652 273.472L68.9346 265.436L67.9387 265.526L67.2082 257.49L68.2041 257.399L67.4735 249.363L66.4776 249.454L65.747 241.418L66.7429 241.327L66.0124 233.291L65.0165 233.381L64.2859 225.345L65.2818 225.255L64.5512 217.218L63.5553 217.309L62.8248 209.273L63.8207 209.182L63.0901 201.146L62.0942 201.236L61.3636 193.2L62.3595 193.11L61.629 185.073L60.6331 185.164L59.9025 177.128L60.8984 177.037L60.1678 169.001L59.1719 169.091L58.4414 161.055L59.4373 160.965L58.7067 152.928L57.7108 153.019L56.9802 144.983L57.9761 144.892L57.2456 136.856L56.2497 136.947L55.5191 128.91L56.515 128.82L55.7844 120.784L54.7885 120.874L54.058 112.838L55.0539 112.747L54.3233 104.711L53.3274 104.802L52.5968 96.7654L53.5927 96.6749L53.2274 92.6566C53.11 91.3652 53.0396 90.0821 53.0147 88.8088L52.0149 88.8284C51.9629 86.1749 52.1047 83.5626 52.4272 81.0047L53.4193 81.1297C53.7438 78.5559 54.2546 76.0384 54.9377 73.5912L53.9745 73.3223C54.6825 70.786 55.5722 68.3238 56.6286 65.9508L57.5421 66.3575C58.5901 64.0033 59.8054 61.7383 61.1728 59.5779L60.3278 59.0431C61.7291 56.8293 63.287 54.7234 64.9859 52.7414L65.7451 53.3922C67.4158 51.4432 69.2253 49.6162 71.1581 47.9269L70.5001 47.174C72.4656 45.4561 74.5564 43.878 76.7566 42.4555L77.2995 43.2953C79.4467 41.9071 81.6999 40.6702 84.0439 39.5996L83.6284 38.69C85.9912 37.6108 88.4447 36.6975 90.974 35.9651L91.2522 36.9257C93.6927 36.219 96.2052 35.6841 98.7758 35.3349L98.6412 34.344C101.196 33.9969 103.807 33.83 106.461 33.8564L106.451 34.8564C107.724 34.8691 109.008 34.9271 110.3 35.0321L114.299 35.3569L114.38 34.3602L122.378 35.0098L122.298 36.0065L130.296 36.6561L130.377 35.6594L138.375 36.309L138.294 37.3057L146.292 37.9553L146.373 36.9586L154.371 37.6082L154.29 38.6049L162.288 39.2545L162.369 38.2578L170.368 38.9074L170.287 39.9041L178.285 40.5537L178.366 39.557L186.364 40.2066L186.283 41.2033L194.281 41.8529L194.362 40.8562L202.36 41.5058L202.279 42.5025L210.277 43.1521L210.358 42.1554L218.357 42.805L218.276 43.8017L226.274 44.4513L226.355 43.4546L234.353 44.1042L234.272 45.1009L242.27 45.7505L242.351 44.7538L250.349 45.4034L250.268 46.4001L258.267 47.0497L258.347 46.053L266.346 46.7026L266.265 47.6993L274.263 48.3489L274.344 47.3522L282.342 48.0018L282.261 48.9985L290.259 49.6481L290.34 48.6514L298.338 49.301L298.257 50.2977L306.256 50.9473L306.336 49.9506L314.335 50.6002L314.254 51.5969L322.252 52.2465L322.333 51.2498L330.331 51.8994L330.25 52.8961L338.248 53.5457L338.329 52.549L346.327 53.1986L346.246 54.1953L354.245 54.8449L354.325 53.8482L362.324 54.4978L362.243 55.4945L370.241 56.1441L370.322 55.1474L378.32 55.797L378.239 56.7937L386.237 57.4433L386.318 56.4466L394.316 57.0962L394.235 58.0929L402.234 58.7425L402.315 57.7458L410.313 58.3954L410.232 59.3921L418.23 60.0417L418.311 59.045L426.309 59.6946L426.228 60.6913L434.226 61.3409L434.307 60.3442L442.305 60.9938L442.224 61.9906L450.223 62.6401L450.303 61.6434L458.302 62.293L458.221 63.2898L466.219 63.9394L466.3 62.9426L474.298 63.5922L474.217 64.589L482.215 65.2386L482.296 64.2418L490.294 64.8914L490.213 65.8882L498.212 66.5378L498.293 65.541L506.291 66.1906L506.21 67.1874L514.208 67.837L514.289 66.8402L522.287 67.4898L522.206 68.4866L530.204 69.1362L530.285 68.1394L538.283 68.789L538.202 69.7858L546.201 70.4354L546.282 69.4386L554.28 70.0882L554.199 71.085L562.197 71.7346L562.278 70.7378L570.276 71.3874L570.195 72.3842L578.193 73.0338L578.274 72.037L586.272 72.6866L586.191 73.6834L594.19 74.333L594.271 73.3362L602.269 73.9858L602.188 74.9826L610.186 75.6322L610.267 74.6354L618.265 75.285L618.184 76.2818L626.182 76.9314L626.263 75.9346L634.261 76.5842L634.18 77.581L642.179 78.2306L642.26 77.2339L650.258 77.8835L650.177 78.8802L658.175 79.5298L658.256 78.5331L666.254 79.1827L666.173 80.1794L674.171 80.829L674.252 79.8323L682.251 80.4819L682.17 81.4786L690.168 82.1282L690.249 81.1315L698.247 81.7811L698.166 82.7778L706.164 83.4274L706.245 82.4307L714.243 83.0803L714.163 84.077L718.162 84.4018C719.568 84.5161 720.954 84.6827 722.318 84.8994L722.475 83.9118C725.33 84.3654 728.091 85.0347 730.746 85.8994L730.436 86.8502C733.12 87.7243 735.693 88.8019 738.142 90.0612L738.599 89.1718C741.145 90.4808 743.559 91.9824 745.829 93.6534L745.236 94.4586C747.49 96.1186 749.599 97.949 751.547 99.926L752.259 99.2241C754.256 101.251 756.087 103.429 757.738 105.733L756.925 106.315C758.549 108.582 759.994 110.972 761.247 113.463L762.14 113.013C763.414 115.546 764.492 118.179 765.359 120.889L764.406 121.194C765.252 123.838 765.893 126.555 766.316 129.322L767.304 129.171C767.73 131.957 767.938 134.793 767.914 137.655L766.914 137.647C766.892 140.401 766.651 143.18 766.178 145.963L767.164 146.13C766.696 148.883 766.006 151.639 765.082 154.378L764.134 154.058C763.692 155.366 763.196 156.671 762.644 157.97L761.058 161.699L761.978 162.09L758.807 169.548L757.886 169.157L754.715 176.615L755.635 177.006L752.463 184.464L751.543 184.073L748.371 191.531L749.291 191.922L746.12 199.38L745.199 198.989L742.028 206.447L742.948 206.838L739.776 214.296L738.856 213.905L735.684 221.363L736.605 221.754L733.433 229.212L732.513 228.821L729.341 236.279L730.261 236.67L727.089 244.128L726.169 243.737L722.997 251.195L723.918 251.586L720.746 259.044L719.826 258.653L716.654 266.111L717.574 266.502L714.403 273.961L713.482 273.569L710.311 281.027L711.231 281.419L708.059 288.877L707.139 288.485L703.967 295.943L704.888 296.335L701.716 303.793L700.796 303.401L697.624 310.859L698.544 311.251L695.372 318.709L694.452 318.317L691.28 325.775L692.201 326.167L689.029 333.625L688.109 333.233L684.937 340.692L685.857 341.083L682.686 348.541L681.765 348.15L678.594 355.608L679.514 355.999L676.342 363.457L675.422 363.066L672.25 370.524L673.17 370.915L669.999 378.373L669.078 377.982L665.907 385.44L666.827 385.831L663.655 393.289L662.735 392.898L659.563 400.356L660.484 400.747L657.312 408.205L656.392 407.814L653.22 415.272L654.14 415.663L650.968 423.121L650.048 422.73L646.877 430.188L647.797 430.579L644.625 438.037L643.705 437.646L640.533 445.104L641.453 445.495L638.282 452.953L637.361 452.562L635.776 456.291C635.252 457.523 634.684 458.729 634.074 459.908L634.962 460.367C633.707 462.793 632.277 465.106 630.689 467.292L629.88 466.704C628.309 468.866 626.58 470.901 624.711 472.793L625.423 473.495C623.514 475.428 621.462 477.214 619.285 478.838L618.687 478.036C616.555 479.626 614.302 481.057 611.943 482.315L612.414 483.197C610.03 484.468 607.542 485.566 604.966 486.474L604.633 485.531C603.381 485.973 602.108 486.369 600.816 486.717L596.9 487.775L597.161 488.74L589.328 490.855L589.068 489.889L581.235 492.004L581.496 492.969L573.663 495.084L573.403 494.118L565.57 496.233L565.831 497.198L557.998 499.312L557.738 498.347L549.905 500.462L550.166 501.427L542.333 503.541L542.073 502.576L534.24 504.69L534.501 505.656L526.668 507.77L526.408 506.805L518.575 508.919L518.836 509.885L511.003 511.999L510.743 511.034L502.91 513.148L503.171 514.114L495.338 516.228L495.078 515.263L487.245 517.377L487.506 518.343L479.673 520.457L479.413 519.492L471.58 521.606L471.841 522.572L464.008 524.686L463.747 523.721L455.915 525.835L456.176 526.801L448.343 528.915L448.083 527.95L440.25 530.064L440.511 531.03L432.678 533.144L432.417 532.179L424.585 534.293L424.846 535.259L417.013 537.373L416.752 536.408L408.92 538.522L409.181 539.488L401.348 541.602L401.087 540.637L393.255 542.751L393.516 543.717L385.683 545.831L385.422 544.866L377.59 546.98L377.851 547.946L370.018 550.06L369.757 549.095L361.925 551.209L362.186 552.174L354.353 554.289L354.092 553.323L346.26 555.438L346.521 556.403L338.688 558.518L338.427 557.552L330.595 559.667L330.856 560.632L323.023 562.747L322.762 561.781L314.93 563.896L315.191 564.861L307.358 566.976L307.098 566.01L299.265 568.125L299.526 569.09L291.693 571.205L291.433 570.239L283.6 572.354L283.861 573.319L276.028 575.434L275.768 574.468L267.935 576.583L268.196 577.548L260.363 579.663L260.103 578.697L252.27 580.812L252.531 581.777L244.698 583.892L244.438 582.926L236.605 585.041L236.866 586.006L229.033 588.121L228.773 587.155L220.94 589.27L221.201 590.235L213.368 592.349L213.108 591.384L205.275 593.499L205.536 594.464L197.703 596.578L197.443 595.613L189.61 597.727L189.871 598.693L182.038 600.807L181.778 599.842L173.945 601.956L174.206 602.922L166.373 605.036L166.113 604.071L162.196 605.128Z" stroke="#6E68FA" stroke-width="2" stroke-dasharray="8 8"></path><path d="M129.952 101.093L633.127 45.7595C669.095 41.8041 698.363 74.2571 690.726 109.627L626.585 406.712C622.505 425.609 608.459 440.786 589.934 446.314L204.641 561.284C173.764 570.497 141.877 550.255 137.077 518.392L83.3367 161.671C78.8524 131.904 100.03 104.383 129.952 101.093Z" stroke="#0AE7FE" stroke-width="2"></path><circle cx="219.5" cy="674.5" r="56.5" stroke="#0AE7FE" stroke-width="2"></circle></svg> 