<?xml version="1.0" encoding="UTF-8"?> <svg xmlns="http://www.w3.org/2000/svg" width="116" height="152" viewBox="0 0 116 152" fill="none"><path d="M85.0632 92.5165L84.9199 84.7622" stroke="white" stroke-width="4" stroke-linecap="round" stroke-linejoin="round"></path><path d="M62.0133 105.505L62.3117 121.647L51.4711 121.848C50.1424 121.872 49.528 122.927 49.2804 123.545C48.7664 124.87 48.981 126.522 49.7861 127.305L72.1037 148.8C73.665 150.298 76.152 150.252 77.6433 148.697L99.056 126.394C99.8851 125.527 100.114 123.893 99.5729 122.649C99.0963 121.567 98.1379 120.978 96.8706 121.002L85.5939 121.21L85.251 102.656" stroke="white" stroke-width="4" stroke-linecap="round"></path><path d="M19.724 44.142L19.6172 38.3638" stroke="white" stroke-width="4" stroke-linecap="round" stroke-linejoin="round"></path><path d="M50.788 31.8235L50.6904 26.5427" stroke="white" stroke-width="4" stroke-linecap="round" stroke-linejoin="round"></path><path d="M51.1483 51.2976L50.9736 41.8467" stroke="white" stroke-width="4" stroke-linecap="round" stroke-linejoin="round"></path><path d="M19.9021 53.7973L20.3255 76.7058L5.76464 76.9749C3.97263 77.008 3.15355 78.4205 2.82129 79.2514C2.13179 81.0364 2.41813 83.2532 3.50084 84.3034L33.4934 113.182C35.589 115.195 38.9346 115.133 40.934 113.044L69.7027 83.0798C70.8195 81.9209 71.1265 79.7204 70.4004 78.0502C69.7599 76.5897 68.4641 75.8093 66.7674 75.8338L51.6137 76.1139L51.3265 60.5713" stroke="white" stroke-width="4" stroke-linecap="round"></path><path d="M104.121 19.5159L72.8558 66.7308" stroke="white" stroke-width="4" stroke-miterlimit="10" stroke-linecap="round"></path><path d="M81.5159 26.3614C81.6078 31.3356 77.6487 35.444 72.6815 35.5358C67.7143 35.6276 63.6061 31.6683 63.5141 26.6941C63.4222 21.7199 67.3745 17.6116 72.3485 17.5197C77.3225 17.4278 81.424 21.3872 81.5159 26.3614Z" stroke="white" stroke-width="4" stroke-miterlimit="10" stroke-linecap="round"></path><path d="M113.462 59.5527C113.554 64.5269 109.595 68.6353 104.621 68.7272C99.6468 68.8192 95.5454 64.8597 95.4535 59.8855C95.3615 54.9113 99.3208 50.8097 104.288 50.7179C109.255 50.6261 113.37 54.5853 113.462 59.5527Z" stroke="white" stroke-width="4" stroke-miterlimit="10" stroke-linecap="round"></path><path d="M36.3357 65.6131L35.8545 39.5769" stroke="white" stroke-width="4" stroke-linecap="round" stroke-linejoin="round"></path><path d="M35.6695 29.5534L35.4297 16.5796" stroke="white" stroke-width="4" stroke-linecap="round" stroke-linejoin="round"></path><path d="M35.2442 6.54945L35.168 2.427" stroke="white" stroke-width="4" stroke-linecap="round" stroke-linejoin="round"></path></svg> 