<svg width="316" height="321" viewBox="0 0 316 321" fill="none" xmlns="http://www.w3.org/2000/svg">
<g clip-path="url(#clip0_362_127)">
<g filter="url(#filter0_d_362_127)">
<path d="M15 27C15 18.7157 21.7157 12 30 12H388C396.284 12 403 18.7157 403 27V776C403 784.284 396.284 791 388 791H30C21.7157 791 15 784.284 15 776V27Z" fill="white"/>
</g>
<mask id="mask0_362_127" style="mask-type:alpha" maskUnits="userSpaceOnUse" x="31" y="22" width="356" height="762">
<path d="M31 37C31 28.7157 37.7157 22 46 22H372C380.284 22 387 28.7157 387 37V769C387 777.284 380.284 784 372 784H46C37.7157 784 31 777.284 31 769V37Z" fill="white"/>
</mask>
<g mask="url(#mask0_362_127)">
<path d="M41.58 49.126C40.704 49.126 39.912 48.976 39.204 48.676C38.508 48.376 37.956 47.944 37.548 47.38C37.14 46.816 36.93 46.15 36.918 45.382H39.618C39.654 45.898 39.834 46.306 40.158 46.606C40.494 46.906 40.95 47.056 41.526 47.056C42.114 47.056 42.576 46.918 42.912 46.642C43.248 46.354 43.416 45.982 43.416 45.526C43.416 45.154 43.302 44.848 43.074 44.608C42.846 44.368 42.558 44.182 42.21 44.05C41.874 43.906 41.406 43.75 40.806 43.582C39.99 43.342 39.324 43.108 38.808 42.88C38.304 42.64 37.866 42.286 37.494 41.818C37.134 41.338 36.954 40.702 36.954 39.91C36.954 39.166 37.14 38.518 37.512 37.966C37.884 37.414 38.406 36.994 39.078 36.706C39.75 36.406 40.518 36.256 41.382 36.256C42.678 36.256 43.728 36.574 44.532 37.21C45.348 37.834 45.798 38.71 45.882 39.838H43.11C43.086 39.406 42.9 39.052 42.552 38.776C42.216 38.488 41.766 38.344 41.202 38.344C40.71 38.344 40.314 38.47 40.014 38.722C39.726 38.974 39.582 39.34 39.582 39.82C39.582 40.156 39.69 40.438 39.906 40.666C40.134 40.882 40.41 41.062 40.734 41.206C41.07 41.338 41.538 41.494 42.138 41.674C42.954 41.914 43.62 42.154 44.136 42.394C44.652 42.634 45.096 42.994 45.468 43.474C45.84 43.954 46.026 44.584 46.026 45.364C46.026 46.036 45.852 46.66 45.504 47.236C45.156 47.812 44.646 48.274 43.974 48.622C43.302 48.958 42.504 49.126 41.58 49.126ZM47.5627 44.014C47.5627 42.982 47.7728 42.082 48.1928 41.314C48.6128 40.534 49.1948 39.934 49.9388 39.514C50.6828 39.082 51.5348 38.866 52.4948 38.866C53.7308 38.866 54.7508 39.178 55.5548 39.802C56.3708 40.414 56.9168 41.278 57.1928 42.394H54.4748C54.3308 41.962 54.0848 41.626 53.7368 41.386C53.4008 41.134 52.9808 41.008 52.4768 41.008C51.7568 41.008 51.1868 41.272 50.7668 41.8C50.3468 42.316 50.1368 43.054 50.1368 44.014C50.1368 44.962 50.3468 45.7 50.7668 46.228C51.1868 46.744 51.7568 47.002 52.4768 47.002C53.4968 47.002 54.1628 46.546 54.4748 45.634H57.1928C56.9168 46.714 56.3708 47.572 55.5548 48.208C54.7388 48.844 53.7188 49.162 52.4948 49.162C51.5348 49.162 50.6828 48.952 49.9388 48.532C49.1948 48.1 48.6128 47.5 48.1928 46.732C47.7728 45.952 47.5627 45.046 47.5627 44.014ZM63.4669 49.162C62.5069 49.162 61.6429 48.952 60.8749 48.532C60.1069 48.1 59.5009 47.494 59.0569 46.714C58.6249 45.934 58.4089 45.034 58.4089 44.014C58.4089 42.994 58.6309 42.094 59.0749 41.314C59.5309 40.534 60.1489 39.934 60.9289 39.514C61.7089 39.082 62.5789 38.866 63.5389 38.866C64.4989 38.866 65.3689 39.082 66.1489 39.514C66.9289 39.934 67.5409 40.534 67.9849 41.314C68.4409 42.094 68.6689 42.994 68.6689 44.014C68.6689 45.034 68.4349 45.934 67.9669 46.714C67.5109 47.494 66.8869 48.1 66.0949 48.532C65.3149 48.952 64.4389 49.162 63.4669 49.162ZM63.4669 46.966C63.9229 46.966 64.3489 46.858 64.7449 46.642C65.1529 46.414 65.4769 46.078 65.7169 45.634C65.9569 45.19 66.0769 44.65 66.0769 44.014C66.0769 43.066 65.8249 42.34 65.3209 41.836C64.8289 41.32 64.2229 41.062 63.5029 41.062C62.7829 41.062 62.1769 41.32 61.6849 41.836C61.2049 42.34 60.9649 43.066 60.9649 44.014C60.9649 44.962 61.1989 45.694 61.6669 46.21C62.1469 46.714 62.7469 46.966 63.4669 46.966ZM73.0374 40.576C73.3614 40.048 73.7814 39.634 74.2974 39.334C74.8254 39.034 75.4254 38.884 76.0974 38.884V41.53H75.4314C74.6394 41.53 74.0394 41.716 73.6314 42.088C73.2354 42.46 73.0374 43.108 73.0374 44.032V49H70.5174V39.028H73.0374V40.576ZM87.0647 43.798C87.0647 44.158 87.0407 44.482 86.9927 44.77H79.7027C79.7627 45.49 80.0147 46.054 80.4587 46.462C80.9027 46.87 81.4487 47.074 82.0967 47.074C83.0327 47.074 83.6987 46.672 84.0947 45.868H86.8127C86.5247 46.828 85.9727 47.62 85.1567 48.244C84.3407 48.856 83.3387 49.162 82.1507 49.162C81.1907 49.162 80.3267 48.952 79.5587 48.532C78.8027 48.1 78.2087 47.494 77.7767 46.714C77.3567 45.934 77.1467 45.034 77.1467 44.014C77.1467 42.982 77.3567 42.076 77.7767 41.296C78.1967 40.516 78.7847 39.916 79.5407 39.496C80.2967 39.076 81.1667 38.866 82.1507 38.866C83.0987 38.866 83.9447 39.07 84.6887 39.478C85.4447 39.886 86.0267 40.468 86.4347 41.224C86.8547 41.968 87.0647 42.826 87.0647 43.798ZM84.4547 43.078C84.4427 42.43 84.2087 41.914 83.7527 41.53C83.2967 41.134 82.7387 40.936 82.0787 40.936C81.4547 40.936 80.9267 41.128 80.4947 41.512C80.0747 41.884 79.8167 42.406 79.7207 43.078H84.4547ZM92.5812 42.7C92.5812 41.464 92.8572 40.36 93.4092 39.388C93.9732 38.404 94.7352 37.642 95.6952 37.102C96.6672 36.55 97.7532 36.274 98.9532 36.274C100.357 36.274 101.587 36.634 102.643 37.354C103.699 38.074 104.437 39.07 104.857 40.342H101.959C101.671 39.742 101.263 39.292 100.735 38.992C100.219 38.692 99.6192 38.542 98.9352 38.542C98.2032 38.542 97.5492 38.716 96.9732 39.064C96.4092 39.4 95.9652 39.88 95.6412 40.504C95.3292 41.128 95.1732 41.86 95.1732 42.7C95.1732 43.528 95.3292 44.26 95.6412 44.896C95.9652 45.52 96.4092 46.006 96.9732 46.354C97.5492 46.69 98.2032 46.858 98.9352 46.858C99.6192 46.858 100.219 46.708 100.735 46.408C101.263 46.096 101.671 45.64 101.959 45.04H104.857C104.437 46.324 103.699 47.326 102.643 48.046C101.599 48.754 100.369 49.108 98.9532 49.108C97.7532 49.108 96.6672 48.838 95.6952 48.298C94.7352 47.746 93.9732 46.984 93.4092 46.012C92.8572 45.04 92.5812 43.936 92.5812 42.7ZM116.28 43.798C116.28 44.158 116.256 44.482 116.208 44.77H108.918C108.978 45.49 109.23 46.054 109.674 46.462C110.118 46.87 110.664 47.074 111.312 47.074C112.248 47.074 112.914 46.672 113.31 45.868H116.028C115.74 46.828 115.188 47.62 114.372 48.244C113.556 48.856 112.554 49.162 111.366 49.162C110.406 49.162 109.542 48.952 108.774 48.532C108.018 48.1 107.424 47.494 106.992 46.714C106.572 45.934 106.362 45.034 106.362 44.014C106.362 42.982 106.572 42.076 106.992 41.296C107.412 40.516 108 39.916 108.756 39.496C109.512 39.076 110.382 38.866 111.366 38.866C112.314 38.866 113.16 39.07 113.904 39.478C114.66 39.886 115.242 40.468 115.65 41.224C116.07 41.968 116.28 42.826 116.28 43.798ZM113.67 43.078C113.658 42.43 113.424 41.914 112.968 41.53C112.512 41.134 111.954 40.936 111.294 40.936C110.67 40.936 110.142 41.128 109.71 41.512C109.29 41.884 109.032 42.406 108.936 43.078H113.67ZM123.645 38.884C124.833 38.884 125.793 39.262 126.525 40.018C127.257 40.762 127.623 41.806 127.623 43.15V49H125.103V43.492C125.103 42.7 124.905 42.094 124.509 41.674C124.113 41.242 123.573 41.026 122.889 41.026C122.193 41.026 121.641 41.242 121.233 41.674C120.837 42.094 120.639 42.7 120.639 43.492V49H118.119V39.028H120.639V40.27C120.975 39.838 121.401 39.502 121.917 39.262C122.445 39.01 123.021 38.884 123.645 38.884ZM132.953 41.098V45.922C132.953 46.258 133.031 46.504 133.187 46.66C133.355 46.804 133.631 46.876 134.015 46.876H135.185V49H133.601C131.477 49 130.415 47.968 130.415 45.904V41.098H129.227V39.028H130.415V36.562H132.953V39.028H135.185V41.098H132.953ZM146.268 43.798C146.268 44.158 146.244 44.482 146.196 44.77H138.906C138.966 45.49 139.218 46.054 139.662 46.462C140.106 46.87 140.652 47.074 141.3 47.074C142.236 47.074 142.902 46.672 143.298 45.868H146.016C145.728 46.828 145.176 47.62 144.36 48.244C143.544 48.856 142.542 49.162 141.354 49.162C140.394 49.162 139.53 48.952 138.762 48.532C138.006 48.1 137.412 47.494 136.98 46.714C136.56 45.934 136.35 45.034 136.35 44.014C136.35 42.982 136.56 42.076 136.98 41.296C137.4 40.516 137.988 39.916 138.744 39.496C139.5 39.076 140.37 38.866 141.354 38.866C142.302 38.866 143.148 39.07 143.892 39.478C144.648 39.886 145.23 40.468 145.638 41.224C146.058 41.968 146.268 42.826 146.268 43.798ZM143.658 43.078C143.646 42.43 143.412 41.914 142.956 41.53C142.5 41.134 141.942 40.936 141.282 40.936C140.658 40.936 140.13 41.128 139.698 41.512C139.278 41.884 139.02 42.406 138.924 43.078H143.658ZM150.627 40.576C150.951 40.048 151.371 39.634 151.887 39.334C152.415 39.034 153.015 38.884 153.687 38.884V41.53H153.021C152.229 41.53 151.629 41.716 151.221 42.088C150.825 42.46 150.627 43.108 150.627 44.032V49H148.107V39.028H150.627V40.576Z" fill="#464A4E"/>
<path d="M381.071 91H35.9286C33.7589 91 32 92.7589 32 94.9286V126.071C32 128.241 33.7589 130 35.9286 130H381.071C383.241 130 385 128.241 385 126.071V94.9286C385 92.7589 383.241 91 381.071 91Z" fill="#F5F5FA"/>
<g filter="url(#filter1_d_362_127)">
<path d="M261.071 94H154.929C152.759 94 151 95.7589 151 97.9286V122.071C151 124.241 152.759 126 154.929 126H261.071C263.241 126 265 124.241 265 122.071V97.9286C265 95.7589 263.241 94 261.071 94Z" fill="white"/>
</g>
<path d="M56.8183 107.27V108.572H54.2283V117H52.6323V108.572H50.0283V107.27H56.8183ZM60.0307 110.406C60.264 110.014 60.572 109.711 60.9547 109.496C61.3467 109.272 61.8087 109.16 62.3407 109.16V110.812H61.9347C61.3093 110.812 60.8333 110.971 60.5067 111.288C60.1893 111.605 60.0307 112.156 60.0307 112.94V117H58.4347V109.286H60.0307V110.406ZM63.2757 113.108C63.2757 112.333 63.4344 111.647 63.7517 111.05C64.0784 110.453 64.517 109.991 65.0677 109.664C65.6277 109.328 66.2437 109.16 66.9157 109.16C67.5224 109.16 68.0497 109.281 68.4977 109.524C68.955 109.757 69.319 110.051 69.5897 110.406V109.286H71.1997V117H69.5897V115.852C69.319 116.216 68.9504 116.519 68.4837 116.762C68.017 117.005 67.485 117.126 66.8877 117.126C66.225 117.126 65.6184 116.958 65.0677 116.622C64.517 116.277 64.0784 115.801 63.7517 115.194C63.4344 114.578 63.2757 113.883 63.2757 113.108ZM69.5897 113.136C69.5897 112.604 69.4777 112.142 69.2537 111.75C69.039 111.358 68.7544 111.059 68.3997 110.854C68.045 110.649 67.6624 110.546 67.2517 110.546C66.841 110.546 66.4584 110.649 66.1037 110.854C65.749 111.05 65.4597 111.344 65.2357 111.736C65.021 112.119 64.9137 112.576 64.9137 113.108C64.9137 113.64 65.021 114.107 65.2357 114.508C65.4597 114.909 65.749 115.217 66.1037 115.432C66.4677 115.637 66.8504 115.74 67.2517 115.74C67.6624 115.74 68.045 115.637 68.3997 115.432C68.7544 115.227 69.039 114.928 69.2537 114.536C69.4777 114.135 69.5897 113.668 69.5897 113.136ZM77.188 109.16C77.7947 109.16 78.336 109.286 78.812 109.538C79.2973 109.79 79.6753 110.163 79.946 110.658C80.2167 111.153 80.352 111.75 80.352 112.45V117H78.77V112.688C78.77 111.997 78.5973 111.47 78.252 111.106C77.9067 110.733 77.4353 110.546 76.838 110.546C76.2407 110.546 75.7647 110.733 75.41 111.106C75.0647 111.47 74.892 111.997 74.892 112.688V117H73.296V109.286H74.892V110.168C75.1533 109.851 75.4847 109.603 75.886 109.426C76.2967 109.249 76.7307 109.16 77.188 109.16ZM85.1878 117.126C84.5811 117.126 84.0351 117.019 83.5498 116.804C83.0738 116.58 82.6958 116.281 82.4158 115.908C82.1358 115.525 81.9865 115.101 81.9678 114.634H83.6198C83.6478 114.961 83.8018 115.236 84.0818 115.46C84.3711 115.675 84.7305 115.782 85.1598 115.782C85.6078 115.782 85.9531 115.698 86.1958 115.53C86.4478 115.353 86.5738 115.129 86.5738 114.858C86.5738 114.569 86.4338 114.354 86.1538 114.214C85.8831 114.074 85.4491 113.92 84.8518 113.752C84.2731 113.593 83.8018 113.439 83.4378 113.29C83.0738 113.141 82.7565 112.912 82.4858 112.604C82.2245 112.296 82.0938 111.89 82.0938 111.386C82.0938 110.975 82.2151 110.602 82.4578 110.266C82.7005 109.921 83.0458 109.65 83.4938 109.454C83.9511 109.258 84.4738 109.16 85.0618 109.16C85.9391 109.16 86.6438 109.384 87.1758 109.832C87.7171 110.271 88.0065 110.873 88.0438 111.638H86.4478C86.4198 111.293 86.2798 111.017 86.0278 110.812C85.7758 110.607 85.4351 110.504 85.0058 110.504C84.5858 110.504 84.2638 110.583 84.0398 110.742C83.8158 110.901 83.7038 111.111 83.7038 111.372C83.7038 111.577 83.7785 111.75 83.9278 111.89C84.0771 112.03 84.2591 112.142 84.4738 112.226C84.6885 112.301 85.0058 112.399 85.4258 112.52C85.9858 112.669 86.4431 112.823 86.7978 112.982C87.1618 113.131 87.4745 113.355 87.7358 113.654C87.9971 113.953 88.1325 114.349 88.1418 114.844C88.1418 115.283 88.0205 115.675 87.7778 116.02C87.5351 116.365 87.1898 116.636 86.7418 116.832C86.3031 117.028 85.7851 117.126 85.1878 117.126ZM91.4483 107.27V113.472C91.4483 114.209 91.6396 114.765 92.0223 115.138C92.4143 115.511 92.9556 115.698 93.6463 115.698C94.3463 115.698 94.8876 115.511 95.2703 115.138C95.6623 114.765 95.8583 114.209 95.8583 113.472V107.27H97.4543V113.444C97.4543 114.237 97.2816 114.909 96.9363 115.46C96.591 116.011 96.129 116.421 95.5503 116.692C94.9716 116.963 94.3323 117.098 93.6323 117.098C92.9323 117.098 92.293 116.963 91.7143 116.692C91.145 116.421 90.6923 116.011 90.3563 115.46C90.0203 114.909 89.8523 114.237 89.8523 113.444V107.27H91.4483ZM103.424 109.16C104.031 109.16 104.572 109.286 105.048 109.538C105.534 109.79 105.912 110.163 106.182 110.658C106.453 111.153 106.588 111.75 106.588 112.45V117H105.006V112.688C105.006 111.997 104.834 111.47 104.488 111.106C104.143 110.733 103.672 110.546 103.074 110.546C102.477 110.546 102.001 110.733 101.646 111.106C101.301 111.47 101.128 111.997 101.128 112.688V117H99.5323V109.286H101.128V110.168C101.39 109.851 101.721 109.603 102.122 109.426C102.533 109.249 102.967 109.16 103.424 109.16ZM109.436 108.264C109.147 108.264 108.904 108.166 108.708 107.97C108.512 107.774 108.414 107.531 108.414 107.242C108.414 106.953 108.512 106.71 108.708 106.514C108.904 106.318 109.147 106.22 109.436 106.22C109.716 106.22 109.954 106.318 110.15 106.514C110.346 106.71 110.444 106.953 110.444 107.242C110.444 107.531 110.346 107.774 110.15 107.97C109.954 108.166 109.716 108.264 109.436 108.264ZM110.22 109.286V117H108.624V109.286H110.22ZM115.662 117.126C114.934 117.126 114.276 116.963 113.688 116.636C113.1 116.3 112.638 115.833 112.302 115.236C111.966 114.629 111.798 113.929 111.798 113.136C111.798 112.352 111.97 111.657 112.316 111.05C112.661 110.443 113.132 109.977 113.73 109.65C114.327 109.323 114.994 109.16 115.732 109.16C116.469 109.16 117.136 109.323 117.734 109.65C118.331 109.977 118.802 110.443 119.148 111.05C119.493 111.657 119.666 112.352 119.666 113.136C119.666 113.92 119.488 114.615 119.134 115.222C118.779 115.829 118.294 116.3 117.678 116.636C117.071 116.963 116.399 117.126 115.662 117.126ZM115.662 115.74C116.072 115.74 116.455 115.642 116.81 115.446C117.174 115.25 117.468 114.956 117.692 114.564C117.916 114.172 118.028 113.696 118.028 113.136C118.028 112.576 117.92 112.105 117.706 111.722C117.491 111.33 117.206 111.036 116.852 110.84C116.497 110.644 116.114 110.546 115.704 110.546C115.293 110.546 114.91 110.644 114.556 110.84C114.21 111.036 113.935 111.33 113.73 111.722C113.524 112.105 113.422 112.576 113.422 113.136C113.422 113.967 113.632 114.611 114.052 115.068C114.481 115.516 115.018 115.74 115.662 115.74ZM125.135 109.16C125.742 109.16 126.283 109.286 126.759 109.538C127.245 109.79 127.623 110.163 127.893 110.658C128.164 111.153 128.299 111.75 128.299 112.45V117H126.717V112.688C126.717 111.997 126.545 111.47 126.199 111.106C125.854 110.733 125.383 110.546 124.785 110.546C124.188 110.546 123.712 110.733 123.357 111.106C123.012 111.47 122.839 111.997 122.839 112.688V117H121.243V109.286H122.839V110.168C123.101 109.851 123.432 109.603 123.833 109.426C124.244 109.249 124.678 109.16 125.135 109.16ZM132.911 107.13C133.471 107.13 133.97 107.256 134.409 107.508C134.857 107.76 135.202 108.11 135.445 108.558C135.697 108.997 135.823 109.496 135.823 110.056C135.823 110.616 135.697 111.12 135.445 111.568C135.202 112.007 134.857 112.352 134.409 112.604C133.97 112.856 133.471 112.982 132.911 112.982C132.351 112.982 131.847 112.856 131.399 112.604C130.96 112.352 130.615 112.007 130.363 111.568C130.111 111.12 129.985 110.616 129.985 110.056C129.985 109.496 130.111 108.997 130.363 108.558C130.615 108.11 130.96 107.76 131.399 107.508C131.847 107.256 132.351 107.13 132.911 107.13ZM132.911 112.338C133.583 112.338 134.12 112.128 134.521 111.708C134.932 111.288 135.137 110.737 135.137 110.056C135.137 109.375 134.932 108.824 134.521 108.404C134.12 107.984 133.583 107.774 132.911 107.774C132.23 107.774 131.688 107.984 131.287 108.404C130.886 108.824 130.685 109.375 130.685 110.056C130.685 110.737 130.886 111.288 131.287 111.708C131.688 112.128 132.23 112.338 132.911 112.338ZM134.199 109.496C134.199 109.701 134.148 109.883 134.045 110.042C133.942 110.191 133.802 110.303 133.625 110.378L134.367 111.526H133.303L132.687 110.476H132.589V111.526H131.707V108.516H133.121C133.448 108.516 133.709 108.609 133.905 108.796C134.101 108.973 134.199 109.207 134.199 109.496ZM132.589 109.762H133.065C133.14 109.762 133.2 109.743 133.247 109.706C133.303 109.659 133.331 109.599 133.331 109.524C133.331 109.449 133.303 109.393 133.247 109.356C133.2 109.319 133.14 109.3 133.065 109.3H132.589V109.762Z" fill="#9A9A9A"/>
<path d="M178.979 107.558V110.414H182.339V111.716H178.979V114.698H182.759V116H177.383V106.256H182.759V107.558H178.979ZM188.029 112.094L190.521 116H188.715L187.049 113.382L185.481 116H183.815L186.307 112.206L183.815 108.286H185.621L187.287 110.904L188.855 108.286H190.521L188.029 112.094ZM193.307 109.42C193.578 109.065 193.946 108.767 194.413 108.524C194.88 108.281 195.407 108.16 195.995 108.16C196.667 108.16 197.278 108.328 197.829 108.664C198.389 108.991 198.828 109.453 199.145 110.05C199.462 110.647 199.621 111.333 199.621 112.108C199.621 112.883 199.462 113.578 199.145 114.194C198.828 114.801 198.389 115.277 197.829 115.622C197.278 115.958 196.667 116.126 195.995 116.126C195.407 116.126 194.884 116.009 194.427 115.776C193.97 115.533 193.596 115.235 193.307 114.88V119.668H191.711V108.286H193.307V109.42ZM197.997 112.108C197.997 111.576 197.885 111.119 197.661 110.736C197.446 110.344 197.157 110.05 196.793 109.854C196.438 109.649 196.056 109.546 195.645 109.546C195.244 109.546 194.861 109.649 194.497 109.854C194.142 110.059 193.853 110.358 193.629 110.75C193.414 111.142 193.307 111.604 193.307 112.136C193.307 112.668 193.414 113.135 193.629 113.536C193.853 113.928 194.142 114.227 194.497 114.432C194.861 114.637 195.244 114.74 195.645 114.74C196.056 114.74 196.438 114.637 196.793 114.432C197.157 114.217 197.446 113.909 197.661 113.508C197.885 113.107 197.997 112.64 197.997 112.108ZM208.269 111.954C208.269 112.243 208.251 112.505 208.213 112.738H202.319C202.366 113.354 202.595 113.849 203.005 114.222C203.416 114.595 203.92 114.782 204.517 114.782C205.376 114.782 205.983 114.423 206.337 113.704H208.059C207.826 114.413 207.401 114.997 206.785 115.454C206.179 115.902 205.423 116.126 204.517 116.126C203.78 116.126 203.117 115.963 202.529 115.636C201.951 115.3 201.493 114.833 201.157 114.236C200.831 113.629 200.667 112.929 200.667 112.136C200.667 111.343 200.826 110.647 201.143 110.05C201.47 109.443 201.923 108.977 202.501 108.65C203.089 108.323 203.761 108.16 204.517 108.16C205.245 108.16 205.894 108.319 206.463 108.636C207.033 108.953 207.476 109.401 207.793 109.98C208.111 110.549 208.269 111.207 208.269 111.954ZM206.603 111.45C206.594 110.862 206.384 110.391 205.973 110.036C205.563 109.681 205.054 109.504 204.447 109.504C203.897 109.504 203.425 109.681 203.033 110.036C202.641 110.381 202.408 110.853 202.333 111.45H206.603ZM211.436 109.406C211.669 109.014 211.977 108.711 212.36 108.496C212.752 108.272 213.214 108.16 213.746 108.16V109.812H213.34C212.715 109.812 212.239 109.971 211.912 110.288C211.595 110.605 211.436 111.156 211.436 111.94V116H209.84V108.286H211.436V109.406ZM216.025 107.264C215.736 107.264 215.493 107.166 215.297 106.97C215.101 106.774 215.003 106.531 215.003 106.242C215.003 105.953 215.101 105.71 215.297 105.514C215.493 105.318 215.736 105.22 216.025 105.22C216.305 105.22 216.543 105.318 216.739 105.514C216.935 105.71 217.033 105.953 217.033 106.242C217.033 106.531 216.935 106.774 216.739 106.97C216.543 107.166 216.305 107.264 216.025 107.264ZM216.809 108.286V116H215.213V108.286H216.809ZM218.372 112.108C218.372 111.333 218.531 110.647 218.848 110.05C219.175 109.453 219.614 108.991 220.164 108.664C220.724 108.328 221.34 108.16 222.012 108.16C222.619 108.16 223.146 108.281 223.594 108.524C224.052 108.757 224.416 109.051 224.686 109.406V108.286H226.296V116H224.686V114.852C224.416 115.216 224.047 115.519 223.58 115.762C223.114 116.005 222.582 116.126 221.984 116.126C221.322 116.126 220.715 115.958 220.164 115.622C219.614 115.277 219.175 114.801 218.848 114.194C218.531 113.578 218.372 112.883 218.372 112.108ZM224.686 112.136C224.686 111.604 224.574 111.142 224.35 110.75C224.136 110.358 223.851 110.059 223.496 109.854C223.142 109.649 222.759 109.546 222.348 109.546C221.938 109.546 221.555 109.649 221.2 109.854C220.846 110.05 220.556 110.344 220.332 110.736C220.118 111.119 220.01 111.576 220.01 112.108C220.01 112.64 220.118 113.107 220.332 113.508C220.556 113.909 220.846 114.217 221.2 114.432C221.564 114.637 221.947 114.74 222.348 114.74C222.759 114.74 223.142 114.637 223.496 114.432C223.851 114.227 224.136 113.928 224.35 113.536C224.574 113.135 224.686 112.668 224.686 112.136ZM232.285 108.16C232.891 108.16 233.433 108.286 233.909 108.538C234.394 108.79 234.772 109.163 235.043 109.658C235.313 110.153 235.449 110.75 235.449 111.45V116H233.867V111.688C233.867 110.997 233.694 110.47 233.349 110.106C233.003 109.733 232.532 109.546 231.935 109.546C231.337 109.546 230.861 109.733 230.507 110.106C230.161 110.47 229.989 110.997 229.989 111.688V116H228.393V108.286H229.989V109.168C230.25 108.851 230.581 108.603 230.983 108.426C231.393 108.249 231.827 108.16 232.285 108.16ZM240.061 106.13C240.621 106.13 241.12 106.256 241.559 106.508C242.007 106.76 242.352 107.11 242.595 107.558C242.847 107.997 242.973 108.496 242.973 109.056C242.973 109.616 242.847 110.12 242.595 110.568C242.352 111.007 242.007 111.352 241.559 111.604C241.12 111.856 240.621 111.982 240.061 111.982C239.501 111.982 238.997 111.856 238.549 111.604C238.11 111.352 237.765 111.007 237.513 110.568C237.261 110.12 237.135 109.616 237.135 109.056C237.135 108.496 237.261 107.997 237.513 107.558C237.765 107.11 238.11 106.76 238.549 106.508C238.997 106.256 239.501 106.13 240.061 106.13ZM240.061 111.338C240.733 111.338 241.269 111.128 241.671 110.708C242.081 110.288 242.287 109.737 242.287 109.056C242.287 108.375 242.081 107.824 241.671 107.404C241.269 106.984 240.733 106.774 240.061 106.774C239.379 106.774 238.838 106.984 238.437 107.404C238.035 107.824 237.835 108.375 237.835 109.056C237.835 109.737 238.035 110.288 238.437 110.708C238.838 111.128 239.379 111.338 240.061 111.338ZM241.349 108.496C241.349 108.701 241.297 108.883 241.195 109.042C241.092 109.191 240.952 109.303 240.775 109.378L241.517 110.526H240.453L239.837 109.476H239.739V110.526H238.857V107.516H240.271C240.597 107.516 240.859 107.609 241.055 107.796C241.251 107.973 241.349 108.207 241.349 108.496ZM239.739 108.762H240.215C240.289 108.762 240.35 108.743 240.397 108.706C240.453 108.659 240.481 108.599 240.481 108.524C240.481 108.449 240.453 108.393 240.397 108.356C240.35 108.319 240.289 108.3 240.215 108.3H239.739V108.762Z" fill="#353535"/>
<path d="M296.662 107.558V110.414H300.022V111.716H296.662V114.698H300.442V116H295.066V106.256H300.442V107.558H296.662ZM301.875 112.108C301.875 111.333 302.034 110.647 302.351 110.05C302.678 109.453 303.117 108.991 303.667 108.664C304.227 108.328 304.848 108.16 305.529 108.16C306.127 108.16 306.654 108.281 307.111 108.524C307.578 108.767 307.937 109.061 308.189 109.406V108.286H309.799V119.668H308.189V114.88C307.937 115.225 307.573 115.519 307.097 115.762C306.621 116.005 306.08 116.126 305.473 116.126C304.811 116.126 304.204 115.958 303.653 115.622C303.112 115.277 302.678 114.801 302.351 114.194C302.034 113.578 301.875 112.883 301.875 112.108ZM308.189 112.136C308.189 111.604 308.077 111.142 307.853 110.75C307.639 110.358 307.354 110.059 306.999 109.854C306.645 109.649 306.262 109.546 305.851 109.546C305.441 109.546 305.058 109.649 304.703 109.854C304.349 110.05 304.059 110.344 303.835 110.736C303.621 111.119 303.513 111.576 303.513 112.108C303.513 112.64 303.621 113.107 303.835 113.508C304.059 113.909 304.349 114.217 304.703 114.432C305.067 114.637 305.45 114.74 305.851 114.74C306.262 114.74 306.645 114.637 306.999 114.432C307.354 114.227 307.639 113.928 307.853 113.536C308.077 113.135 308.189 112.668 308.189 112.136ZM318.882 108.286V116H317.286V115.09C317.034 115.407 316.702 115.659 316.292 115.846C315.89 116.023 315.461 116.112 315.004 116.112C314.397 116.112 313.851 115.986 313.366 115.734C312.89 115.482 312.512 115.109 312.232 114.614C311.961 114.119 311.826 113.522 311.826 112.822V108.286H313.408V112.584C313.408 113.275 313.58 113.807 313.926 114.18C314.271 114.544 314.742 114.726 315.34 114.726C315.937 114.726 316.408 114.544 316.754 114.18C317.108 113.807 317.286 113.275 317.286 112.584V108.286H318.882ZM321.8 107.264C321.51 107.264 321.268 107.166 321.072 106.97C320.876 106.774 320.778 106.531 320.778 106.242C320.778 105.953 320.876 105.71 321.072 105.514C321.268 105.318 321.51 105.22 321.8 105.22C322.08 105.22 322.318 105.318 322.514 105.514C322.71 105.71 322.808 105.953 322.808 106.242C322.808 106.531 322.71 106.774 322.514 106.97C322.318 107.166 322.08 107.264 321.8 107.264ZM322.584 108.286V116H320.988V108.286H322.584ZM327.913 109.588H326.485V116H324.875V109.588H323.965V108.286H324.875V107.74C324.875 106.853 325.108 106.209 325.575 105.808C326.051 105.397 326.793 105.192 327.801 105.192V106.522C327.316 106.522 326.975 106.615 326.779 106.802C326.583 106.979 326.485 107.292 326.485 107.74V108.286H327.913V109.588ZM328.795 112.108C328.795 111.333 328.954 110.647 329.271 110.05C329.598 109.453 330.037 108.991 330.587 108.664C331.147 108.328 331.763 108.16 332.435 108.16C333.042 108.16 333.569 108.281 334.017 108.524C334.475 108.757 334.839 109.051 335.109 109.406V108.286H336.719V116H335.109V114.852C334.839 115.216 334.47 115.519 334.003 115.762C333.537 116.005 333.005 116.126 332.407 116.126C331.745 116.126 331.138 115.958 330.587 115.622C330.037 115.277 329.598 114.801 329.271 114.194C328.954 113.578 328.795 112.883 328.795 112.108ZM335.109 112.136C335.109 111.604 334.997 111.142 334.773 110.75C334.559 110.358 334.274 110.059 333.919 109.854C333.565 109.649 333.182 109.546 332.771 109.546C332.361 109.546 331.978 109.649 331.623 109.854C331.269 110.05 330.979 110.344 330.755 110.736C330.541 111.119 330.433 111.576 330.433 112.108C330.433 112.64 330.541 113.107 330.755 113.508C330.979 113.909 331.269 114.217 331.623 114.432C331.987 114.637 332.37 114.74 332.771 114.74C333.182 114.74 333.565 114.637 333.919 114.432C334.274 114.227 334.559 113.928 334.773 113.536C334.997 113.135 335.109 112.668 335.109 112.136ZM342.12 112.094L344.612 116H342.806L341.14 113.382L339.572 116H337.906L340.398 112.206L337.906 108.286H339.712L341.378 110.904L342.946 108.286H344.612L342.12 112.094ZM348.378 106.13C348.938 106.13 349.437 106.256 349.876 106.508C350.324 106.76 350.669 107.11 350.912 107.558C351.164 107.997 351.29 108.496 351.29 109.056C351.29 109.616 351.164 110.12 350.912 110.568C350.669 111.007 350.324 111.352 349.876 111.604C349.437 111.856 348.938 111.982 348.378 111.982C347.818 111.982 347.314 111.856 346.866 111.604C346.427 111.352 346.082 111.007 345.83 110.568C345.578 110.12 345.452 109.616 345.452 109.056C345.452 108.496 345.578 107.997 345.83 107.558C346.082 107.11 346.427 106.76 346.866 106.508C347.314 106.256 347.818 106.13 348.378 106.13ZM348.378 111.338C349.05 111.338 349.587 111.128 349.988 110.708C350.399 110.288 350.604 109.737 350.604 109.056C350.604 108.375 350.399 107.824 349.988 107.404C349.587 106.984 349.05 106.774 348.378 106.774C347.697 106.774 347.155 106.984 346.754 107.404C346.353 107.824 346.152 108.375 346.152 109.056C346.152 109.737 346.353 110.288 346.754 110.708C347.155 111.128 347.697 111.338 348.378 111.338ZM349.666 108.496C349.666 108.701 349.615 108.883 349.512 109.042C349.409 109.191 349.269 109.303 349.092 109.378L349.834 110.526H348.77L348.154 109.476H348.056V110.526H347.174V107.516H348.588C348.915 107.516 349.176 107.609 349.372 107.796C349.568 107.973 349.666 108.207 349.666 108.496ZM348.056 108.762H348.532C348.607 108.762 348.667 108.743 348.714 108.706C348.77 108.659 348.798 108.599 348.798 108.524C348.798 108.449 348.77 108.393 348.714 108.356C348.667 108.319 348.607 108.3 348.532 108.3H348.056V108.762Z" fill="#9A9A9A"/>
<path d="M42.0841 58.242V59.278H39.4241V68H38.1501V59.278H35.4761V58.242H42.0841ZM44.9263 61.574C45.1503 61.1353 45.4677 60.7947 45.8783 60.552C46.2983 60.3093 46.807 60.188 47.4043 60.188V61.504H47.0683C45.6403 61.504 44.9263 62.2787 44.9263 63.828V68H43.6523V60.328H44.9263V61.574ZM48.399 64.136C48.399 63.352 48.5576 62.666 48.875 62.078C49.1923 61.4807 49.6263 61.0187 50.177 60.692C50.737 60.3653 51.3576 60.202 52.039 60.202C52.711 60.202 53.2943 60.3467 53.789 60.636C54.2836 60.9253 54.6523 61.2893 54.895 61.728V60.328H56.183V68H54.895V66.572C54.643 67.02 54.265 67.3933 53.761 67.692C53.2663 67.9813 52.6876 68.126 52.025 68.126C51.3436 68.126 50.7276 67.958 50.177 67.622C49.6263 67.286 49.1923 66.8147 48.875 66.208C48.5576 65.6013 48.399 64.9107 48.399 64.136ZM54.895 64.15C54.895 63.5713 54.7783 63.0673 54.545 62.638C54.3116 62.2087 53.9943 61.882 53.593 61.658C53.201 61.4247 52.767 61.308 52.291 61.308C51.815 61.308 51.381 61.42 50.989 61.644C50.597 61.868 50.2843 62.1947 50.051 62.624C49.8176 63.0533 49.701 63.5573 49.701 64.136C49.701 64.724 49.8176 65.2373 50.051 65.676C50.2843 66.1053 50.597 66.4367 50.989 66.67C51.381 66.894 51.815 67.006 52.291 67.006C52.767 67.006 53.201 66.894 53.593 66.67C53.9943 66.4367 54.3116 66.1053 54.545 65.676C54.7783 65.2373 54.895 64.7287 54.895 64.15ZM57.8599 64.15C57.8599 63.3567 58.0186 62.666 58.3359 62.078C58.6532 61.4807 59.0919 61.0187 59.6519 60.692C60.2212 60.3653 60.8699 60.202 61.5979 60.202C62.5406 60.202 63.3152 60.4307 63.9219 60.888C64.5379 61.3453 64.9439 61.98 65.1399 62.792H63.7679C63.6372 62.3253 63.3806 61.9567 62.9979 61.686C62.6246 61.4153 62.1579 61.28 61.5979 61.28C60.8699 61.28 60.2819 61.532 59.8339 62.036C59.3859 62.5307 59.1619 63.2353 59.1619 64.15C59.1619 65.074 59.3859 65.788 59.8339 66.292C60.2819 66.796 60.8699 67.048 61.5979 67.048C62.1579 67.048 62.6246 66.9173 62.9979 66.656C63.3712 66.3947 63.6279 66.0213 63.7679 65.536H65.1399C64.9346 66.32 64.5239 66.95 63.9079 67.426C63.2919 67.8927 62.5219 68.126 61.5979 68.126C60.8699 68.126 60.2212 67.9627 59.6519 67.636C59.0919 67.3093 58.6532 66.8473 58.3359 66.25C58.0186 65.6527 57.8599 64.9527 57.8599 64.15ZM71.1238 68L68.1138 64.612V68H66.8398V57.64H68.1138V63.73L71.0678 60.328H72.8458L69.2338 64.15L72.8598 68H71.1238ZM84.3853 60.328L79.7653 71.612H78.4493L79.9613 67.916L76.8673 60.328H78.2813L80.6893 66.544L83.0693 60.328H84.3853ZM89.012 68.126C88.2933 68.126 87.64 67.9627 87.052 67.636C86.4733 67.3093 86.016 66.8473 85.68 66.25C85.3533 65.6433 85.19 64.9433 85.19 64.15C85.19 63.366 85.358 62.6753 85.694 62.078C86.0393 61.4713 86.506 61.0093 87.094 60.692C87.682 60.3653 88.34 60.202 89.068 60.202C89.796 60.202 90.454 60.3653 91.042 60.692C91.63 61.0093 92.092 61.4667 92.428 62.064C92.7733 62.6613 92.946 63.3567 92.946 64.15C92.946 64.9433 92.7687 65.6433 92.414 66.25C92.0687 66.8473 91.5973 67.3093 91 67.636C90.4027 67.9627 89.74 68.126 89.012 68.126ZM89.012 67.006C89.4693 67.006 89.8987 66.8987 90.3 66.684C90.7013 66.4693 91.0233 66.1473 91.266 65.718C91.518 65.2887 91.644 64.766 91.644 64.15C91.644 63.534 91.5227 63.0113 91.28 62.582C91.0373 62.1527 90.72 61.8353 90.328 61.63C89.936 61.4153 89.5113 61.308 89.054 61.308C88.5873 61.308 88.158 61.4153 87.766 61.63C87.3833 61.8353 87.0753 62.1527 86.842 62.582C86.6087 63.0113 86.492 63.534 86.492 64.15C86.492 64.7753 86.604 65.3027 86.828 65.732C87.0613 66.1613 87.3693 66.4833 87.752 66.698C88.1347 66.9033 88.5547 67.006 89.012 67.006ZM101.425 60.328V68H100.151V66.866C99.9084 67.258 99.5677 67.566 99.1291 67.79C98.6997 68.0047 98.2237 68.112 97.7011 68.112C97.1037 68.112 96.5671 67.9907 96.0911 67.748C95.6151 67.496 95.2371 67.1227 94.9571 66.628C94.6864 66.1333 94.5511 65.5313 94.5511 64.822V60.328H95.8111V64.654C95.8111 65.41 96.0024 65.9933 96.3851 66.404C96.7677 66.8053 97.2904 67.006 97.9531 67.006C98.6344 67.006 99.1711 66.796 99.5631 66.376C99.9551 65.956 100.151 65.3447 100.151 64.542V60.328H101.425ZM104.85 61.574C105.074 61.1353 105.391 60.7947 105.802 60.552C106.222 60.3093 106.731 60.188 107.328 60.188V61.504H106.992C105.564 61.504 104.85 62.2787 104.85 63.828V68H103.576V60.328H104.85V61.574ZM113.805 61.742C114.057 61.3033 114.43 60.9393 114.925 60.65C115.429 60.3513 116.012 60.202 116.675 60.202C117.356 60.202 117.972 60.3653 118.523 60.692C119.083 61.0187 119.522 61.4807 119.839 62.078C120.156 62.666 120.315 63.352 120.315 64.136C120.315 64.9107 120.156 65.6013 119.839 66.208C119.522 66.8147 119.083 67.286 118.523 67.622C117.972 67.958 117.356 68.126 116.675 68.126C116.022 68.126 115.443 67.9813 114.939 67.692C114.444 67.3933 114.066 67.0247 113.805 66.586V71.64H112.531V60.328H113.805V61.742ZM119.013 64.136C119.013 63.5573 118.896 63.0533 118.663 62.624C118.43 62.1947 118.112 61.868 117.711 61.644C117.319 61.42 116.885 61.308 116.409 61.308C115.942 61.308 115.508 61.4247 115.107 61.658C114.715 61.882 114.398 62.2133 114.155 62.652C113.922 63.0813 113.805 63.5807 113.805 64.15C113.805 64.7287 113.922 65.2373 114.155 65.676C114.398 66.1053 114.715 66.4367 115.107 66.67C115.508 66.894 115.942 67.006 116.409 67.006C116.885 67.006 117.319 66.894 117.711 66.67C118.112 66.4367 118.43 66.1053 118.663 65.676C118.896 65.2373 119.013 64.724 119.013 64.136ZM123.266 61.574C123.49 61.1353 123.807 60.7947 124.218 60.552C124.638 60.3093 125.147 60.188 125.744 60.188V61.504H125.408C123.98 61.504 123.266 62.2787 123.266 63.828V68H121.992V60.328H123.266V61.574ZM130.561 68.126C129.842 68.126 129.189 67.9627 128.601 67.636C128.022 67.3093 127.565 66.8473 127.229 66.25C126.902 65.6433 126.739 64.9433 126.739 64.15C126.739 63.366 126.907 62.6753 127.243 62.078C127.588 61.4713 128.055 61.0093 128.643 60.692C129.231 60.3653 129.889 60.202 130.617 60.202C131.345 60.202 132.003 60.3653 132.591 60.692C133.179 61.0093 133.641 61.4667 133.977 62.064C134.322 62.6613 134.495 63.3567 134.495 64.15C134.495 64.9433 134.317 65.6433 133.963 66.25C133.617 66.8473 133.146 67.3093 132.549 67.636C131.951 67.9627 131.289 68.126 130.561 68.126ZM130.561 67.006C131.018 67.006 131.447 66.8987 131.849 66.684C132.25 66.4693 132.572 66.1473 132.815 65.718C133.067 65.2887 133.193 64.766 133.193 64.15C133.193 63.534 133.071 63.0113 132.829 62.582C132.586 62.1527 132.269 61.8353 131.877 61.63C131.485 61.4153 131.06 61.308 130.603 61.308C130.136 61.308 129.707 61.4153 129.315 61.63C128.932 61.8353 128.624 62.1527 128.391 62.582C128.157 63.0113 128.041 63.534 128.041 64.15C128.041 64.7753 128.153 65.3027 128.377 65.732C128.61 66.1613 128.918 66.4833 129.301 66.698C129.683 66.9033 130.103 67.006 130.561 67.006ZM139.334 60.202C139.996 60.202 140.575 60.3467 141.07 60.636C141.574 60.9253 141.947 61.2893 142.19 61.728V60.328H143.478V68.168C143.478 68.868 143.328 69.4887 143.03 70.03C142.731 70.5807 142.302 71.01 141.742 71.318C141.191 71.626 140.547 71.78 139.81 71.78C138.802 71.78 137.962 71.542 137.29 71.066C136.618 70.59 136.221 69.9413 136.1 69.12H137.36C137.5 69.5867 137.789 69.96 138.228 70.24C138.666 70.5293 139.194 70.674 139.81 70.674C140.51 70.674 141.079 70.4547 141.518 70.016C141.966 69.5773 142.19 68.9613 142.19 68.168V66.558C141.938 67.006 141.564 67.3793 141.07 67.678C140.575 67.9767 139.996 68.126 139.334 68.126C138.652 68.126 138.032 67.958 137.472 67.622C136.921 67.286 136.487 66.8147 136.17 66.208C135.852 65.6013 135.694 64.9107 135.694 64.136C135.694 63.352 135.852 62.666 136.17 62.078C136.487 61.4807 136.921 61.0187 137.472 60.692C138.032 60.3653 138.652 60.202 139.334 60.202ZM142.19 64.15C142.19 63.5713 142.073 63.0673 141.84 62.638C141.606 62.2087 141.289 61.882 140.888 61.658C140.496 61.4247 140.062 61.308 139.586 61.308C139.11 61.308 138.676 61.42 138.284 61.644C137.892 61.868 137.579 62.1947 137.346 62.624C137.112 63.0533 136.996 63.5573 136.996 64.136C136.996 64.724 137.112 65.2373 137.346 65.676C137.579 66.1053 137.892 66.4367 138.284 66.67C138.676 66.894 139.11 67.006 139.586 67.006C140.062 67.006 140.496 66.894 140.888 66.67C141.289 66.4367 141.606 66.1053 141.84 65.676C142.073 65.2373 142.19 64.7287 142.19 64.15ZM146.905 61.574C147.129 61.1353 147.446 60.7947 147.857 60.552C148.277 60.3093 148.785 60.188 149.383 60.188V61.504H149.047C147.619 61.504 146.905 62.2787 146.905 63.828V68H145.631V60.328H146.905V61.574ZM157.853 63.87C157.853 64.1127 157.839 64.3693 157.811 64.64H151.679C151.726 65.396 151.983 65.9887 152.449 66.418C152.925 66.838 153.499 67.048 154.171 67.048C154.722 67.048 155.179 66.922 155.543 66.67C155.917 66.4087 156.178 66.0633 156.327 65.634H157.699C157.494 66.3713 157.083 66.9733 156.467 67.44C155.851 67.8973 155.086 68.126 154.171 68.126C153.443 68.126 152.79 67.9627 152.211 67.636C151.642 67.3093 151.194 66.8473 150.867 66.25C150.541 65.6433 150.377 64.9433 150.377 64.15C150.377 63.3567 150.536 62.6613 150.853 62.064C151.171 61.4667 151.614 61.0093 152.183 60.692C152.762 60.3653 153.425 60.202 154.171 60.202C154.899 60.202 155.543 60.3607 156.103 60.678C156.663 60.9953 157.093 61.434 157.391 61.994C157.699 62.5447 157.853 63.17 157.853 63.87ZM156.537 63.604C156.537 63.1187 156.43 62.7033 156.215 62.358C156.001 62.0033 155.707 61.7373 155.333 61.56C154.969 61.3733 154.563 61.28 154.115 61.28C153.471 61.28 152.921 61.4853 152.463 61.896C152.015 62.3067 151.759 62.876 151.693 63.604H156.537ZM162.251 68.126C161.663 68.126 161.136 68.028 160.669 67.832C160.202 67.6267 159.834 67.3467 159.563 66.992C159.292 66.628 159.143 66.2127 159.115 65.746H160.431C160.468 66.1287 160.646 66.4413 160.963 66.684C161.29 66.9267 161.714 67.048 162.237 67.048C162.722 67.048 163.105 66.9407 163.385 66.726C163.665 66.5113 163.805 66.2407 163.805 65.914C163.805 65.578 163.656 65.3307 163.357 65.172C163.058 65.004 162.596 64.8407 161.971 64.682C161.402 64.5327 160.935 64.3833 160.571 64.234C160.216 64.0753 159.908 63.8467 159.647 63.548C159.395 63.24 159.269 62.8387 159.269 62.344C159.269 61.952 159.386 61.5927 159.619 61.266C159.852 60.9393 160.184 60.6827 160.613 60.496C161.042 60.3 161.532 60.202 162.083 60.202C162.932 60.202 163.618 60.4167 164.141 60.846C164.664 61.2753 164.944 61.8633 164.981 62.61H163.707C163.679 62.2087 163.516 61.8867 163.217 61.644C162.928 61.4013 162.536 61.28 162.041 61.28C161.584 61.28 161.22 61.378 160.949 61.574C160.678 61.77 160.543 62.0267 160.543 62.344C160.543 62.596 160.622 62.806 160.781 62.974C160.949 63.1327 161.154 63.2633 161.397 63.366C161.649 63.4593 161.994 63.5667 162.433 63.688C162.984 63.8373 163.432 63.9867 163.777 64.136C164.122 64.276 164.416 64.4907 164.659 64.78C164.911 65.0693 165.042 65.4473 165.051 65.914C165.051 66.334 164.934 66.712 164.701 67.048C164.468 67.384 164.136 67.65 163.707 67.846C163.287 68.0327 162.802 68.126 162.251 68.126ZM169.565 68.126C168.977 68.126 168.45 68.028 167.983 67.832C167.517 67.6267 167.148 67.3467 166.877 66.992C166.607 66.628 166.457 66.2127 166.429 65.746H167.745C167.783 66.1287 167.96 66.4413 168.277 66.684C168.604 66.9267 169.029 67.048 169.551 67.048C170.037 67.048 170.419 66.9407 170.699 66.726C170.979 66.5113 171.119 66.2407 171.119 65.914C171.119 65.578 170.97 65.3307 170.671 65.172C170.373 65.004 169.911 64.8407 169.285 64.682C168.716 64.5327 168.249 64.3833 167.885 64.234C167.531 64.0753 167.223 63.8467 166.961 63.548C166.709 63.24 166.583 62.8387 166.583 62.344C166.583 61.952 166.7 61.5927 166.933 61.266C167.167 60.9393 167.498 60.6827 167.927 60.496C168.357 60.3 168.847 60.202 169.397 60.202C170.247 60.202 170.933 60.4167 171.455 60.846C171.978 61.2753 172.258 61.8633 172.295 62.61H171.021C170.993 62.2087 170.83 61.8867 170.531 61.644C170.242 61.4013 169.85 61.28 169.355 61.28C168.898 61.28 168.534 61.378 168.263 61.574C167.993 61.77 167.857 62.0267 167.857 62.344C167.857 62.596 167.937 62.806 168.095 62.974C168.263 63.1327 168.469 63.2633 168.711 63.366C168.963 63.4593 169.309 63.5667 169.747 63.688C170.298 63.8373 170.746 63.9867 171.091 64.136C171.437 64.276 171.731 64.4907 171.973 64.78C172.225 65.0693 172.356 65.4473 172.365 65.914C172.365 66.334 172.249 66.712 172.015 67.048C171.782 67.384 171.451 67.65 171.021 67.846C170.601 68.0327 170.116 68.126 169.565 68.126ZM179.45 61.378V65.9C179.45 66.2733 179.53 66.5393 179.688 66.698C179.847 66.8473 180.122 66.922 180.514 66.922H181.452V68H180.304C179.595 68 179.063 67.8367 178.708 67.51C178.354 67.1833 178.176 66.6467 178.176 65.9V61.378H177.182V60.328H178.176V58.396H179.45V60.328H181.452V61.378H179.45ZM186.342 68.126C185.623 68.126 184.97 67.9627 184.382 67.636C183.803 67.3093 183.346 66.8473 183.01 66.25C182.683 65.6433 182.52 64.9433 182.52 64.15C182.52 63.366 182.688 62.6753 183.024 62.078C183.369 61.4713 183.836 61.0093 184.424 60.692C185.012 60.3653 185.67 60.202 186.398 60.202C187.126 60.202 187.784 60.3653 188.372 60.692C188.96 61.0093 189.422 61.4667 189.758 62.064C190.103 62.6613 190.276 63.3567 190.276 64.15C190.276 64.9433 190.099 65.6433 189.744 66.25C189.399 66.8473 188.927 67.3093 188.33 67.636C187.733 67.9627 187.07 68.126 186.342 68.126ZM186.342 67.006C186.799 67.006 187.229 66.8987 187.63 66.684C188.031 66.4693 188.353 66.1473 188.596 65.718C188.848 65.2887 188.974 64.766 188.974 64.15C188.974 63.534 188.853 63.0113 188.61 62.582C188.367 62.1527 188.05 61.8353 187.658 61.63C187.266 61.4153 186.841 61.308 186.384 61.308C185.917 61.308 185.488 61.4153 185.096 61.63C184.713 61.8353 184.405 62.1527 184.172 62.582C183.939 63.0113 183.822 63.534 183.822 64.15C183.822 64.7753 183.934 65.3027 184.158 65.732C184.391 66.1613 184.699 66.4833 185.082 66.698C185.465 66.9033 185.885 67.006 186.342 67.006ZM202.171 60.328L199.777 68H198.461L196.613 61.91L194.765 68H193.449L191.041 60.328H192.343L194.107 66.768L196.011 60.328H197.313L199.175 66.782L200.911 60.328H202.171ZM202.959 64.136C202.959 63.352 203.118 62.666 203.435 62.078C203.753 61.4807 204.187 61.0187 204.737 60.692C205.297 60.3653 205.918 60.202 206.599 60.202C207.271 60.202 207.855 60.3467 208.349 60.636C208.844 60.9253 209.213 61.2893 209.455 61.728V60.328H210.743V68H209.455V66.572C209.203 67.02 208.825 67.3933 208.321 67.692C207.827 67.9813 207.248 68.126 206.585 68.126C205.904 68.126 205.288 67.958 204.737 67.622C204.187 67.286 203.753 66.8147 203.435 66.208C203.118 65.6013 202.959 64.9107 202.959 64.136ZM209.455 64.15C209.455 63.5713 209.339 63.0673 209.105 62.638C208.872 62.2087 208.555 61.882 208.153 61.658C207.761 61.4247 207.327 61.308 206.851 61.308C206.375 61.308 205.941 61.42 205.549 61.644C205.157 61.868 204.845 62.1947 204.611 62.624C204.378 63.0533 204.261 63.5573 204.261 64.136C204.261 64.724 204.378 65.2373 204.611 65.676C204.845 66.1053 205.157 66.4367 205.549 66.67C205.941 66.894 206.375 67.006 206.851 67.006C207.327 67.006 207.761 66.894 208.153 66.67C208.555 66.4367 208.872 66.1053 209.105 65.676C209.339 65.2373 209.455 64.7287 209.455 64.15ZM214.17 61.574C214.394 61.1353 214.712 60.7947 215.122 60.552C215.542 60.3093 216.051 60.188 216.648 60.188V61.504H216.312C214.884 61.504 214.17 62.2787 214.17 63.828V68H212.896V60.328H214.17V61.574ZM217.643 64.136C217.643 63.352 217.802 62.666 218.119 62.078C218.436 61.4807 218.87 61.0187 219.421 60.692C219.981 60.3653 220.606 60.202 221.297 60.202C221.894 60.202 222.45 60.342 222.963 60.622C223.476 60.8927 223.868 61.252 224.139 61.7V57.64H225.427V68H224.139V66.558C223.887 67.0153 223.514 67.3933 223.019 67.692C222.524 67.9813 221.946 68.126 221.283 68.126C220.602 68.126 219.981 67.958 219.421 67.622C218.87 67.286 218.436 66.8147 218.119 66.208C217.802 65.6013 217.643 64.9107 217.643 64.136ZM224.139 64.15C224.139 63.5713 224.022 63.0673 223.789 62.638C223.556 62.2087 223.238 61.882 222.837 61.658C222.445 61.4247 222.011 61.308 221.535 61.308C221.059 61.308 220.625 61.42 220.233 61.644C219.841 61.868 219.528 62.1947 219.295 62.624C219.062 63.0533 218.945 63.5573 218.945 64.136C218.945 64.724 219.062 65.2373 219.295 65.676C219.528 66.1053 219.841 66.4367 220.233 66.67C220.625 66.894 221.059 67.006 221.535 67.006C222.011 67.006 222.445 66.894 222.837 66.67C223.238 66.4367 223.556 66.1053 223.789 65.676C224.022 65.2373 224.139 64.7287 224.139 64.15ZM237.92 60.328L233.3 71.612H231.984L233.496 67.916L230.402 60.328H231.816L234.224 66.544L236.604 60.328H237.92ZM242.547 68.126C241.828 68.126 241.175 67.9627 240.587 67.636C240.008 67.3093 239.551 66.8473 239.215 66.25C238.888 65.6433 238.725 64.9433 238.725 64.15C238.725 63.366 238.893 62.6753 239.229 62.078C239.574 61.4713 240.041 61.0093 240.629 60.692C241.217 60.3653 241.875 60.202 242.603 60.202C243.331 60.202 243.989 60.3653 244.577 60.692C245.165 61.0093 245.627 61.4667 245.963 62.064C246.308 62.6613 246.481 63.3567 246.481 64.15C246.481 64.9433 246.304 65.6433 245.949 66.25C245.604 66.8473 245.132 67.3093 244.535 67.636C243.938 67.9627 243.275 68.126 242.547 68.126ZM242.547 67.006C243.004 67.006 243.434 66.8987 243.835 66.684C244.236 66.4693 244.558 66.1473 244.801 65.718C245.053 65.2887 245.179 64.766 245.179 64.15C245.179 63.534 245.058 63.0113 244.815 62.582C244.572 62.1527 244.255 61.8353 243.863 61.63C243.471 61.4153 243.046 61.308 242.589 61.308C242.122 61.308 241.693 61.4153 241.301 61.63C240.918 61.8353 240.61 62.1527 240.377 62.582C240.144 63.0113 240.027 63.534 240.027 64.15C240.027 64.7753 240.139 65.3027 240.363 65.732C240.596 66.1613 240.904 66.4833 241.287 66.698C241.67 66.9033 242.09 67.006 242.547 67.006ZM254.96 60.328V68H253.686V66.866C253.443 67.258 253.103 67.566 252.664 67.79C252.235 68.0047 251.759 68.112 251.236 68.112C250.639 68.112 250.102 67.9907 249.626 67.748C249.15 67.496 248.772 67.1227 248.492 66.628C248.221 66.1333 248.086 65.5313 248.086 64.822V60.328H249.346V64.654C249.346 65.41 249.537 65.9933 249.92 66.404C250.303 66.8053 250.825 67.006 251.488 67.006C252.169 67.006 252.706 66.796 253.098 66.376C253.49 65.956 253.686 65.3447 253.686 64.542V60.328H254.96ZM258.385 61.574C258.609 61.1353 258.927 60.7947 259.337 60.552C259.757 60.3093 260.266 60.188 260.863 60.188V61.504H260.527C259.099 61.504 258.385 62.2787 258.385 63.828V68H257.111V60.328H258.385V61.574ZM268.782 68.126C268.194 68.126 267.667 68.028 267.2 67.832C266.734 67.6267 266.365 67.3467 266.094 66.992C265.824 66.628 265.674 66.2127 265.646 65.746H266.962C267 66.1287 267.177 66.4413 267.494 66.684C267.821 66.9267 268.246 67.048 268.768 67.048C269.254 67.048 269.636 66.9407 269.916 66.726C270.196 66.5113 270.336 66.2407 270.336 65.914C270.336 65.578 270.187 65.3307 269.888 65.172C269.59 65.004 269.128 64.8407 268.502 64.682C267.933 64.5327 267.466 64.3833 267.102 64.234C266.748 64.0753 266.44 63.8467 266.178 63.548C265.926 63.24 265.8 62.8387 265.8 62.344C265.8 61.952 265.917 61.5927 266.15 61.266C266.384 60.9393 266.715 60.6827 267.144 60.496C267.574 60.3 268.064 60.202 268.614 60.202C269.464 60.202 270.15 60.4167 270.672 60.846C271.195 61.2753 271.475 61.8633 271.512 62.61H270.238C270.21 62.2087 270.047 61.8867 269.748 61.644C269.459 61.4013 269.067 61.28 268.572 61.28C268.115 61.28 267.751 61.378 267.48 61.574C267.21 61.77 267.074 62.0267 267.074 62.344C267.074 62.596 267.154 62.806 267.312 62.974C267.48 63.1327 267.686 63.2633 267.928 63.366C268.18 63.4593 268.526 63.5667 268.964 63.688C269.515 63.8373 269.963 63.9867 270.308 64.136C270.654 64.276 270.948 64.4907 271.19 64.78C271.442 65.0693 271.573 65.4473 271.582 65.914C271.582 66.334 271.466 66.712 271.232 67.048C270.999 67.384 270.668 67.65 270.238 67.846C269.818 68.0327 269.333 68.126 268.782 68.126ZM272.905 64.15C272.905 63.3567 273.063 62.666 273.381 62.078C273.698 61.4807 274.137 61.0187 274.697 60.692C275.266 60.3653 275.915 60.202 276.643 60.202C277.585 60.202 278.36 60.4307 278.967 60.888C279.583 61.3453 279.989 61.98 280.185 62.792H278.813C278.682 62.3253 278.425 61.9567 278.043 61.686C277.669 61.4153 277.203 61.28 276.643 61.28C275.915 61.28 275.327 61.532 274.879 62.036C274.431 62.5307 274.207 63.2353 274.207 64.15C274.207 65.074 274.431 65.788 274.879 66.292C275.327 66.796 275.915 67.048 276.643 67.048C277.203 67.048 277.669 66.9173 278.043 66.656C278.416 66.3947 278.673 66.0213 278.813 65.536H280.185C279.979 66.32 279.569 66.95 278.953 67.426C278.337 67.8927 277.567 68.126 276.643 68.126C275.915 68.126 275.266 67.9627 274.697 67.636C274.137 67.3093 273.698 66.8473 273.381 66.25C273.063 65.6527 272.905 64.9527 272.905 64.15ZM285.231 68.126C284.512 68.126 283.859 67.9627 283.271 67.636C282.692 67.3093 282.235 66.8473 281.899 66.25C281.572 65.6433 281.409 64.9433 281.409 64.15C281.409 63.366 281.577 62.6753 281.913 62.078C282.258 61.4713 282.725 61.0093 283.313 60.692C283.901 60.3653 284.559 60.202 285.287 60.202C286.015 60.202 286.673 60.3653 287.261 60.692C287.849 61.0093 288.311 61.4667 288.647 62.064C288.992 62.6613 289.165 63.3567 289.165 64.15C289.165 64.9433 288.987 65.6433 288.633 66.25C288.287 66.8473 287.816 67.3093 287.219 67.636C286.621 67.9627 285.959 68.126 285.231 68.126ZM285.231 67.006C285.688 67.006 286.117 66.8987 286.519 66.684C286.92 66.4693 287.242 66.1473 287.485 65.718C287.737 65.2887 287.863 64.766 287.863 64.15C287.863 63.534 287.741 63.0113 287.499 62.582C287.256 62.1527 286.939 61.8353 286.547 61.63C286.155 61.4153 285.73 61.308 285.273 61.308C284.806 61.308 284.377 61.4153 283.985 61.63C283.602 61.8353 283.294 62.1527 283.061 62.582C282.827 63.0113 282.711 63.534 282.711 64.15C282.711 64.7753 282.823 65.3027 283.047 65.732C283.28 66.1613 283.588 66.4833 283.971 66.698C284.353 66.9033 284.773 67.006 285.231 67.006ZM292.114 61.574C292.338 61.1353 292.655 60.7947 293.066 60.552C293.486 60.3093 293.994 60.188 294.592 60.188V61.504H294.256C292.828 61.504 292.114 62.2787 292.114 63.828V68H290.84V60.328H292.114V61.574ZM303.062 63.87C303.062 64.1127 303.048 64.3693 303.02 64.64H296.888C296.935 65.396 297.192 65.9887 297.658 66.418C298.134 66.838 298.708 67.048 299.38 67.048C299.931 67.048 300.388 66.922 300.752 66.67C301.126 66.4087 301.387 66.0633 301.536 65.634H302.908C302.703 66.3713 302.292 66.9733 301.676 67.44C301.06 67.8973 300.295 68.126 299.38 68.126C298.652 68.126 297.999 67.9627 297.42 67.636C296.851 67.3093 296.403 66.8473 296.076 66.25C295.75 65.6433 295.586 64.9433 295.586 64.15C295.586 63.3567 295.745 62.6613 296.062 62.064C296.38 61.4667 296.823 61.0093 297.392 60.692C297.971 60.3653 298.634 60.202 299.38 60.202C300.108 60.202 300.752 60.3607 301.312 60.678C301.872 60.9953 302.302 61.434 302.6 61.994C302.908 62.5447 303.062 63.17 303.062 63.87ZM301.746 63.604C301.746 63.1187 301.639 62.7033 301.424 62.358C301.21 62.0033 300.916 61.7373 300.542 61.56C300.178 61.3733 299.772 61.28 299.324 61.28C298.68 61.28 298.13 61.4853 297.672 61.896C297.224 62.3067 296.968 62.876 296.902 63.604H301.746ZM311.64 60.202C312.303 60.202 312.882 60.3467 313.376 60.636C313.88 60.9253 314.254 61.2893 314.496 61.728V60.328H315.784V68.168C315.784 68.868 315.635 69.4887 315.336 70.03C315.038 70.5807 314.608 71.01 314.048 71.318C313.498 71.626 312.854 71.78 312.116 71.78C311.108 71.78 310.268 71.542 309.596 71.066C308.924 70.59 308.528 69.9413 308.406 69.12H309.666C309.806 69.5867 310.096 69.96 310.534 70.24C310.973 70.5293 311.5 70.674 312.116 70.674C312.816 70.674 313.386 70.4547 313.824 70.016C314.272 69.5773 314.496 68.9613 314.496 68.168V66.558C314.244 67.006 313.871 67.3793 313.376 67.678C312.882 67.9767 312.303 68.126 311.64 68.126C310.959 68.126 310.338 67.958 309.778 67.622C309.228 67.286 308.794 66.8147 308.476 66.208C308.159 65.6013 308 64.9107 308 64.136C308 63.352 308.159 62.666 308.476 62.078C308.794 61.4807 309.228 61.0187 309.778 60.692C310.338 60.3653 310.959 60.202 311.64 60.202ZM314.496 64.15C314.496 63.5713 314.38 63.0673 314.146 62.638C313.913 62.2087 313.596 61.882 313.194 61.658C312.802 61.4247 312.368 61.308 311.892 61.308C311.416 61.308 310.982 61.42 310.59 61.644C310.198 61.868 309.886 62.1947 309.652 62.624C309.419 63.0533 309.302 63.5573 309.302 64.136C309.302 64.724 309.419 65.2373 309.652 65.676C309.886 66.1053 310.198 66.4367 310.59 66.67C310.982 66.894 311.416 67.006 311.892 67.006C312.368 67.006 312.802 66.894 313.194 66.67C313.596 66.4367 313.913 66.1053 314.146 65.676C314.38 65.2373 314.496 64.7287 314.496 64.15ZM321.283 68.126C320.565 68.126 319.911 67.9627 319.323 67.636C318.745 67.3093 318.287 66.8473 317.951 66.25C317.625 65.6433 317.461 64.9433 317.461 64.15C317.461 63.366 317.629 62.6753 317.965 62.078C318.311 61.4713 318.777 61.0093 319.365 60.692C319.953 60.3653 320.611 60.202 321.339 60.202C322.067 60.202 322.725 60.3653 323.313 60.692C323.901 61.0093 324.363 61.4667 324.699 62.064C325.045 62.6613 325.217 63.3567 325.217 64.15C325.217 64.9433 325.04 65.6433 324.685 66.25C324.34 66.8473 323.869 67.3093 323.271 67.636C322.674 67.9627 322.011 68.126 321.283 68.126ZM321.283 67.006C321.741 67.006 322.17 66.8987 322.571 66.684C322.973 66.4693 323.295 66.1473 323.537 65.718C323.789 65.2887 323.915 64.766 323.915 64.15C323.915 63.534 323.794 63.0113 323.551 62.582C323.309 62.1527 322.991 61.8353 322.599 61.63C322.207 61.4153 321.783 61.308 321.325 61.308C320.859 61.308 320.429 61.4153 320.037 61.63C319.655 61.8353 319.347 62.1527 319.113 62.582C318.88 63.0113 318.763 63.534 318.763 64.15C318.763 64.7753 318.875 65.3027 319.099 65.732C319.333 66.1613 319.641 66.4833 320.023 66.698C320.406 66.9033 320.826 67.006 321.283 67.006ZM326.416 64.136C326.416 63.352 326.575 62.666 326.892 62.078C327.21 61.4807 327.644 61.0187 328.194 60.692C328.754 60.3653 329.375 60.202 330.056 60.202C330.728 60.202 331.312 60.3467 331.806 60.636C332.301 60.9253 332.67 61.2893 332.912 61.728V60.328H334.2V68H332.912V66.572C332.66 67.02 332.282 67.3933 331.778 67.692C331.284 67.9813 330.705 68.126 330.042 68.126C329.361 68.126 328.745 67.958 328.194 67.622C327.644 67.286 327.21 66.8147 326.892 66.208C326.575 65.6013 326.416 64.9107 326.416 64.136ZM332.912 64.15C332.912 63.5713 332.796 63.0673 332.562 62.638C332.329 62.2087 332.012 61.882 331.61 61.658C331.218 61.4247 330.784 61.308 330.308 61.308C329.832 61.308 329.398 61.42 329.006 61.644C328.614 61.868 328.302 62.1947 328.068 62.624C327.835 63.0533 327.718 63.5573 327.718 64.136C327.718 64.724 327.835 65.2373 328.068 65.676C328.302 66.1053 328.614 66.4367 329.006 66.67C329.398 66.894 329.832 67.006 330.308 67.006C330.784 67.006 331.218 66.894 331.61 66.67C332.012 66.4367 332.329 66.1053 332.562 65.676C332.796 65.2373 332.912 64.7287 332.912 64.15ZM337.627 57.64V68H336.353V57.64H337.627Z" fill="#333535" fill-opacity="0.5"/>
</g>
<path d="M179.04 207.81V210.26H182.33V211.814H179.04V214.404H182.75V216H177.08V206.214H182.75V207.81H179.04ZM188.815 216L187.219 213.592L185.805 216H183.705L186.239 212.108L183.677 208.244H185.889L187.471 210.638L188.899 208.244H190.999L188.451 212.108L191.027 216H188.815ZM194.051 209.364C194.303 209.009 194.649 208.715 195.087 208.482C195.535 208.239 196.044 208.118 196.613 208.118C197.276 208.118 197.873 208.281 198.405 208.608C198.947 208.935 199.371 209.401 199.679 210.008C199.997 210.605 200.155 211.301 200.155 212.094C200.155 212.887 199.997 213.592 199.679 214.208C199.371 214.815 198.947 215.286 198.405 215.622C197.873 215.958 197.276 216.126 196.613 216.126C196.044 216.126 195.54 216.009 195.101 215.776C194.672 215.543 194.322 215.249 194.051 214.894V219.696H192.091V208.244H194.051V209.364ZM198.153 212.094C198.153 211.627 198.055 211.226 197.859 210.89C197.673 210.545 197.421 210.283 197.103 210.106C196.795 209.929 196.459 209.84 196.095 209.84C195.741 209.84 195.405 209.933 195.087 210.12C194.779 210.297 194.527 210.559 194.331 210.904C194.145 211.249 194.051 211.655 194.051 212.122C194.051 212.589 194.145 212.995 194.331 213.34C194.527 213.685 194.779 213.951 195.087 214.138C195.405 214.315 195.741 214.404 196.095 214.404C196.459 214.404 196.795 214.311 197.103 214.124C197.421 213.937 197.673 213.671 197.859 213.326C198.055 212.981 198.153 212.57 198.153 212.094ZM208.79 211.954C208.79 212.234 208.771 212.486 208.734 212.71H203.064C203.11 213.27 203.306 213.709 203.652 214.026C203.997 214.343 204.422 214.502 204.926 214.502C205.654 214.502 206.172 214.189 206.48 213.564H208.594C208.37 214.311 207.94 214.927 207.306 215.412C206.671 215.888 205.892 216.126 204.968 216.126C204.221 216.126 203.549 215.963 202.952 215.636C202.364 215.3 201.902 214.829 201.566 214.222C201.239 213.615 201.076 212.915 201.076 212.122C201.076 211.319 201.239 210.615 201.566 210.008C201.892 209.401 202.35 208.935 202.938 208.608C203.526 208.281 204.202 208.118 204.968 208.118C205.705 208.118 206.363 208.277 206.942 208.594C207.53 208.911 207.982 209.364 208.3 209.952C208.626 210.531 208.79 211.198 208.79 211.954ZM206.76 211.394C206.75 210.89 206.568 210.489 206.214 210.19C205.859 209.882 205.425 209.728 204.912 209.728C204.426 209.728 204.016 209.877 203.68 210.176C203.353 210.465 203.152 210.871 203.078 211.394H206.76ZM212.18 209.448C212.432 209.037 212.759 208.715 213.16 208.482C213.571 208.249 214.038 208.132 214.56 208.132V210.19H214.042C213.426 210.19 212.96 210.335 212.642 210.624C212.334 210.913 212.18 211.417 212.18 212.136V216H210.22V208.244H212.18V209.448ZM216.874 207.32C216.529 207.32 216.24 207.213 216.006 206.998C215.782 206.774 215.67 206.499 215.67 206.172C215.67 205.845 215.782 205.575 216.006 205.36C216.24 205.136 216.529 205.024 216.874 205.024C217.22 205.024 217.504 205.136 217.728 205.36C217.962 205.575 218.078 205.845 218.078 206.172C218.078 206.499 217.962 206.774 217.728 206.998C217.504 207.213 217.22 207.32 216.874 207.32ZM217.84 208.244V216H215.88V208.244H217.84ZM219.273 212.094C219.273 211.31 219.427 210.615 219.735 210.008C220.052 209.401 220.477 208.935 221.009 208.608C221.55 208.281 222.152 208.118 222.815 208.118C223.394 208.118 223.898 208.235 224.327 208.468C224.766 208.701 225.116 208.995 225.377 209.35V208.244H227.351V216H225.377V214.866C225.125 215.23 224.775 215.533 224.327 215.776C223.888 216.009 223.38 216.126 222.801 216.126C222.148 216.126 221.55 215.958 221.009 215.622C220.477 215.286 220.052 214.815 219.735 214.208C219.427 213.592 219.273 212.887 219.273 212.094ZM225.377 212.122C225.377 211.646 225.284 211.24 225.097 210.904C224.91 210.559 224.658 210.297 224.341 210.12C224.024 209.933 223.683 209.84 223.319 209.84C222.955 209.84 222.619 209.929 222.311 210.106C222.003 210.283 221.751 210.545 221.555 210.89C221.368 211.226 221.275 211.627 221.275 212.094C221.275 212.561 221.368 212.971 221.555 213.326C221.751 213.671 222.003 213.937 222.311 214.124C222.628 214.311 222.964 214.404 223.319 214.404C223.683 214.404 224.024 214.315 224.341 214.138C224.658 213.951 224.91 213.69 225.097 213.354C225.284 213.009 225.377 212.598 225.377 212.122ZM233.563 208.132C234.487 208.132 235.234 208.426 235.803 209.014C236.373 209.593 236.657 210.405 236.657 211.45V216H234.697V211.716C234.697 211.1 234.543 210.629 234.235 210.302C233.927 209.966 233.507 209.798 232.975 209.798C232.434 209.798 232.005 209.966 231.687 210.302C231.379 210.629 231.225 211.1 231.225 211.716V216H229.265V208.244H231.225V209.21C231.487 208.874 231.818 208.613 232.219 208.426C232.63 208.23 233.078 208.132 233.563 208.132ZM239.722 206.044C240.064 206.044 240.369 206.12 240.638 206.271C240.912 206.422 241.125 206.635 241.276 206.91C241.427 207.178 241.503 207.486 241.503 207.834C241.503 208.175 241.427 208.48 241.276 208.749C241.125 209.018 240.912 209.231 240.638 209.388C240.369 209.539 240.064 209.614 239.722 209.614C239.381 209.614 239.073 209.539 238.798 209.388C238.529 209.231 238.317 209.018 238.16 208.749C238.009 208.48 237.933 208.175 237.933 207.834C237.933 207.486 238.009 207.178 238.16 206.91C238.317 206.635 238.529 206.422 238.798 206.271C239.073 206.12 239.381 206.044 239.722 206.044ZM239.722 209.186C240.125 209.186 240.447 209.063 240.688 208.816C240.935 208.564 241.058 208.237 241.058 207.834C241.058 207.425 240.935 207.097 240.688 206.851C240.447 206.599 240.125 206.473 239.722 206.473C239.319 206.473 238.997 206.599 238.756 206.851C238.515 207.097 238.395 207.425 238.395 207.834C238.395 208.242 238.515 208.57 238.756 208.816C238.997 209.063 239.319 209.186 239.722 209.186ZM240.512 207.498C240.512 207.621 240.481 207.727 240.419 207.817C240.363 207.906 240.282 207.974 240.176 208.018L240.613 208.707H239.957L239.596 208.077H239.546V208.707H238.983V206.91H239.865C240.061 206.91 240.218 206.966 240.335 207.078C240.453 207.184 240.512 207.324 240.512 207.498ZM239.537 207.657H239.806C239.845 207.657 239.879 207.646 239.907 207.624C239.935 207.601 239.949 207.568 239.949 207.523C239.949 207.439 239.901 207.397 239.806 207.397H239.537V207.657Z" fill="#3B4752"/>
<path d="M183.886 243.416C183.63 242.232 183.182 241.352 182.542 240.776C181.902 240.168 180.99 239.864 179.806 239.864C177.982 239.864 176.67 240.664 175.87 242.264C175.07 243.832 174.654 246.328 174.622 249.752C175.326 248.632 176.334 247.752 177.646 247.112C178.99 246.472 180.462 246.152 182.062 246.152C185.198 246.152 187.71 247.144 189.598 249.128C191.518 251.112 192.478 253.88 192.478 257.432C192.478 259.768 191.998 261.816 191.038 263.576C190.11 265.336 188.734 266.712 186.91 267.704C185.118 268.696 182.99 269.192 180.526 269.192C175.598 269.192 172.174 267.656 170.254 264.584C168.334 261.48 167.374 257.032 167.374 251.24C167.374 245.16 168.382 240.648 170.398 237.704C172.446 234.728 175.71 233.24 180.19 233.24C182.59 233.24 184.606 233.72 186.238 234.68C187.902 235.608 189.15 236.84 189.982 238.376C190.846 239.912 191.358 241.592 191.518 243.416H183.886ZM180.094 252.632C178.718 252.632 177.566 253.048 176.638 253.88C175.742 254.68 175.294 255.832 175.294 257.336C175.294 258.872 175.71 260.072 176.542 260.936C177.406 261.8 178.622 262.232 180.19 262.232C181.598 262.232 182.702 261.816 183.502 260.984C184.334 260.12 184.75 258.952 184.75 257.48C184.75 255.976 184.35 254.792 183.55 253.928C182.75 253.064 181.598 252.632 180.094 252.632ZM221.793 241.112H206.817V247.736C207.457 247.032 208.353 246.456 209.505 246.008C210.657 245.56 211.905 245.336 213.249 245.336C215.649 245.336 217.633 245.88 219.201 246.968C220.801 248.056 221.969 249.464 222.705 251.192C223.441 252.92 223.809 254.792 223.809 256.808C223.809 260.552 222.753 263.528 220.641 265.736C218.529 267.912 215.553 269 211.713 269C209.153 269 206.929 268.568 205.041 267.704C203.153 266.808 201.697 265.576 200.673 264.008C199.649 262.44 199.089 260.632 198.993 258.584H207.009C207.201 259.576 207.665 260.408 208.401 261.08C209.137 261.72 210.145 262.04 211.425 262.04C212.929 262.04 214.049 261.56 214.785 260.6C215.521 259.64 215.889 258.36 215.889 256.76C215.889 255.192 215.505 253.992 214.737 253.16C213.969 252.328 212.849 251.912 211.377 251.912C210.289 251.912 209.393 252.184 208.689 252.728C207.985 253.24 207.521 253.928 207.297 254.792H199.377V233.912H221.793V241.112ZM228.052 262.424C229.14 261.56 229.636 261.16 229.54 261.224C232.676 258.632 235.14 256.504 236.932 254.84C238.756 253.176 240.292 251.432 241.54 249.608C242.788 247.784 243.412 246.008 243.412 244.28C243.412 242.968 243.108 241.944 242.5 241.208C241.892 240.472 240.98 240.104 239.764 240.104C238.548 240.104 237.588 240.568 236.884 241.496C236.212 242.392 235.876 243.672 235.876 245.336H227.956C228.02 242.616 228.596 240.344 229.684 238.52C230.804 236.696 232.26 235.352 234.052 234.488C235.876 233.624 237.892 233.192 240.1 233.192C243.908 233.192 246.772 234.168 248.692 236.12C250.644 238.072 251.62 240.616 251.62 243.752C251.62 247.176 250.452 250.36 248.116 253.304C245.78 256.216 242.804 259.064 239.188 261.848H252.148V268.52H228.052V262.424Z" fill="#39393B"/>
<path d="M275.8 324.49C294.46 306.8 306.1 281.79 306.1 254.05C306.1 200.45 262.65 157 209.05 157C155.45 157 112 200.45 112 254.05C112 281.79 123.64 306.81 142.3 324.49" stroke="#F5F5FA" stroke-width="5" stroke-miterlimit="10" stroke-linecap="round"/>
<g filter="url(#filter2_d_362_127)">
<path d="M302.5 251.75C316.997 251.75 328.75 239.997 328.75 225.5C328.75 211.003 316.997 199.25 302.5 199.25C288.003 199.25 276.25 211.003 276.25 225.5C276.25 239.997 288.003 251.75 302.5 251.75Z" fill="#A240F6" fill-opacity="0.2"/>
</g>
<path d="M302.5 235.5C308.023 235.5 312.5 231.023 312.5 225.5C312.5 219.977 308.023 215.5 302.5 215.5C296.977 215.5 292.5 219.977 292.5 225.5C292.5 231.023 296.977 235.5 302.5 235.5Z" fill="#A240F6"/>
<path d="M258.56 170.56C244.07 161.95 227.14 157 209.05 157C155.45 157 112 200.45 112 254.05C112 281.79 123.64 306.81 142.3 324.49" stroke="url(#paint0_linear_362_127)" stroke-width="10" stroke-miterlimit="10" stroke-linecap="round"/>
<path d="M239.5 301H179.5C173.149 301 168 306.149 168 312.5C168 318.851 173.149 324 179.5 324H239.5C245.851 324 251 318.851 251 312.5C251 306.149 245.851 301 239.5 301Z" fill="#F5F5FA"/>
<path d="M204.002 308.242V309.278H199.76V312.568H203.204V313.604H199.76V318H198.486V308.242H204.002ZM205.065 314.136C205.065 313.352 205.224 312.666 205.541 312.078C205.858 311.481 206.292 311.019 206.843 310.692C207.403 310.365 208.024 310.202 208.705 310.202C209.377 310.202 209.96 310.347 210.455 310.636C210.95 310.925 211.318 311.289 211.561 311.728V310.328H212.849V318H211.561V316.572C211.309 317.02 210.931 317.393 210.427 317.692C209.932 317.981 209.354 318.126 208.691 318.126C208.01 318.126 207.394 317.958 206.843 317.622C206.292 317.286 205.858 316.815 205.541 316.208C205.224 315.601 205.065 314.911 205.065 314.136ZM211.561 314.15C211.561 313.571 211.444 313.067 211.211 312.638C210.978 312.209 210.66 311.882 210.259 311.658C209.867 311.425 209.433 311.308 208.957 311.308C208.481 311.308 208.047 311.42 207.655 311.644C207.263 311.868 206.95 312.195 206.717 312.624C206.484 313.053 206.367 313.557 206.367 314.136C206.367 314.724 206.484 315.237 206.717 315.676C206.95 316.105 207.263 316.437 207.655 316.67C208.047 316.894 208.481 317.006 208.957 317.006C209.433 317.006 209.867 316.894 210.259 316.67C210.66 316.437 210.978 316.105 211.211 315.676C211.444 315.237 211.561 314.729 211.561 314.15ZM215.66 309.082C215.417 309.082 215.212 308.998 215.044 308.83C214.876 308.662 214.792 308.457 214.792 308.214C214.792 307.971 214.876 307.766 215.044 307.598C215.212 307.43 215.417 307.346 215.66 307.346C215.893 307.346 216.089 307.43 216.248 307.598C216.416 307.766 216.5 307.971 216.5 308.214C216.5 308.457 216.416 308.662 216.248 308.83C216.089 308.998 215.893 309.082 215.66 309.082ZM216.276 310.328V318H215.002V310.328H216.276ZM219.721 311.574C219.945 311.135 220.262 310.795 220.673 310.552C221.093 310.309 221.602 310.188 222.199 310.188V311.504H221.863C220.435 311.504 219.721 312.279 219.721 313.828V318H218.447V310.328H219.721V311.574Z" fill="#333535"/>
<path d="M227.768 279C228.538 277.667 230.462 277.667 231.232 279L235.995 287.25C236.765 288.583 235.803 290.25 234.263 290.25H224.737C223.197 290.25 222.235 288.583 223.005 287.25L227.768 279Z" fill="#6E68FA"/>
<path d="M178.696 281.412C178.744 280.668 179.028 280.088 179.548 279.672C180.076 279.256 180.748 279.048 181.564 279.048C182.124 279.048 182.608 279.148 183.016 279.348C183.424 279.548 183.732 279.82 183.94 280.164C184.148 280.508 184.252 280.896 184.252 281.328C184.252 281.824 184.12 282.248 183.856 282.6C183.592 282.952 183.276 283.188 182.908 283.308V283.356C183.38 283.5 183.748 283.764 184.012 284.148C184.276 284.524 184.408 285.008 184.408 285.6C184.408 286.072 184.3 286.492 184.084 286.86C183.868 287.228 183.548 287.52 183.124 287.736C182.7 287.944 182.192 288.048 181.6 288.048C180.736 288.048 180.024 287.828 179.464 287.388C178.912 286.94 178.616 286.3 178.576 285.468H179.896C179.928 285.892 180.092 286.24 180.388 286.512C180.684 286.776 181.084 286.908 181.588 286.908C182.076 286.908 182.452 286.776 182.716 286.512C182.98 286.24 183.112 285.892 183.112 285.468C183.112 284.908 182.932 284.512 182.572 284.28C182.22 284.04 181.676 283.92 180.94 283.92H180.628V282.792H180.952C181.6 282.784 182.092 282.676 182.428 282.468C182.772 282.26 182.944 281.932 182.944 281.484C182.944 281.1 182.82 280.796 182.572 280.572C182.324 280.34 181.972 280.224 181.516 280.224C181.068 280.224 180.72 280.34 180.472 280.572C180.224 280.796 180.076 281.076 180.028 281.412H178.696ZM185.845 283.512C185.845 282.128 186.077 281.048 186.541 280.272C187.013 279.488 187.821 279.096 188.965 279.096C190.109 279.096 190.913 279.488 191.377 280.272C191.849 281.048 192.085 282.128 192.085 283.512C192.085 284.912 191.849 286.008 191.377 286.8C190.913 287.584 190.109 287.976 188.965 287.976C187.821 287.976 187.013 287.584 186.541 286.8C186.077 286.008 185.845 284.912 185.845 283.512ZM190.741 283.512C190.741 282.864 190.697 282.316 190.609 281.868C190.529 281.42 190.361 281.056 190.105 280.776C189.849 280.488 189.469 280.344 188.965 280.344C188.461 280.344 188.081 280.488 187.825 280.776C187.569 281.056 187.397 281.42 187.309 281.868C187.229 282.316 187.189 282.864 187.189 283.512C187.189 284.184 187.229 284.748 187.309 285.204C187.389 285.66 187.557 286.028 187.813 286.308C188.077 286.588 188.461 286.728 188.965 286.728C189.469 286.728 189.849 286.588 190.105 286.308C190.369 286.028 190.541 285.66 190.621 285.204C190.701 284.748 190.741 284.184 190.741 283.512ZM198.198 282.36C198.43 282.056 198.746 281.8 199.146 281.592C199.546 281.384 199.998 281.28 200.502 281.28C201.078 281.28 201.602 281.424 202.074 281.712C202.554 281.992 202.93 282.388 203.202 282.9C203.474 283.412 203.61 284 203.61 284.664C203.61 285.328 203.474 285.924 203.202 286.452C202.93 286.972 202.554 287.38 202.074 287.676C201.602 287.964 201.078 288.108 200.502 288.108C199.998 288.108 199.55 288.008 199.158 287.808C198.766 287.6 198.446 287.344 198.198 287.04V291.144H196.83V281.388H198.198V282.36ZM202.218 284.664C202.218 284.208 202.122 283.816 201.93 283.488C201.746 283.152 201.498 282.9 201.186 282.732C200.882 282.556 200.554 282.468 200.202 282.468C199.858 282.468 199.53 282.556 199.218 282.732C198.914 282.908 198.666 283.164 198.474 283.5C198.29 283.836 198.198 284.232 198.198 284.688C198.198 285.144 198.29 285.544 198.474 285.888C198.666 286.224 198.914 286.48 199.218 286.656C199.53 286.832 199.858 286.92 200.202 286.92C200.554 286.92 200.882 286.832 201.186 286.656C201.498 286.472 201.746 286.208 201.93 285.864C202.122 285.52 202.218 285.12 202.218 284.664ZM206.559 282.504V286.164C206.559 286.412 206.615 286.592 206.727 286.704C206.847 286.808 207.047 286.86 207.327 286.86H208.167V288H207.087C206.471 288 205.999 287.856 205.671 287.568C205.343 287.28 205.179 286.812 205.179 286.164V282.504H204.399V281.388H205.179V279.744H206.559V281.388H208.167V282.504H206.559ZM211.827 288.108C211.307 288.108 210.839 288.016 210.423 287.832C210.015 287.64 209.691 287.384 209.451 287.064C209.211 286.736 209.083 286.372 209.067 285.972H210.483C210.507 286.252 210.639 286.488 210.879 286.68C211.127 286.864 211.435 286.956 211.803 286.956C212.187 286.956 212.483 286.884 212.691 286.74C212.907 286.588 213.015 286.396 213.015 286.164C213.015 285.916 212.895 285.732 212.655 285.612C212.423 285.492 212.051 285.36 211.539 285.216C211.043 285.08 210.639 284.948 210.327 284.82C210.015 284.692 209.743 284.496 209.511 284.232C209.287 283.968 209.175 283.62 209.175 283.188C209.175 282.836 209.279 282.516 209.487 282.228C209.695 281.932 209.991 281.7 210.375 281.532C210.767 281.364 211.215 281.28 211.719 281.28C212.471 281.28 213.075 281.472 213.531 281.856C213.995 282.232 214.243 282.748 214.275 283.404H212.907C212.883 283.108 212.763 282.872 212.547 282.696C212.331 282.52 212.039 282.432 211.671 282.432C211.311 282.432 211.035 282.5 210.843 282.636C210.651 282.772 210.555 282.952 210.555 283.176C210.555 283.352 210.619 283.5 210.747 283.62C210.875 283.74 211.031 283.836 211.215 283.908C211.399 283.972 211.671 284.056 212.031 284.16C212.511 284.288 212.903 284.42 213.207 284.556C213.519 284.684 213.787 284.876 214.011 285.132C214.235 285.388 214.351 285.728 214.359 286.152C214.359 286.528 214.255 286.864 214.047 287.16C213.839 287.456 213.543 287.688 213.159 287.856C212.783 288.024 212.339 288.108 211.827 288.108ZM216.39 288.084C216.142 288.084 215.934 288 215.766 287.832C215.598 287.664 215.514 287.456 215.514 287.208C215.514 286.96 215.598 286.752 215.766 286.584C215.934 286.416 216.142 286.332 216.39 286.332C216.63 286.332 216.834 286.416 217.002 286.584C217.17 286.752 217.254 286.96 217.254 287.208C217.254 287.456 217.17 287.664 217.002 287.832C216.834 288 216.63 288.084 216.39 288.084Z" fill="#6E68FA"/>
</g>
<defs>
<filter id="filter0_d_362_127" x="0" y="0" width="418" height="809" filterUnits="userSpaceOnUse" color-interpolation-filters="sRGB">
<feFlood flood-opacity="0" result="BackgroundImageFix"/>
<feColorMatrix in="SourceAlpha" type="matrix" values="0 0 0 0 0 0 0 0 0 0 0 0 0 0 0 0 0 0 127 0" result="hardAlpha"/>
<feOffset dy="3"/>
<feGaussianBlur stdDeviation="7.5"/>
<feComposite in2="hardAlpha" operator="out"/>
<feColorMatrix type="matrix" values="0 0 0 0 0 0 0 0 0 0 0 0 0 0 0 0 0 0 0.1 0"/>
<feBlend mode="normal" in2="BackgroundImageFix" result="effect1_dropShadow_362_127"/>
<feBlend mode="normal" in="SourceGraphic" in2="effect1_dropShadow_362_127" result="shape"/>
</filter>
<filter id="filter1_d_362_127" x="149.429" y="94" width="117.143" height="35.1429" filterUnits="userSpaceOnUse" color-interpolation-filters="sRGB">
<feFlood flood-opacity="0" result="BackgroundImageFix"/>
<feColorMatrix in="SourceAlpha" type="matrix" values="0 0 0 0 0 0 0 0 0 0 0 0 0 0 0 0 0 0 127 0" result="hardAlpha"/>
<feOffset dy="1.57143"/>
<feGaussianBlur stdDeviation="0.785714"/>
<feComposite in2="hardAlpha" operator="out"/>
<feColorMatrix type="matrix" values="0 0 0 0 0 0 0 0 0 0 0 0 0 0 0 0 0 0 0.1 0"/>
<feBlend mode="normal" in2="BackgroundImageFix" result="effect1_dropShadow_362_127"/>
<feBlend mode="normal" in="SourceGraphic" in2="effect1_dropShadow_362_127" result="shape"/>
</filter>
<filter id="filter2_d_362_127" x="256.25" y="179.25" width="92.5" height="92.5" filterUnits="userSpaceOnUse" color-interpolation-filters="sRGB">
<feFlood flood-opacity="0" result="BackgroundImageFix"/>
<feColorMatrix in="SourceAlpha" type="matrix" values="0 0 0 0 0 0 0 0 0 0 0 0 0 0 0 0 0 0 127 0" result="hardAlpha"/>
<feOffset/>
<feGaussianBlur stdDeviation="10"/>
<feComposite in2="hardAlpha" operator="out"/>
<feColorMatrix type="matrix" values="0 0 0 0 0.635294 0 0 0 0 0.25098 0 0 0 0 0.964706 0 0 0 0.2 0"/>
<feBlend mode="normal" in2="BackgroundImageFix" result="effect1_dropShadow_362_127"/>
<feBlend mode="normal" in="SourceGraphic" in2="effect1_dropShadow_362_127" result="shape"/>
</filter>
<linearGradient id="paint0_linear_362_127" x1="185.28" y1="157" x2="185.28" y2="324.49" gradientUnits="userSpaceOnUse">
<stop stop-color="#A240F6"/>
<stop offset="1" stop-color="#0094FF"/>
</linearGradient>
<clipPath id="clip0_362_127">
<rect width="316" height="321" fill="white"/>
</clipPath>
</defs>
</svg>
