<?xml version="1.0" encoding="UTF-8"?> <svg xmlns="http://www.w3.org/2000/svg" width="370" height="216" viewBox="0 0 370 216" fill="none"><g filter="url(#filter0_d_413_1453)"><rect x="35" y="32" width="300" height="430" rx="15" fill="white" shape-rendering="crispEdges"></rect><rect x="140" y="72" width="90" height="90" rx="45" fill="#F6ECFE"></rect><path d="M177.408 125.093L167.281 116.991C164.382 114.673 165.152 110.071 168.649 108.824L198.156 98.286C201.922 96.9399 205.56 100.578 204.214 104.344L193.676 133.852C192.428 137.347 187.828 138.118 185.509 135.22L177.408 125.093ZM177.408 125.093L189.142 113.358" stroke="#C17FF9" stroke-width="4" stroke-linecap="round" stroke-linejoin="round"></path><path d="M104.934 190.375V194.75H110.809V197.525H104.934V202.15H111.559V205H101.434V187.525H111.559V190.375H104.934ZM113.84 198.05C113.84 196.667 114.123 195.442 114.69 194.375C115.273 193.292 116.057 192.45 117.04 191.85C118.023 191.25 119.107 190.95 120.29 190.95C121.273 190.95 122.14 191.142 122.89 191.525C123.657 191.892 124.273 192.367 124.74 192.95V191.15H128.265V211.6H124.74V203.1C124.273 203.7 123.648 204.2 122.865 204.6C122.082 205 121.198 205.2 120.215 205.2C119.048 205.2 117.973 204.9 116.99 204.3C116.023 203.683 115.257 202.833 114.69 201.75C114.123 200.667 113.84 199.433 113.84 198.05ZM124.74 198.075C124.74 197.225 124.565 196.492 124.215 195.875C123.865 195.258 123.407 194.792 122.84 194.475C122.29 194.158 121.698 194 121.065 194C120.448 194 119.857 194.158 119.29 194.475C118.74 194.792 118.29 195.258 117.94 195.875C117.59 196.475 117.415 197.2 117.415 198.05C117.415 198.9 117.59 199.642 117.94 200.275C118.29 200.892 118.74 201.358 119.29 201.675C119.857 201.992 120.448 202.15 121.065 202.15C121.698 202.15 122.29 201.992 122.84 201.675C123.407 201.358 123.865 200.892 124.215 200.275C124.565 199.658 124.74 198.925 124.74 198.075ZM144.758 191.15V205H141.233V203.25C140.783 203.85 140.192 204.325 139.458 204.675C138.742 205.008 137.958 205.175 137.108 205.175C136.025 205.175 135.067 204.95 134.233 204.5C133.4 204.033 132.742 203.358 132.258 202.475C131.792 201.575 131.558 200.508 131.558 199.275V191.15H135.058V198.775C135.058 199.875 135.333 200.725 135.883 201.325C136.433 201.908 137.183 202.2 138.133 202.2C139.1 202.2 139.858 201.908 140.408 201.325C140.958 200.725 141.233 199.875 141.233 198.775V191.15H144.758ZM149.987 189.5C149.37 189.5 148.853 189.308 148.437 188.925C148.037 188.525 147.837 188.033 147.837 187.45C147.837 186.867 148.037 186.383 148.437 186C148.853 185.6 149.37 185.4 149.987 185.4C150.603 185.4 151.112 185.6 151.512 186C151.928 186.383 152.137 186.867 152.137 187.45C152.137 188.033 151.928 188.525 151.512 188.925C151.112 189.308 150.603 189.5 149.987 189.5ZM151.712 191.15V205H148.212V191.15H151.712ZM161.52 194.025H159.095V205H155.545V194.025H153.97V191.15H155.545V190.45C155.545 188.75 156.028 187.5 156.995 186.7C157.961 185.9 159.42 185.525 161.37 185.575V188.525C160.52 188.508 159.928 188.65 159.595 188.95C159.261 189.25 159.095 189.792 159.095 190.575V191.15H161.52V194.025ZM162.888 198.025C162.888 196.625 163.163 195.383 163.713 194.3C164.28 193.217 165.038 192.383 165.988 191.8C166.955 191.217 168.03 190.925 169.213 190.925C170.246 190.925 171.146 191.133 171.913 191.55C172.696 191.967 173.321 192.492 173.788 193.125V191.15H177.313V205H173.788V202.975C173.338 203.625 172.713 204.167 171.913 204.6C171.13 205.017 170.221 205.225 169.188 205.225C168.021 205.225 166.955 204.925 165.988 204.325C165.038 203.725 164.28 202.883 163.713 201.8C163.163 200.7 162.888 199.442 162.888 198.025ZM173.788 198.075C173.788 197.225 173.621 196.5 173.288 195.9C172.955 195.283 172.505 194.817 171.938 194.5C171.371 194.167 170.763 194 170.113 194C169.463 194 168.863 194.158 168.313 194.475C167.763 194.792 167.313 195.258 166.963 195.875C166.63 196.475 166.463 197.192 166.463 198.025C166.463 198.858 166.63 199.592 166.963 200.225C167.313 200.842 167.763 201.317 168.313 201.65C168.88 201.983 169.48 202.15 170.113 202.15C170.763 202.15 171.371 201.992 171.938 201.675C172.505 201.342 172.955 200.875 173.288 200.275C173.621 199.658 173.788 198.925 173.788 198.075ZM188.381 205L185.531 200.7L183.006 205H179.256L183.781 198.05L179.206 191.15H183.156L185.981 195.425L188.531 191.15H192.281L187.731 198.05L192.331 205H188.381ZM203.689 202.225H209.439V205H200.189V187.55H203.689V202.225ZM224.539 197.775C224.539 198.275 224.506 198.725 224.439 199.125H214.314C214.397 200.125 214.747 200.908 215.364 201.475C215.981 202.042 216.739 202.325 217.639 202.325C218.939 202.325 219.864 201.767 220.414 200.65H224.189C223.789 201.983 223.022 203.083 221.889 203.95C220.756 204.8 219.364 205.225 217.714 205.225C216.381 205.225 215.181 204.933 214.114 204.35C213.064 203.75 212.239 202.908 211.639 201.825C211.056 200.742 210.764 199.492 210.764 198.075C210.764 196.642 211.056 195.383 211.639 194.3C212.222 193.217 213.039 192.383 214.089 191.8C215.139 191.217 216.347 190.925 217.714 190.925C219.031 190.925 220.206 191.208 221.239 191.775C222.289 192.342 223.097 193.15 223.664 194.2C224.247 195.233 224.539 196.425 224.539 197.775ZM220.914 196.775C220.897 195.875 220.572 195.158 219.939 194.625C219.306 194.075 218.531 193.8 217.614 193.8C216.747 193.8 216.014 194.067 215.414 194.6C214.831 195.117 214.472 195.842 214.339 196.775H220.914ZM231.169 194.025V200.725C231.169 201.192 231.277 201.533 231.494 201.75C231.727 201.95 232.11 202.05 232.644 202.05H234.269V205H232.069C229.119 205 227.644 203.567 227.644 200.7V194.025H225.994V191.15H227.644V187.725H231.169V191.15H234.269V194.025H231.169ZM240.861 194.025V200.725C240.861 201.192 240.969 201.533 241.186 201.75C241.419 201.95 241.803 202.05 242.336 202.05H243.961V205H241.761C238.811 205 237.336 203.567 237.336 200.7V194.025H235.686V191.15H237.336V187.725H240.861V191.15H243.961V194.025H240.861ZM259.353 197.775C259.353 198.275 259.32 198.725 259.253 199.125H249.128C249.212 200.125 249.562 200.908 250.178 201.475C250.795 202.042 251.553 202.325 252.453 202.325C253.753 202.325 254.678 201.767 255.228 200.65H259.003C258.603 201.983 257.837 203.083 256.703 203.95C255.57 204.8 254.178 205.225 252.528 205.225C251.195 205.225 249.995 204.933 248.928 204.35C247.878 203.75 247.053 202.908 246.453 201.825C245.87 200.742 245.578 199.492 245.578 198.075C245.578 196.642 245.87 195.383 246.453 194.3C247.037 193.217 247.853 192.383 248.903 191.8C249.953 191.217 251.162 190.925 252.528 190.925C253.845 190.925 255.02 191.208 256.053 191.775C257.103 192.342 257.912 193.15 258.478 194.2C259.062 195.233 259.353 196.425 259.353 197.775ZM255.728 196.775C255.712 195.875 255.387 195.158 254.753 194.625C254.12 194.075 253.345 193.8 252.428 193.8C251.562 193.8 250.828 194.067 250.228 194.6C249.645 195.117 249.287 195.842 249.153 196.775H255.728ZM265.408 193.3C265.858 192.567 266.441 191.992 267.158 191.575C267.891 191.158 268.725 190.95 269.658 190.95V194.625H268.733C267.633 194.625 266.8 194.883 266.233 195.4C265.683 195.917 265.408 196.817 265.408 198.1V205H261.908V191.15H265.408V193.3Z" fill="#464A4E"></path></g><defs><filter id="filter0_d_413_1453" x="0" y="0" width="370" height="500" filterUnits="userSpaceOnUse" color-interpolation-filters="sRGB"><feFlood flood-opacity="0" result="BackgroundImageFix"></feFlood><feColorMatrix in="SourceAlpha" type="matrix" values="0 0 0 0 0 0 0 0 0 0 0 0 0 0 0 0 0 0 127 0" result="hardAlpha"></feColorMatrix><feMorphology radius="15" operator="erode" in="SourceAlpha" result="effect1_dropShadow_413_1453"></feMorphology><feOffset dy="3"></feOffset><feGaussianBlur stdDeviation="25"></feGaussianBlur><feComposite in2="hardAlpha" operator="out"></feComposite><feColorMatrix type="matrix" values="0 0 0 0 0.431373 0 0 0 0 0.407843 0 0 0 0 0.980392 0 0 0 0.2 0"></feColorMatrix><feBlend mode="normal" in2="BackgroundImageFix" result="effect1_dropShadow_413_1453"></feBlend><feBlend mode="normal" in="SourceGraphic" in2="effect1_dropShadow_413_1453" result="shape"></feBlend></filter></defs></svg> 