<?xml version="1.0" encoding="UTF-8"?> <svg xmlns="http://www.w3.org/2000/svg" width="1351" height="775" viewBox="0 0 1351 775" fill="none"><path d="M35.1508 146.973C35.0343 145.691 34.9641 144.418 34.9387 143.154L33.9389 143.174C33.886 140.541 34.0241 137.948 34.3402 135.409L35.3325 135.532C35.6505 132.978 36.152 130.478 36.8234 128.047L35.8595 127.781C36.5553 125.262 37.4301 122.815 38.4695 120.456L39.3847 120.859C40.4157 118.519 41.6118 116.266 42.9582 114.115L42.1106 113.584C43.4904 111.38 45.025 109.282 46.6992 107.304L47.4624 107.951C49.1088 106.006 50.8927 104.181 52.7991 102.491L52.1357 101.743C54.0743 100.024 56.1374 98.4425 58.3095 97.013L58.8592 97.8484C60.979 96.4534 63.2044 95.2064 65.5208 94.1225L65.0969 93.2168C67.4321 92.1241 69.8582 91.1939 72.3605 90.4411L72.6486 91.3987C75.0637 90.6722 77.5513 90.114 80.098 89.7382L79.952 88.7489C82.4839 88.3752 85.0729 88.1783 87.7063 88.1713L87.7089 89.1713C88.973 89.168 90.2476 89.2092 91.5314 89.2966L95.5082 89.5672L95.5761 88.5695L103.53 89.1107L103.462 90.1084L111.415 90.6497L111.483 89.652L119.437 90.1932L119.369 91.1909L127.323 91.7322L127.391 90.7345L135.344 91.2757L135.276 92.2734L143.23 92.8146L143.298 91.8169L151.252 92.3582L151.184 93.3559L159.137 93.8971L159.205 92.8994L167.159 93.4406L167.091 94.4383L175.045 94.9796L175.113 93.9819L183.066 94.5231L182.998 95.5208L190.952 96.0621L191.02 95.0644L198.973 95.6056L198.906 96.6033L206.859 97.1445L206.927 96.1468L214.881 96.6881L214.813 97.6858L222.767 98.227L222.834 97.2293L230.788 97.7705L230.72 98.7682L238.674 99.3095L238.742 98.3118L246.695 98.853L246.627 99.8507L254.581 100.392L254.649 99.3943L262.603 99.9355L262.535 100.933L270.488 101.474L270.556 100.477L278.51 101.018L278.442 102.016L286.396 102.557L286.464 101.559L294.417 102.1L294.349 103.098L302.303 103.639L302.371 102.642L310.325 103.183L310.257 104.181L318.21 104.722L318.278 103.724L326.232 104.265L326.164 105.263L334.118 105.804L334.186 104.807L342.139 105.348L342.071 106.346L350.025 106.887L350.093 105.889L358.046 106.43L357.979 107.428L365.932 107.969L366 106.972L373.954 107.513L373.886 108.511L381.84 109.052L381.907 108.054L389.861 108.595L389.793 109.593L397.747 110.134L397.815 109.137L405.768 109.678L405.7 110.675L413.654 111.217L413.722 110.219L421.676 110.76L421.608 111.758L429.561 112.299L429.629 111.302L437.583 111.843L437.515 112.84L445.469 113.382L445.537 112.384L453.49 112.925L453.422 113.923L461.376 114.464L461.444 113.466L469.398 114.008L469.33 115.005L477.283 115.547L477.351 114.549L485.305 115.09L485.237 116.088L493.191 116.629L493.259 115.631L501.212 116.173L501.144 117.17L509.098 117.712L509.166 116.714L517.12 117.255L517.052 118.253L525.005 118.794L525.073 117.796L533.027 118.338L532.959 119.335L540.913 119.877L540.981 118.879L548.934 119.42L548.866 120.418L556.82 120.959L556.888 119.961L564.841 120.503L564.774 121.5L572.727 122.041L572.795 121.044L580.749 121.585L580.681 122.583L588.634 123.124L588.702 122.126L596.656 122.668L596.588 123.665L604.542 124.206L604.61 123.209L612.563 123.75L612.495 124.748L620.449 125.289L620.517 124.291L628.471 124.832L628.403 125.83L636.356 126.371L636.424 125.374L644.378 125.915L644.31 126.913L652.264 127.454L652.332 126.456L660.285 126.997L660.217 127.995L668.171 128.536L668.239 127.539L676.193 128.08L676.125 129.078L684.078 129.619L684.146 128.621L692.1 129.162L692.032 130.16L699.986 130.701L700.054 129.704L708.007 130.245L707.939 131.243L715.893 131.784L715.961 130.786L723.914 131.327L723.847 132.325L731.8 132.866L731.868 131.869L739.822 132.41L739.754 133.407L747.708 133.949L747.775 132.951L755.729 133.492L755.661 134.49L763.615 135.031L763.683 134.034L771.636 134.575L771.568 135.572L779.522 136.114L779.59 135.116L787.544 135.657L787.476 136.655L795.429 137.196L795.497 136.198L803.451 136.74L803.383 137.737L811.337 138.279L811.405 137.281L819.358 137.822L819.29 138.82L827.244 139.361L827.312 138.363L835.266 138.905L835.198 139.902L843.151 140.444L843.219 139.446L851.173 139.987L851.105 140.985L859.059 141.526L859.127 140.528L867.08 141.07L867.012 142.067L874.966 142.609L875.034 141.611L882.988 142.152L882.92 143.15L890.873 143.691L890.941 142.693L898.895 143.235L898.827 144.232L906.781 144.773L906.848 143.776L914.802 144.317L914.734 145.315L922.688 145.856L922.756 144.858L930.709 145.4L930.642 146.397L938.595 146.938L938.663 145.941L946.617 146.482L946.549 147.48L954.502 148.021L954.57 147.023L962.524 147.564L962.456 148.562L970.41 149.103L970.478 148.106L978.431 148.647L978.363 149.645L986.317 150.186L986.385 149.188L994.339 149.729L994.271 150.727L1002.22 151.268L1002.29 150.271L1010.25 150.812L1010.18 151.81L1018.13 152.351L1018.2 151.353L1026.15 151.894L1026.09 152.892L1034.04 153.433L1034.11 152.436L1042.06 152.977L1041.99 153.975L1049.95 154.516L1050.01 153.518L1057.97 154.059L1057.9 155.057L1065.85 155.598L1065.92 154.601L1073.88 155.142L1073.81 156.139L1081.76 156.681L1081.83 155.683L1089.78 156.224L1089.71 157.222L1097.67 157.763L1097.74 156.766L1105.69 157.307L1105.62 158.304L1113.58 158.846L1113.64 157.848L1121.6 158.389L1121.53 159.387L1129.48 159.928L1129.55 158.93L1137.5 159.472L1137.44 160.469L1145.39 161.011L1145.46 160.013L1153.41 160.554L1153.34 161.552L1161.3 162.093L1161.37 161.095L1169.32 161.637L1169.25 162.634L1177.2 163.176L1177.27 162.178L1185.23 162.719L1185.16 163.717L1193.11 164.258L1193.18 163.26L1201.13 163.802L1201.07 164.799L1209.02 165.341L1209.09 164.343L1217.04 164.884L1216.97 165.882L1224.93 166.423L1224.99 165.425L1232.95 165.967L1232.88 166.964L1240.83 167.505L1240.9 166.508L1248.86 167.049L1248.79 168.047L1256.74 168.588L1256.81 167.59L1264.76 168.132L1264.69 169.129L1272.65 169.67L1272.72 168.673L1280.67 169.214L1280.6 170.212L1284.58 170.482C1285.9 170.572 1287.2 170.709 1288.49 170.89L1288.63 169.9C1291.31 170.279 1293.92 170.85 1296.44 171.598L1296.15 172.556C1298.69 173.309 1301.14 174.243 1303.49 175.343L1303.91 174.437C1306.35 175.577 1308.67 176.891 1310.88 178.36L1310.32 179.192C1312.51 180.65 1314.58 182.264 1316.51 184.016L1317.18 183.275C1319.16 185.07 1321 187.006 1322.69 189.064L1321.92 189.699C1323.58 191.723 1325.09 193.868 1326.44 196.113L1327.3 195.598C1328.67 197.881 1329.87 200.267 1330.9 202.736L1329.98 203.119C1330.98 205.528 1331.8 208.017 1332.44 210.568L1333.41 210.325C1334.05 212.896 1334.51 215.527 1334.76 218.202L1333.77 218.298C1334.02 220.877 1334.07 223.497 1333.93 226.141L1334.93 226.195C1334.78 228.82 1334.45 231.468 1333.9 234.122L1332.92 233.921C1332.66 235.193 1332.35 236.467 1331.99 237.741L1330.91 241.587L1331.87 241.859L1329.7 249.552L1328.74 249.28L1326.57 256.973L1327.53 257.245L1325.36 264.938L1324.4 264.666L1322.23 272.359L1323.19 272.631L1321.03 280.324L1320.06 280.052L1317.89 287.745L1318.86 288.017L1316.69 295.71L1315.73 295.438L1313.56 303.131L1314.52 303.403L1312.35 311.096L1311.39 310.825L1309.22 318.518L1310.18 318.789L1308.01 326.482L1307.05 326.211L1304.88 333.904L1305.84 334.175L1303.68 341.868L1302.71 341.597L1300.54 349.29L1301.51 349.561L1299.34 357.254L1298.38 356.983L1296.21 364.676L1297.17 364.947L1295 372.64L1294.04 372.369L1291.87 380.062L1292.83 380.333L1290.66 388.026L1289.7 387.755L1287.53 395.448L1288.49 395.719L1286.33 403.412L1285.36 403.141L1283.19 410.834L1284.16 411.105L1281.99 418.798L1281.03 418.527L1278.86 426.22L1279.82 426.491L1277.65 434.184L1276.69 433.913L1274.52 441.606L1275.48 441.877L1273.31 449.57L1272.35 449.299L1270.18 456.992L1271.14 457.263L1268.98 464.956L1268.01 464.685L1265.84 472.378L1266.81 472.649L1264.64 480.342L1263.68 480.071L1261.51 487.764L1262.47 488.035L1260.3 495.728L1259.34 495.457L1257.17 503.15L1258.13 503.421L1255.96 511.114L1255 510.843L1253.92 514.689C1253.56 515.958 1253.16 517.205 1252.71 518.43L1253.65 518.771C1252.73 521.303 1251.63 523.739 1250.37 526.067L1249.49 525.59C1248.23 527.906 1246.81 530.112 1245.24 532.195L1246.04 532.797C1244.43 534.935 1242.67 536.945 1240.77 538.812L1240.06 538.099C1238.2 539.937 1236.19 541.633 1234.07 543.175L1234.66 543.984C1232.51 545.551 1230.23 546.96 1227.86 548.198L1227.4 547.311C1225.09 548.517 1222.68 549.556 1220.18 550.415L1220.51 551.36C1218.01 552.224 1215.42 552.908 1212.77 553.399L1212.59 552.416C1211.31 552.654 1210.01 552.846 1208.7 552.99L1204.71 553.43L1204.81 554.424L1196.82 555.305L1196.71 554.311L1188.71 555.191L1188.82 556.185L1180.82 557.066L1180.71 556.072L1172.71 556.952L1172.82 557.946L1164.83 558.827L1164.72 557.833L1156.72 558.713L1156.83 559.708L1148.83 560.588L1148.72 559.594L1140.72 560.475L1140.83 561.469L1132.84 562.349L1132.73 561.355L1124.73 562.236L1124.84 563.23L1116.84 564.11L1116.73 563.116L1108.73 563.997L1108.84 564.991L1100.85 565.871L1100.74 564.877L1092.74 565.758L1092.85 566.752L1084.85 567.632L1084.74 566.638L1076.74 567.519L1076.85 568.513L1068.85 569.393L1068.75 568.399L1060.75 569.28L1060.86 570.274L1052.86 571.155L1052.75 570.161L1044.75 571.041L1044.86 572.035L1036.86 572.916L1036.75 571.922L1028.76 572.802L1028.87 573.796L1020.87 574.677L1020.76 573.683L1012.76 574.563L1012.87 575.557L1004.87 576.438L1004.76 575.444L996.766 576.324L996.876 577.318L988.878 578.199L988.769 577.205L980.771 578.085L980.88 579.079L972.883 579.96L972.773 578.966L964.776 579.847L964.885 580.84L956.887 581.721L956.778 580.727L948.78 581.608L948.89 582.602L940.892 583.482L940.783 582.488L932.785 583.369L932.894 584.363L924.897 585.243L924.787 584.249L916.79 585.13L916.899 586.124L908.901 587.004L908.792 586.01L900.794 586.891L900.904 587.885L892.906 588.765L892.797 587.771L884.799 588.652L884.908 589.646L876.911 590.526L876.801 589.532L868.804 590.413L868.913 591.407L860.915 592.288L860.806 591.294L852.808 592.174L852.918 593.168L844.92 594.049L844.811 593.055L836.813 593.935L836.922 594.929L828.925 595.81L828.815 594.816L820.818 595.696L820.927 596.69L812.929 597.571L812.82 596.577L804.822 597.457L804.932 598.451L796.934 599.332L796.825 598.338L788.827 599.218L788.936 600.212L780.939 601.093L780.829 600.099L772.832 600.98L772.941 601.973L764.943 602.854L764.834 601.86L756.836 602.741L756.946 603.735L748.948 604.615L748.839 603.621L740.841 604.502L740.95 605.496L732.953 606.376L732.843 605.382L724.846 606.263L724.955 607.257L716.958 608.137L716.848 607.143L708.85 608.024L708.96 609.018L700.962 609.898L700.853 608.904L692.855 609.785L692.965 610.779L684.967 611.659L684.857 610.665L676.86 611.546L676.969 612.54L668.971 613.421L668.862 612.427L660.864 613.307L660.974 614.301L652.976 615.182L652.867 614.188L644.869 615.068L644.978 616.062L636.981 616.943L636.871 615.949L628.874 616.829L628.983 617.823L620.985 618.704L620.876 617.71L612.878 618.59L612.988 619.584L604.99 620.465L604.881 619.471L596.883 620.351L596.992 621.345L588.995 622.226L588.885 621.232L580.887 622.113L580.997 623.107L572.999 623.987L572.89 622.993L564.892 623.874L565.002 624.868L557.004 625.748L556.894 624.754L548.897 625.635L549.006 626.629L541.008 627.509L540.899 626.515L532.901 627.396L533.011 628.39L525.013 629.27L524.904 628.276L516.906 629.157L517.015 630.151L509.018 631.031L508.908 630.037L500.911 630.918L501.02 631.912L493.022 632.793L492.913 631.799L484.915 632.679L485.025 633.673L477.027 634.554L476.917 633.56L468.92 634.44L469.029 635.434L461.032 636.315L460.922 635.321L452.924 636.201L453.034 637.195L445.036 638.076L444.927 637.082L436.929 637.962L437.038 638.956L429.041 639.837L428.931 638.843L420.934 639.723L421.043 640.717L413.045 641.598L412.936 640.604L404.938 641.485L405.048 642.479L397.05 643.359L396.941 642.365L388.943 643.246L389.052 644.24L381.055 645.12L380.945 644.126L372.947 645.007L373.057 646.001L365.059 646.881L364.95 645.887L356.952 646.768L357.061 647.762L349.064 648.642L348.954 647.648L340.957 648.529L341.066 649.523L333.068 650.403L332.959 649.409L324.961 650.29L325.071 651.284L317.073 652.165L316.964 651.171L308.966 652.051L309.075 653.045L301.078 653.926L300.968 652.932L292.971 653.812L293.08 654.806L285.082 655.687L284.973 654.693L276.975 655.573L277.085 656.567L269.087 657.448L268.977 656.454L260.98 657.334L261.089 658.328L253.092 659.209L252.982 658.215L244.984 659.095L245.094 660.089L237.096 660.97L236.987 659.976L228.989 660.857L229.098 661.851L221.101 662.731L220.991 661.737L212.994 662.618L213.103 663.612L205.105 664.492L204.996 663.498L196.998 664.379L197.108 665.373L189.11 666.253L189.001 665.259L181.003 666.14L181.112 667.134L173.115 668.014L173.005 667.02L165.007 667.901L165.117 668.895L157.119 669.775L157.01 668.781L149.012 669.662L149.122 670.656L141.124 671.537L141.014 670.543L137.018 670.983C135.607 671.138 134.204 671.236 132.811 671.28L132.842 672.279C129.941 672.37 127.079 672.227 124.276 671.866L124.404 670.875C121.592 670.513 118.84 669.927 116.17 669.136L115.886 670.095C113.126 669.276 110.451 668.242 107.884 667.008L108.317 666.107C105.777 664.887 103.345 663.47 101.04 661.872L100.471 662.694C98.1178 661.063 95.8967 659.247 93.8299 657.266L94.5219 656.544C92.4978 654.604 90.6245 652.502 88.924 650.256L88.1267 650.86C86.4073 648.589 84.8611 646.174 83.5101 643.632L84.3931 643.163C83.086 640.703 81.965 638.123 81.0508 635.439L80.1042 635.762C79.1931 633.087 78.4835 630.311 77.995 627.449L78.9807 627.281C78.7461 625.907 78.5635 624.512 78.435 623.099L78.0743 619.132L77.0784 619.222L76.357 611.287L77.3529 611.196L76.6315 603.261L75.6356 603.351L74.9142 595.416L75.9101 595.325L75.1887 587.39L74.1928 587.48L73.4714 579.545L74.4673 579.454L73.7459 571.519L72.75 571.609L72.0286 563.674L73.0245 563.583L72.3031 555.648L71.3072 555.739L70.5858 547.803L71.5817 547.713L70.8603 539.777L69.8644 539.868L69.143 531.932L70.1389 531.842L69.4175 523.906L68.4216 523.997L67.7002 516.061L68.6961 515.971L67.9747 508.035L66.9788 508.126L66.2574 500.19L67.2532 500.1L66.5318 492.164L65.5359 492.255L64.8145 484.32L65.8104 484.229L65.089 476.294L64.0931 476.384L63.3717 468.449L64.3676 468.358L63.6462 460.423L62.6503 460.513L61.9289 452.578L62.9248 452.487L62.2034 444.552L61.2075 444.642L60.4861 436.707L61.482 436.616L60.7606 428.681L59.7647 428.771L59.0433 420.836L60.0392 420.745L59.3178 412.81L58.3219 412.901L57.6005 404.965L58.5964 404.875L57.875 396.939L56.8791 397.03L56.1577 389.094L57.1536 389.004L56.4322 381.068L55.4363 381.159L54.7149 373.223L55.7108 373.133L54.9894 365.197L53.9935 365.288L53.2721 357.352L54.268 357.262L53.5466 349.326L52.5507 349.417L51.8293 341.482L52.8252 341.391L52.1038 333.456L51.1079 333.546L50.3865 325.611L51.3824 325.52L50.6609 317.585L49.6651 317.675L48.9437 309.74L49.9395 309.649L49.2181 301.714L48.2222 301.804L47.5008 293.869L48.4967 293.778L47.7753 285.843L46.7794 285.933L46.058 277.998L47.0539 277.907L46.3325 269.972L45.3366 270.063L44.6152 262.127L45.6111 262.037L44.8897 254.101L43.8938 254.192L43.1724 246.256L44.1683 246.166L43.4469 238.23L42.451 238.321L41.7296 230.385L42.7255 230.295L42.0041 222.359L41.0082 222.45L40.2868 214.514L41.2827 214.424L40.5613 206.488L39.5654 206.579L38.844 198.644L39.8399 198.553L39.1185 190.618L38.1226 190.708L37.4012 182.773L38.3971 182.682L37.6757 174.747L36.6798 174.837L35.9584 166.902L36.9543 166.811L36.2329 158.876L35.237 158.966L34.5156 151.031L35.5115 150.94L35.1508 146.973Z" stroke="#6E68FA" stroke-width="2" stroke-dasharray="8 8"></path><circle cx="656" cy="45" r="44" stroke="#0AE7FE" stroke-width="2"></circle></svg> 